<svg width="373" height="183" viewBox="0 0 373 183" fill="none" xmlns="http://www.w3.org/2000/svg">
<path d="M286 94.6667L286 11.3333L269.333 3M286 94.6667L269.333 103L202.667 69.6667M286 94.6667L219.333 61.3333M269.333 3L269.333 69.6667L236 53L252.667 44.6667L186 78L119.333 44.6667L136 53L102.667 69.6667L102.667 2.99999M269.333 3L186 44.6667L102.667 2.99999M252.667 61.3333L252.667 28L186 61.3333L119.333 28L119.333 61.3333M86 94.6667L86 11.3333L102.667 2.99999M86 94.6667L102.667 103L169.333 69.6667M86 94.6667L152.667 61.3333" stroke="url(#paint0_linear_116_2)" stroke-width="5" stroke-linejoin="round"/>
<path d="M134.594 121.636H139.904L145.512 135.318H145.75L151.358 121.636H156.668V142H152.492V128.746H152.323L147.053 141.901H144.209L138.939 128.696H138.77V142H134.594V121.636ZM164.491 142.288C163.516 142.288 162.648 142.119 161.886 141.781C161.123 141.437 160.52 140.929 160.076 140.26C159.638 139.584 159.42 138.742 159.42 137.734C159.42 136.886 159.576 136.173 159.887 135.597C160.199 135.02 160.623 134.556 161.16 134.205C161.697 133.853 162.307 133.588 162.989 133.409C163.679 133.23 164.401 133.104 165.157 133.031C166.045 132.938 166.761 132.852 167.305 132.773C167.848 132.687 168.243 132.561 168.488 132.395C168.733 132.229 168.856 131.984 168.856 131.659V131.599C168.856 130.97 168.657 130.482 168.259 130.138C167.868 129.793 167.311 129.621 166.589 129.621C165.826 129.621 165.22 129.79 164.769 130.128C164.318 130.459 164.02 130.877 163.874 131.381L159.957 131.062C160.156 130.134 160.547 129.332 161.13 128.656C161.713 127.973 162.466 127.45 163.387 127.085C164.315 126.714 165.389 126.528 166.609 126.528C167.457 126.528 168.269 126.628 169.045 126.827C169.827 127.026 170.52 127.334 171.123 127.751C171.733 128.169 172.213 128.706 172.565 129.362C172.916 130.012 173.092 130.791 173.092 131.699V142H169.075V139.882H168.955C168.71 140.359 168.382 140.78 167.971 141.145C167.56 141.503 167.066 141.785 166.489 141.99C165.913 142.189 165.246 142.288 164.491 142.288ZM165.704 139.365C166.327 139.365 166.877 139.242 167.354 138.997C167.832 138.745 168.206 138.407 168.478 137.983C168.75 137.559 168.886 137.078 168.886 136.541V134.92C168.753 135.007 168.571 135.086 168.339 135.159C168.113 135.225 167.858 135.288 167.573 135.348C167.288 135.401 167.003 135.451 166.718 135.497C166.433 135.537 166.174 135.573 165.942 135.607C165.445 135.679 165.011 135.795 164.64 135.955C164.269 136.114 163.98 136.329 163.775 136.601C163.569 136.866 163.467 137.197 163.467 137.595C163.467 138.172 163.675 138.613 164.093 138.918C164.517 139.216 165.054 139.365 165.704 139.365ZM179.918 126.727L182.722 132.067L185.595 126.727H189.94L185.516 134.364L190.06 142H185.734L182.722 136.72L179.759 142H175.384L179.918 134.364L175.543 126.727H179.918ZM192.456 142V126.727H196.692V142H192.456ZM194.584 124.759C193.954 124.759 193.414 124.55 192.963 124.132C192.519 123.708 192.297 123.201 192.297 122.611C192.297 122.027 192.519 121.527 192.963 121.109C193.414 120.685 193.954 120.473 194.584 120.473C195.214 120.473 195.75 120.685 196.195 121.109C196.645 121.527 196.871 122.027 196.871 122.611C196.871 123.201 196.645 123.708 196.195 124.132C195.75 124.55 195.214 124.759 194.584 124.759ZM200.085 142V126.727H204.122V129.422H204.301C204.619 128.527 205.149 127.821 205.892 127.304C206.634 126.787 207.522 126.528 208.556 126.528C209.604 126.528 210.495 126.79 211.231 127.314C211.967 127.831 212.458 128.534 212.703 129.422H212.862C213.173 128.547 213.737 127.848 214.552 127.324C215.374 126.794 216.345 126.528 217.466 126.528C218.891 126.528 220.047 126.982 220.936 127.891C221.831 128.792 222.278 130.071 222.278 131.729V142H218.052V132.564C218.052 131.715 217.827 131.079 217.376 130.655C216.925 130.231 216.362 130.018 215.686 130.018C214.917 130.018 214.317 130.264 213.886 130.754C213.455 131.238 213.24 131.878 213.24 132.673V142H209.133V132.474C209.133 131.725 208.918 131.129 208.487 130.685C208.063 130.241 207.502 130.018 206.806 130.018C206.336 130.018 205.912 130.138 205.534 130.376C205.163 130.608 204.868 130.937 204.649 131.361C204.43 131.778 204.321 132.269 204.321 132.832V142H200.085ZM229.979 142.288C229.005 142.288 228.136 142.119 227.374 141.781C226.612 141.437 226.008 140.929 225.564 140.26C225.127 139.584 224.908 138.742 224.908 137.734C224.908 136.886 225.064 136.173 225.375 135.597C225.687 135.02 226.111 134.556 226.648 134.205C227.185 133.853 227.795 133.588 228.478 133.409C229.167 133.23 229.89 133.104 230.645 133.031C231.533 132.938 232.249 132.852 232.793 132.773C233.337 132.687 233.731 132.561 233.976 132.395C234.221 132.229 234.344 131.984 234.344 131.659V131.599C234.344 130.97 234.145 130.482 233.748 130.138C233.356 129.793 232.8 129.621 232.077 129.621C231.315 129.621 230.708 129.79 230.257 130.128C229.807 130.459 229.508 130.877 229.363 131.381L225.445 131.062C225.644 130.134 226.035 129.332 226.618 128.656C227.202 127.973 227.954 127.45 228.875 127.085C229.803 126.714 230.877 126.528 232.097 126.528C232.945 126.528 233.757 126.628 234.533 126.827C235.315 127.026 236.008 127.334 236.611 127.751C237.221 128.169 237.702 128.706 238.053 129.362C238.404 130.012 238.58 130.791 238.58 131.699V142H234.563V139.882H234.444C234.198 140.359 233.87 140.78 233.459 141.145C233.048 141.503 232.554 141.785 231.978 141.99C231.401 142.189 230.735 142.288 229.979 142.288ZM231.192 139.365C231.815 139.365 232.365 139.242 232.843 138.997C233.32 138.745 233.694 138.407 233.966 137.983C234.238 137.559 234.374 137.078 234.374 136.541V134.92C234.241 135.007 234.059 135.086 233.827 135.159C233.602 135.225 233.346 135.288 233.061 135.348C232.776 135.401 232.491 135.451 232.206 135.497C231.921 135.537 231.663 135.573 231.431 135.607C230.934 135.679 230.499 135.795 230.128 135.955C229.757 136.114 229.469 136.329 229.263 136.601C229.058 136.866 228.955 137.197 228.955 137.595C228.955 138.172 229.164 138.613 229.581 138.918C230.006 139.216 230.542 139.365 231.192 139.365ZM97.4638 162.766H93.1087C93.0291 162.202 92.8667 161.702 92.6214 161.264C92.3762 160.82 92.0613 160.442 91.6768 160.131C91.2924 159.819 90.8482 159.58 90.3445 159.415C89.8473 159.249 89.3071 159.166 88.7237 159.166C87.6697 159.166 86.7517 159.428 85.9695 159.952C85.1873 160.469 84.5807 161.224 84.1499 162.219C83.719 163.206 83.5036 164.406 83.5036 165.818C83.5036 167.27 83.719 168.49 84.1499 169.477C84.5874 170.465 85.1972 171.211 85.9794 171.714C86.7616 172.218 87.6664 172.47 88.6939 172.47C89.2706 172.47 89.8042 172.394 90.2947 172.241C90.7919 172.089 91.2327 171.867 91.6172 171.575C92.0017 171.277 92.3198 170.916 92.5717 170.491C92.8303 170.067 93.0092 169.583 93.1087 169.04L97.4638 169.06C97.3511 169.994 97.0694 170.896 96.6186 171.764C96.1745 172.626 95.5746 173.398 94.8189 174.081C94.0698 174.757 93.175 175.294 92.1342 175.692C91.1001 176.083 89.9302 176.278 88.6243 176.278C86.808 176.278 85.1839 175.867 83.7521 175.045C82.3269 174.223 81.2 173.034 80.3714 171.476C79.5495 169.918 79.1385 168.032 79.1385 165.818C79.1385 163.598 79.5561 161.708 80.3913 160.151C81.2266 158.593 82.3601 157.406 83.7919 156.591C85.2237 155.769 86.8345 155.358 88.6243 155.358C89.8042 155.358 90.898 155.524 91.9055 155.855C92.9197 156.187 93.8179 156.67 94.6001 157.307C95.3823 157.937 96.0187 158.709 96.5092 159.624C97.0064 160.538 97.3246 161.586 97.4638 162.766ZM107.372 176.298C105.828 176.298 104.492 175.97 103.365 175.314C102.245 174.651 101.38 173.73 100.77 172.55C100.16 171.363 99.8551 169.988 99.8551 168.423C99.8551 166.846 100.16 165.467 100.77 164.287C101.38 163.1 102.245 162.179 103.365 161.523C104.492 160.86 105.828 160.528 107.372 160.528C108.917 160.528 110.249 160.86 111.369 161.523C112.496 162.179 113.365 163.1 113.974 164.287C114.584 165.467 114.889 166.846 114.889 168.423C114.889 169.988 114.584 171.363 113.974 172.55C113.365 173.73 112.496 174.651 111.369 175.314C110.249 175.97 108.917 176.298 107.372 176.298ZM107.392 173.017C108.095 173.017 108.681 172.818 109.152 172.42C109.623 172.016 109.977 171.466 110.216 170.77C110.461 170.074 110.584 169.282 110.584 168.393C110.584 167.505 110.461 166.713 110.216 166.017C109.977 165.321 109.623 164.771 109.152 164.366C108.681 163.962 108.095 163.76 107.392 163.76C106.683 163.76 106.086 163.962 105.602 164.366C105.125 164.771 104.764 165.321 104.518 166.017C104.28 166.713 104.161 167.505 104.161 168.393C104.161 169.282 104.28 170.074 104.518 170.77C104.764 171.466 105.125 172.016 105.602 172.42C106.086 172.818 106.683 173.017 107.392 173.017ZM117.643 176V160.727H121.68V163.422H121.859C122.178 162.527 122.708 161.821 123.45 161.304C124.193 160.787 125.081 160.528 126.115 160.528C127.162 160.528 128.054 160.79 128.79 161.314C129.526 161.831 130.016 162.534 130.261 163.422H130.42C130.732 162.547 131.295 161.848 132.111 161.324C132.933 160.794 133.904 160.528 135.024 160.528C136.449 160.528 137.606 160.982 138.494 161.891C139.389 162.792 139.837 164.071 139.837 165.729V176H135.611V166.564C135.611 165.715 135.385 165.079 134.935 164.655C134.484 164.231 133.92 164.018 133.244 164.018C132.475 164.018 131.875 164.264 131.445 164.754C131.014 165.238 130.798 165.878 130.798 166.673V176H126.692V166.474C126.692 165.725 126.476 165.129 126.045 164.685C125.621 164.241 125.061 164.018 124.365 164.018C123.894 164.018 123.47 164.138 123.092 164.376C122.721 164.608 122.426 164.937 122.207 165.361C121.989 165.778 121.879 166.269 121.879 166.832V176H117.643ZM143.183 176V160.727H147.219V163.422H147.398C147.717 162.527 148.247 161.821 148.989 161.304C149.732 160.787 150.62 160.528 151.654 160.528C152.701 160.528 153.593 160.79 154.329 161.314C155.065 161.831 155.555 162.534 155.8 163.422H155.96C156.271 162.547 156.835 161.848 157.65 161.324C158.472 160.794 159.443 160.528 160.563 160.528C161.988 160.528 163.145 160.982 164.033 161.891C164.928 162.792 165.376 164.071 165.376 165.729V176H161.15V166.564C161.15 165.715 160.924 165.079 160.474 164.655C160.023 164.231 159.46 164.018 158.783 164.018C158.014 164.018 157.415 164.264 156.984 164.754C156.553 165.238 156.337 165.878 156.337 166.673V176H152.231V166.474C152.231 165.725 152.015 165.129 151.585 164.685C151.16 164.241 150.6 164.018 149.904 164.018C149.433 164.018 149.009 164.138 148.631 164.376C148.26 164.608 147.965 164.937 147.746 165.361C147.528 165.778 147.418 166.269 147.418 166.832V176H143.183ZM178.516 169.497V160.727H182.751V176H178.685V173.226H178.526C178.181 174.121 177.607 174.84 176.805 175.384C176.01 175.927 175.039 176.199 173.892 176.199C172.871 176.199 171.973 175.967 171.197 175.503C170.422 175.039 169.815 174.379 169.378 173.524C168.947 172.669 168.728 171.645 168.722 170.452V160.727H172.957V169.696C172.964 170.598 173.206 171.31 173.683 171.834C174.161 172.357 174.8 172.619 175.602 172.619C176.113 172.619 176.59 172.503 177.034 172.271C177.478 172.033 177.836 171.681 178.108 171.217C178.386 170.753 178.522 170.18 178.516 169.497ZM190.375 167.17V176H186.14V160.727H190.176V163.422H190.355C190.694 162.534 191.26 161.831 192.056 161.314C192.851 160.79 193.816 160.528 194.949 160.528C196.01 160.528 196.935 160.76 197.723 161.224C198.512 161.688 199.125 162.351 199.563 163.213C200 164.068 200.219 165.089 200.219 166.276V176H195.983V167.031C195.99 166.097 195.751 165.367 195.267 164.844C194.783 164.313 194.117 164.048 193.269 164.048C192.699 164.048 192.195 164.171 191.757 164.416C191.327 164.661 190.989 165.019 190.743 165.49C190.505 165.954 190.382 166.514 190.375 167.17ZM203.558 176V160.727H207.793V176H203.558ZM205.685 158.759C205.056 158.759 204.515 158.55 204.065 158.132C203.621 157.708 203.398 157.201 203.398 156.611C203.398 156.027 203.621 155.527 204.065 155.109C204.515 154.685 205.056 154.473 205.685 154.473C206.315 154.473 206.852 154.685 207.296 155.109C207.747 155.527 207.972 156.027 207.972 156.611C207.972 157.201 207.747 157.708 207.296 158.132C206.852 158.55 206.315 158.759 205.685 158.759ZM218.087 176.298C216.523 176.298 215.177 175.967 214.05 175.304C212.93 174.634 212.068 173.706 211.465 172.52C210.868 171.333 210.57 169.968 210.57 168.423C210.57 166.859 210.872 165.487 211.475 164.307C212.085 163.12 212.95 162.196 214.07 161.533C215.19 160.863 216.523 160.528 218.067 160.528C219.4 160.528 220.566 160.77 221.567 161.254C222.568 161.738 223.36 162.418 223.944 163.293C224.527 164.168 224.848 165.195 224.908 166.375H220.911C220.798 165.613 220.5 165 220.016 164.536C219.539 164.065 218.912 163.83 218.137 163.83C217.48 163.83 216.907 164.009 216.417 164.366C215.933 164.718 215.555 165.232 215.283 165.908C215.011 166.584 214.875 167.402 214.875 168.364C214.875 169.338 215.008 170.167 215.273 170.849C215.545 171.532 215.926 172.053 216.417 172.411C216.907 172.768 217.48 172.947 218.137 172.947C218.621 172.947 219.055 172.848 219.439 172.649C219.83 172.45 220.152 172.162 220.404 171.784C220.662 171.4 220.831 170.939 220.911 170.402H224.908C224.842 171.569 224.524 172.596 223.953 173.484C223.39 174.366 222.611 175.055 221.617 175.553C220.623 176.05 219.446 176.298 218.087 176.298ZM231.975 176.288C231.001 176.288 230.132 176.119 229.37 175.781C228.608 175.437 228.004 174.929 227.56 174.26C227.123 173.584 226.904 172.742 226.904 171.734C226.904 170.886 227.06 170.173 227.371 169.597C227.683 169.02 228.107 168.556 228.644 168.205C229.181 167.853 229.791 167.588 230.474 167.409C231.163 167.23 231.886 167.104 232.641 167.031C233.53 166.938 234.246 166.852 234.789 166.773C235.333 166.687 235.727 166.561 235.972 166.395C236.218 166.229 236.34 165.984 236.34 165.659V165.599C236.34 164.97 236.141 164.482 235.744 164.138C235.353 163.793 234.796 163.621 234.073 163.621C233.311 163.621 232.704 163.79 232.254 164.128C231.803 164.459 231.504 164.877 231.359 165.381L227.441 165.062C227.64 164.134 228.031 163.332 228.614 162.656C229.198 161.973 229.95 161.45 230.871 161.085C231.799 160.714 232.873 160.528 234.093 160.528C234.942 160.528 235.754 160.628 236.529 160.827C237.311 161.026 238.004 161.334 238.607 161.751C239.217 162.169 239.698 162.706 240.049 163.362C240.4 164.012 240.576 164.791 240.576 165.699V176H236.559V173.882H236.44C236.194 174.359 235.866 174.78 235.455 175.145C235.044 175.503 234.55 175.785 233.974 175.99C233.397 176.189 232.731 176.288 231.975 176.288ZM233.188 173.365C233.811 173.365 234.362 173.242 234.839 172.997C235.316 172.745 235.691 172.407 235.962 171.983C236.234 171.559 236.37 171.078 236.37 170.541V168.92C236.237 169.007 236.055 169.086 235.823 169.159C235.598 169.225 235.343 169.288 235.058 169.348C234.772 169.401 234.487 169.451 234.202 169.497C233.917 169.537 233.659 169.573 233.427 169.607C232.93 169.679 232.496 169.795 232.124 169.955C231.753 170.114 231.465 170.329 231.259 170.601C231.054 170.866 230.951 171.197 230.951 171.595C230.951 172.172 231.16 172.613 231.577 172.918C232.002 173.216 232.539 173.365 233.188 173.365ZM251.986 160.727V163.909H242.788V160.727H251.986ZM244.876 157.068H249.112V171.307C249.112 171.698 249.172 172.003 249.291 172.222C249.411 172.434 249.576 172.583 249.788 172.669C250.007 172.755 250.259 172.798 250.544 172.798C250.743 172.798 250.942 172.782 251.141 172.749C251.339 172.709 251.492 172.679 251.598 172.659L252.264 175.811C252.052 175.877 251.754 175.954 251.369 176.04C250.985 176.133 250.518 176.189 249.967 176.209C248.946 176.249 248.052 176.113 247.283 175.801C246.52 175.49 245.927 175.006 245.503 174.349C245.079 173.693 244.87 172.865 244.876 171.864V157.068ZM254.745 176V160.727H258.981V176H254.745ZM256.873 158.759C256.243 158.759 255.703 158.55 255.252 158.132C254.808 157.708 254.586 157.201 254.586 156.611C254.586 156.027 254.808 155.527 255.252 155.109C255.703 154.685 256.243 154.473 256.873 154.473C257.503 154.473 258.04 154.685 258.484 155.109C258.934 155.527 259.16 156.027 259.16 156.611C259.16 157.201 258.934 157.708 258.484 158.132C258.04 158.55 257.503 158.759 256.873 158.759ZM269.275 176.298C267.73 176.298 266.394 175.97 265.267 175.314C264.147 174.651 263.282 173.73 262.672 172.55C262.062 171.363 261.757 169.988 261.757 168.423C261.757 166.846 262.062 165.467 262.672 164.287C263.282 163.1 264.147 162.179 265.267 161.523C266.394 160.86 267.73 160.528 269.275 160.528C270.819 160.528 272.151 160.86 273.272 161.523C274.399 162.179 275.267 163.1 275.877 164.287C276.487 165.467 276.792 166.846 276.792 168.423C276.792 169.988 276.487 171.363 275.877 172.55C275.267 173.73 274.399 174.651 273.272 175.314C272.151 175.97 270.819 176.298 269.275 176.298ZM269.294 173.017C269.997 173.017 270.584 172.818 271.054 172.42C271.525 172.016 271.88 171.466 272.118 170.77C272.364 170.074 272.486 169.282 272.486 168.393C272.486 167.505 272.364 166.713 272.118 166.017C271.88 165.321 271.525 164.771 271.054 164.366C270.584 163.962 269.997 163.76 269.294 163.76C268.585 163.76 267.989 163.962 267.505 164.366C267.027 164.771 266.666 165.321 266.421 166.017C266.182 166.713 266.063 167.505 266.063 168.393C266.063 169.282 266.182 170.074 266.421 170.77C266.666 171.466 267.027 172.016 267.505 172.42C267.989 172.818 268.585 173.017 269.294 173.017ZM283.782 167.17V176H279.546V160.727H283.583V163.422H283.762C284.1 162.534 284.667 161.831 285.462 161.314C286.257 160.79 287.222 160.528 288.355 160.528C289.416 160.528 290.341 160.76 291.13 161.224C291.918 161.688 292.532 162.351 292.969 163.213C293.407 164.068 293.625 165.089 293.625 166.276V176H289.39V167.031C289.396 166.097 289.158 165.367 288.674 164.844C288.19 164.313 287.524 164.048 286.675 164.048C286.105 164.048 285.601 164.171 285.164 164.416C284.733 164.661 284.395 165.019 284.15 165.49C283.911 165.954 283.788 166.514 283.782 167.17Z" fill="url(#paint1_linear_116_2)"/>
<defs>
<linearGradient id="paint0_linear_116_2" x1="186" y1="3" x2="186" y2="103" gradientUnits="userSpaceOnUse">
<stop stop-color="#9656FF"/>
<stop offset="1" stop-color="white"/>
</linearGradient>
<linearGradient id="paint1_linear_116_2" x1="186.5" y1="115" x2="186.5" y2="183" gradientUnits="userSpaceOnUse">
<stop stop-color="#9656FF"/>
<stop offset="1" stop-color="white"/>
</linearGradient>
</defs>
</svg>
