<svg width="652" height="116" viewBox="0 0 652 116" fill="none" xmlns="http://www.w3.org/2000/svg">
<path d="M203 99.6667V16.3333L186.333 8.00001M203 99.6667L186.333 108L119.667 74.6667M203 99.6667L136.333 66.3333M186.333 8.00001V74.6667L153 58L169.667 49.6667L103 83L36.3333 49.6667L53 58L19.6667 74.6667V8M186.333 8.00001L103 49.6667L19.6667 8M19.6667 8L3.00001 16.3333L3 99.6667M169.667 66.3333V33L103 66.3333L36.3333 33V66.3333M3 99.6667L19.6667 108L86.3333 74.6667M3 99.6667L69.6667 66.3333" stroke="url(#paint0_linear_118_11)" stroke-width="5" stroke-linejoin="round"/>
<path d="M282.034 11.0909H291.136L300.75 34.5455H301.159L310.773 11.0909H319.875V46H312.716V23.2784H312.426L303.392 45.8295H298.517L289.483 23.1932H289.193V46H282.034V11.0909ZM333.286 46.4943C331.615 46.4943 330.126 46.2045 328.82 45.625C327.513 45.0341 326.479 44.1648 325.717 43.017C324.967 41.858 324.592 40.4148 324.592 38.6875C324.592 37.233 324.859 36.0114 325.393 35.0227C325.928 34.0341 326.655 33.2386 327.575 32.6364C328.496 32.0341 329.541 31.5795 330.712 31.2727C331.893 30.9659 333.132 30.75 334.428 30.625C335.95 30.4659 337.178 30.3182 338.109 30.1818C339.041 30.0341 339.717 29.8182 340.138 29.5341C340.558 29.25 340.768 28.8295 340.768 28.2727V28.1705C340.768 27.0909 340.428 26.2557 339.746 25.6648C339.075 25.0739 338.121 24.7784 336.882 24.7784C335.575 24.7784 334.536 25.0682 333.763 25.6477C332.99 26.2159 332.479 26.9318 332.229 27.7955L325.513 27.25C325.854 25.6591 326.524 24.2841 327.524 23.125C328.524 21.9545 329.814 21.0568 331.393 20.4318C332.984 19.7955 334.825 19.4773 336.916 19.4773C338.371 19.4773 339.763 19.6477 341.092 19.9886C342.433 20.3295 343.621 20.858 344.655 21.5739C345.7 22.2898 346.524 23.2102 347.126 24.3352C347.729 25.4489 348.03 26.7841 348.03 28.3409V46H341.143V42.3693H340.939C340.518 43.1875 339.956 43.9091 339.251 44.5341C338.547 45.1477 337.7 45.6307 336.712 45.983C335.723 46.3239 334.581 46.4943 333.286 46.4943ZM335.365 41.483C336.433 41.483 337.376 41.2727 338.195 40.8523C339.013 40.4205 339.655 39.8409 340.121 39.1136C340.587 38.3864 340.82 37.5625 340.82 36.642V33.8636C340.592 34.0114 340.28 34.1477 339.882 34.2727C339.496 34.3864 339.058 34.4943 338.57 34.5966C338.081 34.6875 337.592 34.7727 337.104 34.8523C336.615 34.9205 336.172 34.983 335.774 35.0398C334.922 35.1648 334.178 35.3636 333.541 35.6364C332.905 35.9091 332.411 36.2784 332.058 36.7443C331.706 37.1989 331.53 37.767 331.53 38.4489C331.53 39.4375 331.888 40.1932 332.604 40.7159C333.331 41.2273 334.251 41.483 335.365 41.483ZM359.732 19.8182L364.538 28.9716L369.464 19.8182H376.913L369.328 32.9091L377.118 46H369.703L364.538 36.9489L359.459 46H351.959L359.732 32.9091L352.232 19.8182H359.732ZM381.226 46V19.8182H388.487V46H381.226ZM384.874 16.4432C383.794 16.4432 382.868 16.0852 382.095 15.3693C381.334 14.642 380.953 13.7727 380.953 12.7614C380.953 11.7614 381.334 10.9034 382.095 10.1875C382.868 9.4602 383.794 9.09656 384.874 9.09656C385.953 9.09656 386.874 9.4602 387.635 10.1875C388.408 10.9034 388.794 11.7614 388.794 12.7614C388.794 13.7727 388.408 14.642 387.635 15.3693C386.874 16.0852 385.953 16.4432 384.874 16.4432ZM394.304 46V19.8182H401.224V24.4375H401.531C402.077 22.9034 402.986 21.6932 404.259 20.8068C405.531 19.9205 407.054 19.4773 408.827 19.4773C410.622 19.4773 412.151 19.9261 413.412 20.8239C414.673 21.7102 415.514 22.9148 415.935 24.4375H416.207C416.741 22.9375 417.707 21.7386 419.105 20.8409C420.514 19.9318 422.179 19.4773 424.099 19.4773C426.543 19.4773 428.526 20.2557 430.048 21.8125C431.582 23.358 432.349 25.5511 432.349 28.392V46H425.105V29.8239C425.105 28.3693 424.719 27.2784 423.946 26.5511C423.173 25.8239 422.207 25.4602 421.048 25.4602C419.73 25.4602 418.702 25.8807 417.963 26.7216C417.224 27.5511 416.855 28.6477 416.855 30.0114V46H409.815V29.6705C409.815 28.3864 409.446 27.3636 408.707 26.6023C407.98 25.8409 407.02 25.4602 405.827 25.4602C405.02 25.4602 404.293 25.6648 403.645 26.0739C403.009 26.4716 402.503 27.0341 402.128 27.7614C401.753 28.4773 401.565 29.3182 401.565 30.2841V46H394.304ZM445.551 46.4943C443.881 46.4943 442.392 46.2045 441.085 45.625C439.778 45.0341 438.744 44.1648 437.983 43.017C437.233 41.858 436.858 40.4148 436.858 38.6875C436.858 37.233 437.125 36.0114 437.659 35.0227C438.193 34.0341 438.92 33.2386 439.841 32.6364C440.761 32.0341 441.807 31.5795 442.977 31.2727C444.159 30.9659 445.398 30.75 446.693 30.625C448.216 30.4659 449.443 30.3182 450.375 30.1818C451.307 30.0341 451.983 29.8182 452.403 29.5341C452.824 29.25 453.034 28.8295 453.034 28.2727V28.1705C453.034 27.0909 452.693 26.2557 452.011 25.6648C451.341 25.0739 450.386 24.7784 449.148 24.7784C447.841 24.7784 446.801 25.0682 446.028 25.6477C445.256 26.2159 444.744 26.9318 444.494 27.7955L437.778 27.25C438.119 25.6591 438.79 24.2841 439.79 23.125C440.79 21.9545 442.08 21.0568 443.659 20.4318C445.25 19.7955 447.091 19.4773 449.182 19.4773C450.636 19.4773 452.028 19.6477 453.358 19.9886C454.699 20.3295 455.886 20.858 456.92 21.5739C457.966 22.2898 458.79 23.2102 459.392 24.3352C459.994 25.4489 460.295 26.7841 460.295 28.3409V46H453.409V42.3693H453.205C452.784 43.1875 452.222 43.9091 451.517 44.5341C450.812 45.1477 449.966 45.6307 448.977 45.983C447.989 46.3239 446.847 46.4943 445.551 46.4943ZM447.631 41.483C448.699 41.483 449.642 41.2727 450.46 40.8523C451.278 40.4205 451.92 39.8409 452.386 39.1136C452.852 38.3864 453.085 37.5625 453.085 36.642V33.8636C452.858 34.0114 452.545 34.1477 452.148 34.2727C451.761 34.3864 451.324 34.4943 450.835 34.5966C450.347 34.6875 449.858 34.7727 449.369 34.8523C448.881 34.9205 448.438 34.983 448.04 35.0398C447.188 35.1648 446.443 35.3636 445.807 35.6364C445.17 35.9091 444.676 36.2784 444.324 36.7443C443.972 37.1989 443.795 37.767 443.795 38.4489C443.795 39.4375 444.153 40.1932 444.869 40.7159C445.597 41.2273 446.517 41.483 447.631 41.483ZM312.835 81.3125H305.369C305.233 80.3466 304.955 79.4886 304.534 78.7386C304.114 77.9773 303.574 77.3295 302.915 76.7955C302.256 76.2614 301.494 75.8523 300.631 75.5682C299.778 75.2841 298.852 75.142 297.852 75.142C296.045 75.142 294.472 75.5909 293.131 76.4886C291.79 77.375 290.75 78.6705 290.011 80.375C289.273 82.0682 288.903 84.125 288.903 86.5455C288.903 89.0341 289.273 91.125 290.011 92.8182C290.761 94.5114 291.807 95.7898 293.148 96.6534C294.489 97.517 296.04 97.9489 297.801 97.9489C298.79 97.9489 299.705 97.8182 300.545 97.5568C301.398 97.2955 302.153 96.9148 302.812 96.4148C303.472 95.9034 304.017 95.2841 304.449 94.5568C304.892 93.8295 305.199 93 305.369 92.0682L312.835 92.1023C312.642 93.7045 312.159 95.25 311.386 96.7386C310.625 98.2159 309.597 99.5398 308.301 100.71C307.017 101.869 305.483 102.79 303.699 103.472C301.926 104.142 299.92 104.477 297.682 104.477C294.568 104.477 291.784 103.773 289.33 102.364C286.886 100.955 284.955 98.9148 283.534 96.2443C282.125 93.5739 281.42 90.3409 281.42 86.5455C281.42 82.7386 282.136 79.5 283.568 76.8295C285 74.1591 286.943 72.125 289.398 70.7273C291.852 69.3182 294.614 68.6136 297.682 68.6136C299.705 68.6136 301.58 68.8977 303.307 69.4659C305.045 70.0341 306.585 70.8636 307.926 71.9545C309.267 73.0341 310.358 74.358 311.199 75.9261C312.051 77.4943 312.597 79.2898 312.835 81.3125ZM329.821 104.511C327.173 104.511 324.884 103.949 322.952 102.824C321.031 101.687 319.548 100.108 318.503 98.0852C317.457 96.0511 316.935 93.6932 316.935 91.0114C316.935 88.3068 317.457 85.9432 318.503 83.9205C319.548 81.8864 321.031 80.3068 322.952 79.1818C324.884 78.0455 327.173 77.4773 329.821 77.4773C332.469 77.4773 334.753 78.0455 336.673 79.1818C338.605 80.3068 340.094 81.8864 341.139 83.9205C342.185 85.9432 342.707 88.3068 342.707 91.0114C342.707 93.6932 342.185 96.0511 341.139 98.0852C340.094 100.108 338.605 101.687 336.673 102.824C334.753 103.949 332.469 104.511 329.821 104.511ZM329.855 98.8864C331.06 98.8864 332.065 98.5455 332.872 97.8636C333.679 97.1705 334.287 96.2273 334.696 95.0341C335.116 93.8409 335.327 92.483 335.327 90.9602C335.327 89.4375 335.116 88.0795 334.696 86.8864C334.287 85.6932 333.679 84.75 332.872 84.0568C332.065 83.3636 331.06 83.017 329.855 83.017C328.639 83.017 327.616 83.3636 326.787 84.0568C325.969 84.75 325.349 85.6932 324.929 86.8864C324.52 88.0795 324.315 89.4375 324.315 90.9602C324.315 92.483 324.52 93.8409 324.929 95.0341C325.349 96.2273 325.969 97.1705 326.787 97.8636C327.616 98.5455 328.639 98.8864 329.855 98.8864ZM347.429 104V77.8182H354.349V82.4375H354.656C355.202 80.9034 356.111 79.6932 357.384 78.8068C358.656 77.9205 360.179 77.4773 361.952 77.4773C363.747 77.4773 365.276 77.9261 366.537 78.8239C367.798 79.7102 368.639 80.9148 369.06 82.4375H369.332C369.866 80.9375 370.832 79.7386 372.23 78.8409C373.639 77.9318 375.304 77.4773 377.224 77.4773C379.668 77.4773 381.651 78.2557 383.173 79.8125C384.707 81.358 385.474 83.5511 385.474 86.392V104H378.23V87.8239C378.23 86.3693 377.844 85.2784 377.071 84.5511C376.298 83.8239 375.332 83.4602 374.173 83.4602C372.855 83.4602 371.827 83.8807 371.088 84.7216C370.349 85.5511 369.98 86.6477 369.98 88.0114V104H362.94V87.6705C362.94 86.3864 362.571 85.3636 361.832 84.6023C361.105 83.8409 360.145 83.4602 358.952 83.4602C358.145 83.4602 357.418 83.6648 356.77 84.0739C356.134 84.4716 355.628 85.0341 355.253 85.7614C354.878 86.4773 354.69 87.3182 354.69 88.2841V104H347.429ZM391.21 104V77.8182H398.131V82.4375H398.438C398.983 80.9034 399.892 79.6932 401.165 78.8068C402.438 77.9205 403.96 77.4773 405.733 77.4773C407.528 77.4773 409.057 77.9261 410.318 78.8239C411.58 79.7102 412.42 80.9148 412.841 82.4375H413.114C413.648 80.9375 414.614 79.7386 416.011 78.8409C417.42 77.9318 419.085 77.4773 421.006 77.4773C423.449 77.4773 425.432 78.2557 426.955 79.8125C428.489 81.358 429.256 83.5511 429.256 86.392V104H422.011V87.8239C422.011 86.3693 421.625 85.2784 420.852 84.5511C420.08 83.8239 419.114 83.4602 417.955 83.4602C416.636 83.4602 415.608 83.8807 414.869 84.7216C414.131 85.5511 413.761 86.6477 413.761 88.0114V104H406.722V87.6705C406.722 86.3864 406.352 85.3636 405.614 84.6023C404.886 83.8409 403.926 83.4602 402.733 83.4602C401.926 83.4602 401.199 83.6648 400.551 84.0739C399.915 84.4716 399.409 85.0341 399.034 85.7614C398.659 86.4773 398.472 87.3182 398.472 88.2841V104H391.21ZM451.781 92.8523V77.8182H459.043V104H452.071V99.2443H451.798C451.207 100.778 450.224 102.011 448.849 102.943C447.486 103.875 445.821 104.341 443.855 104.341C442.105 104.341 440.565 103.943 439.236 103.148C437.906 102.352 436.866 101.222 436.116 99.7557C435.378 98.2898 435.003 96.5341 434.991 94.4886V77.8182H442.253V93.1932C442.264 94.7386 442.679 95.9602 443.497 96.858C444.315 97.7557 445.412 98.2045 446.787 98.2045C447.662 98.2045 448.48 98.0057 449.241 97.608C450.003 97.1989 450.616 96.5966 451.082 95.8011C451.56 95.0057 451.793 94.0227 451.781 92.8523ZM472.112 88.8636V104H464.851V77.8182H471.771V82.4375H472.078C472.658 80.9148 473.629 79.7102 474.993 78.8239C476.357 77.9261 478.01 77.4773 479.953 77.4773C481.771 77.4773 483.357 77.875 484.709 78.6705C486.061 79.4659 487.112 80.6023 487.862 82.0795C488.612 83.5455 488.987 85.2955 488.987 87.3295V104H481.726V88.625C481.737 87.0227 481.328 85.7727 480.499 84.875C479.669 83.9659 478.527 83.5114 477.072 83.5114C476.095 83.5114 475.232 83.7216 474.482 84.142C473.743 84.5625 473.163 85.1761 472.743 85.983C472.334 86.7784 472.124 87.7386 472.112 88.8636ZM494.71 104V77.8182H501.972V104H494.71ZM498.358 74.4432C497.278 74.4432 496.352 74.0852 495.58 73.3693C494.818 72.642 494.438 71.7727 494.438 70.7614C494.438 69.7614 494.818 68.9034 495.58 68.1875C496.352 67.4602 497.278 67.0966 498.358 67.0966C499.438 67.0966 500.358 67.4602 501.119 68.1875C501.892 68.9034 502.278 69.7614 502.278 70.7614C502.278 71.7727 501.892 72.642 501.119 73.3693C500.358 74.0852 499.438 74.4432 498.358 74.4432ZM519.618 104.511C516.936 104.511 514.629 103.943 512.697 102.807C510.777 101.659 509.3 100.068 508.266 98.0341C507.243 96 506.732 93.6591 506.732 91.0114C506.732 88.3295 507.249 85.9773 508.283 83.9545C509.328 81.9205 510.811 80.3352 512.732 79.1989C514.652 78.0511 516.936 77.4773 519.584 77.4773C521.868 77.4773 523.868 77.892 525.584 78.7216C527.3 79.5511 528.658 80.7159 529.658 82.2159C530.658 83.7159 531.209 85.4773 531.311 87.5H524.459C524.266 86.1932 523.754 85.142 522.925 84.3466C522.107 83.5398 521.033 83.1364 519.703 83.1364C518.578 83.1364 517.595 83.4432 516.754 84.0568C515.925 84.6591 515.277 85.5398 514.811 86.6989C514.345 87.858 514.112 89.2614 514.112 90.9091C514.112 92.5795 514.339 94 514.794 95.1705C515.26 96.3409 515.913 97.233 516.754 97.8466C517.595 98.4602 518.578 98.767 519.703 98.767C520.533 98.767 521.277 98.5966 521.936 98.2557C522.607 97.9148 523.158 97.4205 523.589 96.7727C524.033 96.1136 524.322 95.3239 524.459 94.4034H531.311C531.197 96.4034 530.652 98.1648 529.675 99.6875C528.709 101.199 527.374 102.381 525.669 103.233C523.964 104.085 521.947 104.511 519.618 104.511ZM543.426 104.494C541.756 104.494 540.267 104.205 538.96 103.625C537.653 103.034 536.619 102.165 535.858 101.017C535.108 99.858 534.733 98.4148 534.733 96.6875C534.733 95.233 535 94.0114 535.534 93.0227C536.068 92.0341 536.795 91.2386 537.716 90.6364C538.636 90.0341 539.682 89.5795 540.852 89.2727C542.034 88.9659 543.273 88.75 544.568 88.625C546.091 88.4659 547.318 88.3182 548.25 88.1818C549.182 88.0341 549.858 87.8182 550.278 87.5341C550.699 87.25 550.909 86.8295 550.909 86.2727V86.1705C550.909 85.0909 550.568 84.2557 549.886 83.6648C549.216 83.0739 548.261 82.7784 547.023 82.7784C545.716 82.7784 544.676 83.0682 543.903 83.6477C543.131 84.2159 542.619 84.9318 542.369 85.7955L535.653 85.25C535.994 83.6591 536.665 82.2841 537.665 81.125C538.665 79.9545 539.955 79.0568 541.534 78.4318C543.125 77.7955 544.966 77.4773 547.057 77.4773C548.511 77.4773 549.903 77.6477 551.233 77.9886C552.574 78.3295 553.761 78.858 554.795 79.5739C555.841 80.2898 556.665 81.2102 557.267 82.3352C557.869 83.4489 558.17 84.7841 558.17 86.3409V104H551.284V100.369H551.08C550.659 101.188 550.097 101.909 549.392 102.534C548.688 103.148 547.841 103.631 546.852 103.983C545.864 104.324 544.722 104.494 543.426 104.494ZM545.506 99.483C546.574 99.483 547.517 99.2727 548.335 98.8523C549.153 98.4205 549.795 97.8409 550.261 97.1136C550.727 96.3864 550.96 95.5625 550.96 94.642V91.8636C550.733 92.0114 550.42 92.1477 550.023 92.2727C549.636 92.3864 549.199 92.4943 548.71 92.5966C548.222 92.6875 547.733 92.7727 547.244 92.8523C546.756 92.9205 546.312 92.983 545.915 93.0398C545.063 93.1648 544.318 93.3636 543.682 93.6364C543.045 93.9091 542.551 94.2784 542.199 94.7443C541.847 95.1989 541.67 95.767 541.67 96.4489C541.67 97.4375 542.028 98.1932 542.744 98.7159C543.472 99.2273 544.392 99.483 545.506 99.483ZM577.73 77.8182V83.2727H561.963V77.8182H577.73ZM565.543 71.5455H572.804V95.9545C572.804 96.625 572.906 97.1477 573.111 97.5227C573.315 97.8864 573.599 98.142 573.963 98.2898C574.338 98.4375 574.77 98.5114 575.259 98.5114C575.599 98.5114 575.94 98.483 576.281 98.4261C576.622 98.358 576.884 98.3068 577.065 98.2727L578.207 103.676C577.844 103.79 577.332 103.92 576.673 104.068C576.014 104.227 575.213 104.324 574.27 104.358C572.52 104.426 570.986 104.193 569.668 103.659C568.361 103.125 567.344 102.295 566.616 101.17C565.889 100.045 565.531 98.625 565.543 96.9091V71.5455ZM582.46 104V77.8182H589.722V104H582.46ZM586.108 74.4432C585.028 74.4432 584.102 74.0852 583.33 73.3693C582.568 72.642 582.188 71.7727 582.188 70.7614C582.188 69.7614 582.568 68.9034 583.33 68.1875C584.102 67.4602 585.028 67.0966 586.108 67.0966C587.188 67.0966 588.108 67.4602 588.869 68.1875C589.642 68.9034 590.028 69.7614 590.028 70.7614C590.028 71.7727 589.642 72.642 588.869 73.3693C588.108 74.0852 587.188 74.4432 586.108 74.4432ZM607.368 104.511C604.72 104.511 602.43 103.949 600.499 102.824C598.578 101.687 597.095 100.108 596.05 98.0852C595.004 96.0511 594.482 93.6932 594.482 91.0114C594.482 88.3068 595.004 85.9432 596.05 83.9205C597.095 81.8864 598.578 80.3068 600.499 79.1818C602.43 78.0455 604.72 77.4773 607.368 77.4773C610.016 77.4773 612.3 78.0455 614.22 79.1818C616.152 80.3068 617.641 81.8864 618.686 83.9205C619.732 85.9432 620.254 88.3068 620.254 91.0114C620.254 93.6932 619.732 96.0511 618.686 98.0852C617.641 100.108 616.152 101.687 614.22 102.824C612.3 103.949 610.016 104.511 607.368 104.511ZM607.402 98.8864C608.607 98.8864 609.612 98.5455 610.419 97.8636C611.226 97.1705 611.834 96.2273 612.243 95.0341C612.663 93.8409 612.874 92.483 612.874 90.9602C612.874 89.4375 612.663 88.0795 612.243 86.8864C611.834 85.6932 611.226 84.75 610.419 84.0568C609.612 83.3636 608.607 83.017 607.402 83.017C606.186 83.017 605.163 83.3636 604.334 84.0568C603.516 84.75 602.896 85.6932 602.476 86.8864C602.067 88.0795 601.862 89.4375 601.862 90.9602C601.862 92.483 602.067 93.8409 602.476 95.0341C602.896 96.2273 603.516 97.1705 604.334 97.8636C605.163 98.5455 606.186 98.8864 607.402 98.8864ZM632.237 88.8636V104H624.976V77.8182H631.896V82.4375H632.203C632.783 80.9148 633.754 79.7102 635.118 78.8239C636.482 77.9261 638.135 77.4773 640.078 77.4773C641.896 77.4773 643.482 77.875 644.834 78.6705C646.186 79.4659 647.237 80.6023 647.987 82.0795C648.737 83.5455 649.112 85.2955 649.112 87.3295V104H641.851V88.625C641.862 87.0227 641.453 85.7727 640.624 84.875C639.794 83.9659 638.652 83.5114 637.197 83.5114C636.22 83.5114 635.357 83.7216 634.607 84.142C633.868 84.5625 633.288 85.1761 632.868 85.983C632.459 86.7784 632.249 87.7386 632.237 88.8636Z" fill="url(#paint1_linear_118_11)"/>
<defs>
<linearGradient id="paint0_linear_118_11" x1="103" y1="8.00001" x2="103" y2="108" gradientUnits="userSpaceOnUse">
<stop stop-color="#0074a1"/>
<stop offset="1" stop-color="#B8CEFF"/>
</linearGradient>
<linearGradient id="paint1_linear_118_11" x1="465.5" y1="-3.28624e-05" x2="465.5" y2="116" gradientUnits="userSpaceOnUse">
<stop stop-color="#0074a1"/>
<stop offset="1" stop-color="#B8CEFF"/>
</linearGradient>
</defs>
</svg>
