<svg width="565" height="152" viewBox="0 0 565 152" fill="none" xmlns="http://www.w3.org/2000/svg">
<path d="M91.3411 26L77.8372 62.5H73.1628L58.6202 26H48.7519L42 52.5H50.3101L53.4264 46.5H57.062L65.8915 62.5H69.5271V68H61.7364V77.5H69.5271V83.5H65.8915L55.5039 105H51.8682L50.3101 97.5H42L48.7519 122H58.6202L73.1628 87.5H77.8372L91.3411 122H101.209L106.403 97.5H98.093L96.0155 105H92.8992L85.6279 83.5H81.4729V77.5H89.2636V68H81.4729V62.5H85.6279L92.8992 46.5H96.0155L98.093 52.5H109L101.209 26H91.3411Z" fill="url(#paint0_linear_50_3)" fill-opacity="0.8" stroke="black"/>
<path d="M17.5 16H1V22.5H17.5V16Z" fill="#FC1227" fill-opacity="0.8"/>
<path d="M59.5 16H26.5V40H16V33.5H23V22.5L12.5 29.5H6V40H12.5L13.5 48H17.5V59.5H23L23.5 85H21V93.5L16 97.5L6 113.5L16 123L1 123.5V131H12.5L13.5 125.5H26.5L32.5 129.5H46V121H26.5L36.5 111.5H46L44.5 106.5L36.5 107.5L34.5 105H23.5L21 99.5L23.5 93.5H29L32.5 99.5L36.5 103V93.5H32.5V88.5H36.5L34.5 82H43.5V78.5L40 72.5L43.5 66V61H32.5V55H26.5V51H23.5V42.5L43.5 40V33.5H32.5V22.5H59.5V16Z" fill="#FC1227" fill-opacity="0.8"/>
<path d="M17.5 16H1V22.5H17.5V16Z" stroke="black"/>
<path d="M59.5 16H26.5V40H16V33.5H23V22.5L12.5 29.5H6V40H12.5L13.5 48H17.5V59.5H23L23.5 85H21V93.5L16 97.5L6 113.5L16 123L1 123.5V131H12.5L13.5 125.5H26.5L32.5 129.5H46V121H26.5L36.5 111.5H46L44.5 106.5L36.5 107.5L34.5 105H23.5L21 99.5L23.5 93.5H29L32.5 99.5L36.5 103V93.5H32.5V88.5H36.5L34.5 82H43.5V78.5L40 72.5L43.5 66V61H32.5V55H26.5V51H23.5V42.5L43.5 40V33.5H32.5V22.5H59.5V16Z" stroke="black"/>
<path d="M132 16H148.5V22.5H132V16Z" fill="#FFA081" fill-opacity="0.8"/>
<path d="M90 16H123V40H133.5V33.5H126.5V22.5L137 29.5H143.5V40H137L136 48H132V59.5H126.5L126 85H128.5V93.5L133.5 97.5L143.5 113.5L133.5 123L148.5 123.5V131H137L136 125.5H123L117 129.5H103.5V121H123L113 111.5H103.5L105 106.5L113 107.5L115 105H126L128.5 99.5L126 93.5H120.5L117 99.5L113 103V93.5H117V88.5H113L115 82H106V78.5L109.5 72.5L106 66V61H117V55H123V51H126V42.5L106 40V33.5H117V22.5H90V16Z" fill="#FFA081" fill-opacity="0.8"/>
<path d="M132 16H148.5V22.5H132V16Z" stroke="black"/>
<path d="M90 16H123V40H133.5V33.5H126.5V22.5L137 29.5H143.5V40H137L136 48H132V59.5H126.5L126 85H128.5V93.5L133.5 97.5L143.5 113.5L133.5 123L148.5 123.5V131H137L136 125.5H123L117 129.5H103.5V121H123L113 111.5H103.5L105 106.5L113 107.5L115 105H126L128.5 99.5L126 93.5H120.5L117 99.5L113 103V93.5H117V88.5H113L115 82H106V78.5L109.5 72.5L106 66V61H117V55H123V51H126V42.5L106 40V33.5H117V22.5H90V16Z" stroke="black"/>
<path d="M41.5 97.5L39 89.5H42.75V84H58.5V89.5L52.5 94V89.5H46.5V97.5H41.5Z" fill="#FC1227" fill-opacity="0.8"/>
<path d="M46.5 89.5V97.5H41.5L39 89.5H42.75M46.5 89.5H42.75M46.5 89.5H52.5V94L58.5 89.5V84H42.75V89.5" stroke="black"/>
<path d="M106.5 97.5L109 89.5H105.25V84H89.5V89.5L95.5 94V89.5H101.5V97.5H106.5Z" fill="#FFA081" fill-opacity="0.8"/>
<path d="M101.5 89.5V97.5H106.5L109 89.5H105.25M101.5 89.5H105.25M101.5 89.5H95.5V94L89.5 89.5V84H105.25V89.5" stroke="black"/>
<path d="M59 55.5H47V69.5H53.5L62.5 64L59 55.5Z" fill="#FC1227" fill-opacity="0.8" stroke="black"/>
<path d="M91.3871 55H103V69H96.7097L88 63.5L91.3871 55Z" fill="#FFA081" fill-opacity="0.8" stroke="black"/>
<path d="M178 68C177.267 68 176.65 67.8667 176.15 67.6C175.683 67.3 175.45 66.8833 175.45 66.35C175.45 65.95 175.6 65.6167 175.9 65.35C176.2 65.0833 176.55 64.8833 176.95 64.75C178.017 64.5167 178.733 64.1 179.1 63.5C179.5 62.8667 179.783 61.7833 179.95 60.25L182.4 39.45C182.433 39.2167 182.45 38.9 182.45 38.5C182.45 37.7 182.267 37.1167 181.9 36.75C181.533 36.3833 180.9 36.0667 180 35.8C179.667 35.6667 179.4 35.4667 179.2 35.2C179 34.9333 178.9 34.6333 178.9 34.3C178.9 33.7333 179.083 33.3667 179.45 33.2C179.85 33 180.383 32.9 181.05 32.9L183.8 32.95C184.367 32.9833 185.117 33 186.05 33C186.983 33 187.65 33.1 188.05 33.3C188.483 33.4667 188.783 33.75 188.95 34.15C189.083 34.4833 189.2 34.9833 189.3 35.65C189.533 36.55 189.75 37.2 189.95 37.6L197.45 55.7C197.65 56.1 197.867 56.3 198.1 56.3C198.367 56.3 198.55 56.1 198.65 55.7L205.75 37.55C206.017 36.95 206.167 36.4 206.2 35.9C206.233 35.6 206.25 35.3167 206.25 35.05C206.283 34.75 206.333 34.4667 206.4 34.2C206.467 33.8 206.683 33.5 207.05 33.3C207.417 33.1 208.033 33 208.9 33C209.9 33 210.65 33 211.15 33C211.65 32.9667 212.033 32.95 212.3 32.95C212.667 32.9167 213.35 32.9 214.35 32.9C216.117 32.9 217 33.4333 217 34.5C217 34.8333 216.867 35.15 216.6 35.45C216.333 35.75 216.017 35.9667 215.65 36.1C214.783 36.3 214.2 36.5667 213.9 36.9C213.6 37.2 213.45 37.7333 213.45 38.5C213.45 38.9333 213.467 39.3 213.5 39.6L215.4 60.7C215.533 62.0667 215.783 63.0333 216.15 63.6C216.55 64.1333 217.283 64.5167 218.35 64.75C218.75 64.85 219.117 65.0333 219.45 65.3C219.783 65.5333 219.95 65.8667 219.95 66.3C219.95 66.9 219.733 67.3333 219.3 67.6C218.867 67.8667 218.417 68 217.95 68H206.5C204.7 68 203.8 67.45 203.8 66.35C203.8 65.9833 203.933 65.6667 204.2 65.4C204.5 65.1 204.833 64.9 205.2 64.8C206.3 64.5333 207.017 64.1833 207.35 63.75C207.683 63.3167 207.817 62.5167 207.75 61.35L206.7 46.3C206.667 46.1333 206.6 46 206.5 45.9C206.433 45.7667 206.35 45.7 206.25 45.7C206.083 45.7 205.883 45.95 205.65 46.45L197.1 66.7C196.733 67.5333 196.333 67.95 195.9 67.95C195.433 67.95 195.017 67.5667 194.65 66.8L185.75 46.45C185.55 45.95 185.35 45.7 185.15 45.7C184.85 45.7 184.683 45.9 184.65 46.3L183.35 61.55L183.3 62.2C183.3 63.1 183.533 63.7167 184 64.05C184.467 64.3833 185.233 64.6333 186.3 64.8C186.733 64.9 187.067 65.1 187.3 65.4C187.533 65.6667 187.65 66 187.65 66.4C187.65 66.8667 187.433 67.25 187 67.55C186.6 67.85 185.983 68 185.15 68H178ZM230.712 68.6C227.912 68.6 225.862 67.95 224.562 66.65C223.262 65.3167 222.612 63.6167 222.612 61.55C222.612 59.25 223.612 57.3833 225.612 55.95C227.612 54.5167 230.279 53.7167 233.612 53.55C234.812 53.4833 235.695 53.3833 236.262 53.25C236.829 53.1167 237.195 52.9333 237.362 52.7C237.562 52.4333 237.629 52.05 237.562 51.55L237.462 50.5C237.262 49.1667 236.879 48.1667 236.312 47.5C235.745 46.8 234.895 46.45 233.762 46.45C232.695 46.45 231.795 46.75 231.062 47.35C230.362 47.95 229.945 48.8333 229.812 50C229.479 51.7333 228.362 52.6 226.462 52.6C225.862 52.6 225.329 52.4 224.862 52C224.395 51.5667 224.162 50.9667 224.162 50.2C224.162 48.8667 224.662 47.6667 225.662 46.6C226.695 45.5333 228.062 44.7 229.762 44.1C231.495 43.4667 233.395 43.15 235.462 43.15C238.595 43.15 240.862 43.85 242.262 45.25C243.662 46.65 244.529 48.7667 244.862 51.6L246.012 60.6C246.145 61.7 246.345 62.45 246.612 62.85C246.879 63.2167 247.229 63.4 247.662 63.4C248.062 63.4 248.429 63.2667 248.762 63C249.095 62.7 249.345 62.55 249.512 62.55C250.145 62.55 250.462 62.95 250.462 63.75C250.462 64.45 250.229 65.1667 249.762 65.9C249.295 66.6 248.645 67.2 247.812 67.7C247.012 68.1667 246.112 68.4 245.112 68.4C243.745 68.4 242.679 68.1 241.912 67.5C241.145 66.8667 240.562 65.95 240.162 64.75C240.062 64.4167 239.912 64.25 239.712 64.25C239.612 64.25 239.279 64.65 238.712 65.45C238.145 66.2167 237.212 66.9333 235.912 67.6C234.645 68.2667 232.912 68.6 230.712 68.6ZM234.062 64.5C235.329 64.5 236.395 64.0167 237.262 63.05C238.129 62.0833 238.562 60.8333 238.562 59.3C238.562 58.8333 238.545 58.4833 238.512 58.25L238.412 57.65C238.312 56.95 238.062 56.5167 237.662 56.35C237.262 56.15 236.429 56.05 235.162 56.05C233.395 56.05 232.095 56.4333 231.262 57.2C230.462 57.9667 230.062 59 230.062 60.3C230.062 61.6667 230.395 62.7167 231.062 63.45C231.762 64.15 232.762 64.5 234.062 64.5ZM253.918 68.15C252.985 68.15 252.268 68.05 251.768 67.85C251.302 67.6167 251.068 67.2333 251.068 66.7C251.068 66.3667 251.168 66.1167 251.368 65.95C251.602 65.75 251.968 65.5333 252.468 65.3C253.068 65.1333 253.602 64.8333 254.068 64.4C254.568 63.9667 255.152 63.3 255.818 62.4L260.068 56.6C260.368 56.1667 260.518 55.7667 260.518 55.4C260.518 55 260.402 54.6667 260.168 54.4L256.218 48.8C255.685 48.0667 255.268 47.6 254.968 47.4C254.668 47.1667 254.152 46.9667 253.418 46.8C252.952 46.6667 252.618 46.4833 252.418 46.25C252.218 45.9833 252.118 45.6333 252.118 45.2C252.118 44.6 252.352 44.1833 252.818 43.95C253.285 43.7167 253.985 43.6 254.918 43.6H257.868H263.918C265.752 43.6 266.668 44.0667 266.668 45C266.668 45.5 266.352 45.9333 265.718 46.3C265.052 46.4667 264.718 46.7667 264.718 47.2C264.718 47.5 264.985 48.0667 265.518 48.9L267.218 51.3C267.385 51.5333 267.552 51.65 267.718 51.65C267.885 51.65 268.035 51.55 268.168 51.35L270.368 48.2C270.702 47.7333 270.868 47.35 270.868 47.05C270.868 46.6833 270.485 46.4 269.718 46.2C269.152 45.9 268.868 45.5167 268.868 45.05C268.868 44.45 269.085 44.05 269.518 43.85C269.952 43.65 270.652 43.55 271.618 43.55L273.968 43.6L276.268 43.55C277.968 43.55 278.818 44.05 278.818 45.05C278.818 45.65 278.352 46.1167 277.418 46.45C276.418 46.6833 275.502 47.35 274.668 48.45L270.568 54C270.335 54.2667 270.218 54.5833 270.218 54.95C270.218 55.3167 270.335 55.7 270.568 56.1L275.218 62.7C275.818 63.5 276.302 64.0333 276.668 64.3C277.035 64.5667 277.552 64.7833 278.218 64.95C278.618 65.1167 278.902 65.3167 279.068 65.55C279.268 65.7833 279.368 66.1167 279.368 66.55C279.368 67.15 279.068 67.5667 278.468 67.8C277.902 68.0333 276.852 68.15 275.318 68.15H268.468C267.235 68.15 266.318 68.0333 265.718 67.8C265.152 67.5667 264.868 67.2167 264.868 66.75C264.868 66.3833 264.935 66.1167 265.068 65.95C265.235 65.7833 265.452 65.6333 265.718 65.5C266.485 65.2667 266.868 64.9333 266.868 64.5C266.868 64.1667 266.635 63.6667 266.168 63L263.568 59.3C263.368 59.0667 263.185 58.95 263.018 58.95C262.818 58.95 262.568 59.15 262.268 59.55L259.518 63.4C259.152 63.9 258.968 64.3333 258.968 64.7C258.968 64.9 259.052 65.0667 259.218 65.2C259.418 65.3333 259.702 65.45 260.068 65.55C260.702 65.85 261.018 66.25 261.018 66.75C261.018 67.6833 260.135 68.15 258.368 68.15H253.918ZM286.254 68.3C284.254 68.3 282.904 68.1667 282.204 67.9C281.504 67.6333 281.154 67.2 281.154 66.6C281.154 65.9667 281.487 65.5167 282.154 65.25C282.92 64.9833 283.47 64.65 283.804 64.25C284.17 63.8167 284.387 63.3333 284.454 62.8C284.554 62.2333 284.604 61.4 284.604 60.3V50.65C284.604 49.85 284.52 49.25 284.354 48.85C284.187 48.45 283.82 48.2333 283.254 48.2C282.487 48.1667 281.904 48.0833 281.504 47.95C281.104 47.8167 280.904 47.5333 280.904 47.1C280.904 46.6333 281.07 46.2833 281.404 46.05C281.737 45.7833 282.254 45.5167 282.954 45.25C286.354 44.05 288.687 43.45 289.954 43.45C290.687 43.45 291.204 43.5833 291.504 43.85C291.804 44.0833 291.954 44.5167 291.954 45.15V60.25C291.954 61.35 291.987 62.1833 292.054 62.75C292.154 63.2833 292.37 63.75 292.704 64.15C293.037 64.55 293.587 64.9 294.354 65.2C294.687 65.3667 294.937 65.5667 295.104 65.8C295.304 66 295.404 66.2667 295.404 66.6C295.404 67.2 295.07 67.6333 294.404 67.9C293.77 68.1667 292.454 68.3 290.454 68.3H286.254ZM287.804 40.4C286.37 40.4 285.204 40.0833 284.304 39.45C283.404 38.8167 282.954 37.9833 282.954 36.95C282.954 35.95 283.404 35.15 284.304 34.55C285.204 33.9167 286.37 33.6 287.804 33.6C289.204 33.6 290.32 33.9167 291.154 34.55C292.02 35.15 292.454 35.95 292.454 36.95C292.454 37.9833 292.02 38.8167 291.154 39.45C290.32 40.0833 289.204 40.4 287.804 40.4ZM302.219 68.2C300.219 68.2 298.869 68.0833 298.169 67.85C297.502 67.5833 297.169 67.1667 297.169 66.6C297.169 66.2667 297.252 66 297.419 65.8C297.586 65.6 297.852 65.4167 298.219 65.25C298.986 64.95 299.536 64.6 299.869 64.2C300.202 63.7667 300.402 63.2833 300.469 62.75C300.569 62.1833 300.619 61.3333 300.619 60.2V50.75C300.619 49.9167 300.536 49.3167 300.369 48.95C300.202 48.55 299.836 48.3167 299.269 48.25C298.502 48.2167 297.919 48.1333 297.519 48C297.119 47.8667 296.919 47.5833 296.919 47.15C296.919 46.6833 297.069 46.3333 297.369 46.1C297.669 45.8333 298.152 45.5667 298.819 45.3C300.586 44.7 302.019 44.25 303.119 43.95C304.252 43.6167 305.202 43.45 305.969 43.45C306.669 43.45 307.169 43.5833 307.469 43.85C307.802 44.1167 307.969 44.5667 307.969 45.2V47C307.969 47.4333 307.986 47.75 308.019 47.95C308.052 48.15 308.119 48.25 308.219 48.25C308.252 48.25 308.519 47.8167 309.019 46.95C309.519 46.05 310.386 45.2 311.619 44.4C312.886 43.5667 314.452 43.15 316.319 43.15C317.819 43.15 319.119 43.5333 320.219 44.3C321.352 45.0667 322.236 46.1667 322.869 47.6C323.002 47.8667 323.102 48.05 323.169 48.15C323.236 48.2167 323.319 48.25 323.419 48.25C323.519 48.25 323.819 47.7833 324.319 46.85C324.819 45.9167 325.619 45.0667 326.719 44.3C327.852 43.5333 329.336 43.15 331.169 43.15C333.269 43.15 335.019 43.85 336.419 45.25C337.819 46.6167 338.702 48.85 339.069 51.95L339.969 59.95C340.102 61.35 340.236 62.3333 340.369 62.9C340.502 63.4333 340.702 63.8333 340.969 64.1C341.269 64.3667 341.769 64.65 342.469 64.95C342.836 65.1833 343.102 65.4167 343.269 65.65C343.469 65.8833 343.569 66.1833 343.569 66.55C343.569 67.05 343.319 67.45 342.819 67.75C342.352 68.0167 341.452 68.15 340.119 68.15L337.119 68.1L334.119 68.15C332.452 68.15 331.302 68.0333 330.669 67.8C330.069 67.5667 329.769 67.15 329.769 66.55C329.769 65.8833 330.119 65.3833 330.819 65.05C331.619 64.7833 332.152 64.4833 332.419 64.15C332.686 63.8167 332.819 63.2 332.819 62.3C332.819 62.0333 332.752 61.1667 332.619 59.7L331.919 53.25C331.586 49.9167 330.336 48.25 328.169 48.25C327.469 48.25 326.769 48.5 326.069 49C325.402 49.4667 324.852 50.2167 324.419 51.25C323.986 52.25 323.769 53.4833 323.769 54.95V60.15C323.769 61.2833 323.802 62.15 323.869 62.75C323.936 63.35 324.119 63.8833 324.419 64.35C324.752 64.8167 325.269 65.2167 325.969 65.55C326.336 65.7833 326.519 66.15 326.519 66.65C326.519 67.1833 326.319 67.5833 325.919 67.85C325.552 68.0833 324.936 68.2 324.069 68.2L320.119 68.15L316.319 68.2C315.352 68.2 314.669 68.0667 314.269 67.8C313.902 67.5333 313.719 67.1333 313.719 66.6C313.719 65.9333 313.986 65.4667 314.519 65.2C315.352 64.8333 315.869 64.2833 316.069 63.55C316.302 62.8167 316.419 61.7 316.419 60.2V53.85C316.419 50.1167 315.136 48.25 312.569 48.25C311.902 48.25 311.202 48.4833 310.469 48.95C309.769 49.4167 309.169 50.1833 308.669 51.25C308.202 52.2833 307.969 53.6167 307.969 55.25V60.2C307.969 61.8 308.069 62.95 308.269 63.65C308.502 64.3167 309.052 64.8167 309.919 65.15C310.186 65.2833 310.386 65.5 310.519 65.8C310.686 66.0667 310.769 66.35 310.769 66.65C310.769 67.1833 310.486 67.5833 309.919 67.85C309.386 68.0833 308.219 68.2 306.419 68.2L304.269 68.15L302.219 68.2ZM352.978 68.6C350.178 68.6 348.128 67.95 346.828 66.65C345.528 65.3167 344.878 63.6167 344.878 61.55C344.878 59.25 345.878 57.3833 347.878 55.95C349.878 54.5167 352.544 53.7167 355.878 53.55C357.078 53.4833 357.961 53.3833 358.528 53.25C359.094 53.1167 359.461 52.9333 359.628 52.7C359.828 52.4333 359.894 52.05 359.828 51.55L359.728 50.5C359.528 49.1667 359.144 48.1667 358.578 47.5C358.011 46.8 357.161 46.45 356.028 46.45C354.961 46.45 354.061 46.75 353.328 47.35C352.628 47.95 352.211 48.8333 352.078 50C351.744 51.7333 350.628 52.6 348.728 52.6C348.128 52.6 347.594 52.4 347.128 52C346.661 51.5667 346.428 50.9667 346.428 50.2C346.428 48.8667 346.928 47.6667 347.928 46.6C348.961 45.5333 350.328 44.7 352.028 44.1C353.761 43.4667 355.661 43.15 357.728 43.15C360.861 43.15 363.128 43.85 364.528 45.25C365.928 46.65 366.794 48.7667 367.128 51.6L368.278 60.6C368.411 61.7 368.611 62.45 368.878 62.85C369.144 63.2167 369.494 63.4 369.928 63.4C370.328 63.4 370.694 63.2667 371.028 63C371.361 62.7 371.611 62.55 371.778 62.55C372.411 62.55 372.728 62.95 372.728 63.75C372.728 64.45 372.494 65.1667 372.028 65.9C371.561 66.6 370.911 67.2 370.078 67.7C369.278 68.1667 368.378 68.4 367.378 68.4C366.011 68.4 364.944 68.1 364.178 67.5C363.411 66.8667 362.828 65.95 362.428 64.75C362.328 64.4167 362.178 64.25 361.978 64.25C361.878 64.25 361.544 64.65 360.978 65.45C360.411 66.2167 359.478 66.9333 358.178 67.6C356.911 68.2667 355.178 68.6 352.978 68.6ZM356.328 64.5C357.594 64.5 358.661 64.0167 359.528 63.05C360.394 62.0833 360.828 60.8333 360.828 59.3C360.828 58.8333 360.811 58.4833 360.778 58.25L360.678 57.65C360.578 56.95 360.328 56.5167 359.928 56.35C359.528 56.15 358.694 56.05 357.428 56.05C355.661 56.05 354.361 56.4333 353.528 57.2C352.728 57.9667 352.328 59 352.328 60.3C352.328 61.6667 352.661 62.7167 353.328 63.45C354.028 64.15 355.028 64.5 356.328 64.5Z" fill="url(#paint1_linear_50_3)" fill-opacity="0.8"/>
<path d="M191.95 121.6C188.817 121.6 185.967 120.817 183.4 119.25C180.867 117.683 178.867 115.5 177.4 112.7C175.967 109.867 175.25 106.65 175.25 103.05C175.25 99.7167 175.95 96.7167 177.35 94.05C178.783 91.35 180.75 89.2333 183.25 87.7C185.75 86.1667 188.533 85.4 191.6 85.4C193.233 85.4 194.833 85.6333 196.4 86.1C198 86.5667 199.45 87.2167 200.75 88.05C201.417 88.4833 202 88.9333 202.5 89.4C203.133 90 203.733 90.7167 204.3 91.55C205.1 92.7833 205.5 94.0833 205.5 95.45C205.5 96.5167 205.167 97.4333 204.5 98.2C203.867 98.9667 202.9 99.35 201.6 99.35C200.633 99.35 199.783 99.0667 199.05 98.5C198.317 97.9 197.6 96.7333 196.9 95C196.533 93.3 195.833 91.9167 194.8 90.85C193.767 89.7833 192.4 89.25 190.7 89.25C188.633 89.25 186.95 90.15 185.65 91.95C184.35 93.7167 183.7 96.0833 183.7 99.05C183.7 103.617 184.617 107.4 186.45 110.4C188.283 113.4 191.017 114.9 194.65 114.9C196.983 114.9 198.9 114.383 200.4 113.35C201.9 112.283 202.883 110.933 203.35 109.3C203.583 108.833 204 108.6 204.6 108.6C205 108.6 205.35 108.75 205.65 109.05C205.983 109.317 206.133 109.7 206.1 110.2C206 111.933 205.383 113.683 204.25 115.45C203.15 117.217 201.55 118.683 199.45 119.85C197.35 121.017 194.85 121.6 191.95 121.6ZM222.153 121.6C219.486 121.6 217.103 121.05 215.003 119.95C212.936 118.85 211.32 117.333 210.153 115.4C209.02 113.467 208.453 111.283 208.453 108.85C208.453 106.417 209.02 104.233 210.153 102.3C211.32 100.367 212.936 98.8667 215.003 97.8C217.103 96.7 219.486 96.15 222.153 96.15C224.82 96.15 227.186 96.7 229.253 97.8C231.353 98.8667 232.97 100.367 234.103 102.3C235.27 104.233 235.853 106.417 235.853 108.85C235.853 111.317 235.27 113.517 234.103 115.45C232.97 117.383 231.353 118.9 229.253 120C227.186 121.067 224.82 121.6 222.153 121.6ZM222.803 118.35C224.403 118.35 225.67 117.75 226.603 116.55C227.57 115.35 228.053 113.717 228.053 111.65C228.053 109.917 227.786 108.1 227.253 106.2C226.72 104.3 225.936 102.717 224.903 101.45C223.903 100.15 222.736 99.5 221.403 99.5C219.87 99.5 218.62 100.1 217.653 101.3C216.686 102.467 216.203 104.067 216.203 106.1C216.203 107.9 216.47 109.75 217.003 111.65C217.536 113.55 218.303 115.15 219.303 116.45C220.303 117.717 221.47 118.35 222.803 118.35ZM242.649 121.2C240.649 121.2 239.299 121.083 238.599 120.85C237.932 120.583 237.599 120.167 237.599 119.6C237.599 119.267 237.682 119 237.849 118.8C238.015 118.6 238.282 118.417 238.649 118.25C239.415 117.95 239.965 117.6 240.299 117.2C240.632 116.767 240.832 116.283 240.899 115.75C240.999 115.183 241.049 114.333 241.049 113.2V103.75C241.049 102.917 240.965 102.317 240.799 101.95C240.632 101.55 240.265 101.317 239.699 101.25C238.932 101.217 238.349 101.133 237.949 101C237.549 100.867 237.349 100.583 237.349 100.15C237.349 99.6833 237.499 99.3333 237.799 99.1C238.099 98.8333 238.582 98.5667 239.249 98.3C241.015 97.7 242.449 97.25 243.549 96.95C244.682 96.6167 245.632 96.45 246.399 96.45C247.099 96.45 247.599 96.5833 247.899 96.85C248.232 97.1167 248.399 97.5667 248.399 98.2V100C248.399 100.433 248.415 100.75 248.449 100.95C248.482 101.15 248.549 101.25 248.649 101.25C248.682 101.25 248.949 100.817 249.449 99.95C249.949 99.05 250.815 98.2 252.049 97.4C253.315 96.5667 254.882 96.15 256.749 96.15C258.249 96.15 259.549 96.5333 260.649 97.3C261.782 98.0667 262.665 99.1667 263.299 100.6C263.432 100.867 263.532 101.05 263.599 101.15C263.665 101.217 263.749 101.25 263.849 101.25C263.949 101.25 264.249 100.783 264.749 99.85C265.249 98.9167 266.049 98.0667 267.149 97.3C268.282 96.5333 269.765 96.15 271.599 96.15C273.699 96.15 275.449 96.85 276.849 98.25C278.249 99.6167 279.132 101.85 279.499 104.95L280.399 112.95C280.532 114.35 280.665 115.333 280.799 115.9C280.932 116.433 281.132 116.833 281.399 117.1C281.699 117.367 282.199 117.65 282.899 117.95C283.265 118.183 283.532 118.417 283.699 118.65C283.899 118.883 283.999 119.183 283.999 119.55C283.999 120.05 283.749 120.45 283.249 120.75C282.782 121.017 281.882 121.15 280.549 121.15L277.549 121.1L274.549 121.15C272.882 121.15 271.732 121.033 271.099 120.8C270.499 120.567 270.199 120.15 270.199 119.55C270.199 118.883 270.549 118.383 271.249 118.05C272.049 117.783 272.582 117.483 272.849 117.15C273.115 116.817 273.249 116.2 273.249 115.3C273.249 115.033 273.182 114.167 273.049 112.7L272.349 106.25C272.015 102.917 270.765 101.25 268.599 101.25C267.899 101.25 267.199 101.5 266.499 102C265.832 102.467 265.282 103.217 264.849 104.25C264.415 105.25 264.199 106.483 264.199 107.95V113.15C264.199 114.283 264.232 115.15 264.299 115.75C264.365 116.35 264.549 116.883 264.849 117.35C265.182 117.817 265.699 118.217 266.399 118.55C266.765 118.783 266.949 119.15 266.949 119.65C266.949 120.183 266.749 120.583 266.349 120.85C265.982 121.083 265.365 121.2 264.499 121.2L260.549 121.15L256.749 121.2C255.782 121.2 255.099 121.067 254.699 120.8C254.332 120.533 254.149 120.133 254.149 119.6C254.149 118.933 254.415 118.467 254.949 118.2C255.782 117.833 256.299 117.283 256.499 116.55C256.732 115.817 256.849 114.7 256.849 113.2V106.85C256.849 103.117 255.565 101.25 252.999 101.25C252.332 101.25 251.632 101.483 250.899 101.95C250.199 102.417 249.599 103.183 249.099 104.25C248.632 105.283 248.399 106.617 248.399 108.25V113.2C248.399 114.8 248.499 115.95 248.699 116.65C248.932 117.317 249.482 117.817 250.349 118.15C250.615 118.283 250.815 118.5 250.949 118.8C251.115 119.067 251.199 119.35 251.199 119.65C251.199 120.183 250.915 120.583 250.349 120.85C249.815 121.083 248.649 121.2 246.849 121.2L244.699 121.15L242.649 121.2ZM290.403 121.2C288.403 121.2 287.053 121.083 286.353 120.85C285.686 120.583 285.353 120.167 285.353 119.6C285.353 119.267 285.436 119 285.603 118.8C285.769 118.6 286.036 118.417 286.403 118.25C287.169 117.95 287.719 117.6 288.053 117.2C288.386 116.767 288.586 116.283 288.653 115.75C288.753 115.183 288.803 114.333 288.803 113.2V103.75C288.803 102.917 288.719 102.317 288.553 101.95C288.386 101.55 288.019 101.317 287.453 101.25C286.686 101.217 286.103 101.133 285.703 101C285.303 100.867 285.103 100.583 285.103 100.15C285.103 99.6833 285.253 99.3333 285.553 99.1C285.853 98.8333 286.336 98.5667 287.003 98.3C288.769 97.7 290.203 97.25 291.303 96.95C292.436 96.6167 293.386 96.45 294.153 96.45C294.853 96.45 295.353 96.5833 295.653 96.85C295.986 97.1167 296.153 97.5667 296.153 98.2V100C296.153 100.433 296.169 100.75 296.203 100.95C296.236 101.15 296.303 101.25 296.403 101.25C296.436 101.25 296.703 100.817 297.203 99.95C297.703 99.05 298.569 98.2 299.803 97.4C301.069 96.5667 302.636 96.15 304.503 96.15C306.003 96.15 307.303 96.5333 308.403 97.3C309.536 98.0667 310.419 99.1667 311.053 100.6C311.186 100.867 311.286 101.05 311.353 101.15C311.419 101.217 311.503 101.25 311.603 101.25C311.703 101.25 312.003 100.783 312.503 99.85C313.003 98.9167 313.803 98.0667 314.903 97.3C316.036 96.5333 317.519 96.15 319.353 96.15C321.453 96.15 323.203 96.85 324.603 98.25C326.003 99.6167 326.886 101.85 327.253 104.95L328.153 112.95C328.286 114.35 328.419 115.333 328.553 115.9C328.686 116.433 328.886 116.833 329.153 117.1C329.453 117.367 329.953 117.65 330.653 117.95C331.019 118.183 331.286 118.417 331.453 118.65C331.653 118.883 331.753 119.183 331.753 119.55C331.753 120.05 331.503 120.45 331.003 120.75C330.536 121.017 329.636 121.15 328.303 121.15L325.303 121.1L322.303 121.15C320.636 121.15 319.486 121.033 318.853 120.8C318.253 120.567 317.953 120.15 317.953 119.55C317.953 118.883 318.303 118.383 319.003 118.05C319.803 117.783 320.336 117.483 320.603 117.15C320.869 116.817 321.003 116.2 321.003 115.3C321.003 115.033 320.936 114.167 320.803 112.7L320.103 106.25C319.769 102.917 318.519 101.25 316.353 101.25C315.653 101.25 314.953 101.5 314.253 102C313.586 102.467 313.036 103.217 312.603 104.25C312.169 105.25 311.953 106.483 311.953 107.95V113.15C311.953 114.283 311.986 115.15 312.053 115.75C312.119 116.35 312.303 116.883 312.603 117.35C312.936 117.817 313.453 118.217 314.153 118.55C314.519 118.783 314.703 119.15 314.703 119.65C314.703 120.183 314.503 120.583 314.103 120.85C313.736 121.083 313.119 121.2 312.253 121.2L308.303 121.15L304.503 121.2C303.536 121.2 302.853 121.067 302.453 120.8C302.086 120.533 301.903 120.133 301.903 119.6C301.903 118.933 302.169 118.467 302.703 118.2C303.536 117.833 304.053 117.283 304.253 116.55C304.486 115.817 304.603 114.7 304.603 113.2V106.85C304.603 103.117 303.319 101.25 300.753 101.25C300.086 101.25 299.386 101.483 298.653 101.95C297.953 102.417 297.353 103.183 296.853 104.25C296.386 105.283 296.153 106.617 296.153 108.25V113.2C296.153 114.8 296.253 115.95 296.453 116.65C296.686 117.317 297.236 117.817 298.103 118.15C298.369 118.283 298.569 118.5 298.703 118.8C298.869 119.067 298.953 119.35 298.953 119.65C298.953 120.183 298.669 120.583 298.103 120.85C297.569 121.083 296.403 121.2 294.603 121.2L292.453 121.15L290.403 121.2ZM343.084 121.55C340.65 121.55 338.667 120.8 337.134 119.3C335.6 117.767 334.834 115.367 334.834 112.1V103.65C334.834 102.883 334.75 102.3 334.584 101.9C334.417 101.5 334.067 101.267 333.534 101.2C332.7 101.133 332.1 101.033 331.734 100.9C331.367 100.767 331.184 100.483 331.184 100.05C331.184 99.6167 331.35 99.2833 331.684 99.05C332.017 98.8167 332.534 98.55 333.234 98.25C334.934 97.6833 336.334 97.25 337.434 96.95C338.534 96.6167 339.45 96.45 340.184 96.45C340.917 96.45 341.434 96.5833 341.734 96.85C342.034 97.0833 342.184 97.5333 342.184 98.2V110.95C342.184 112.95 342.534 114.383 343.234 115.25C343.967 116.083 345.034 116.5 346.434 116.5C347.3 116.5 348.117 116.233 348.884 115.7C349.65 115.167 350.284 114.367 350.784 113.3C351.284 112.2 351.534 110.867 351.534 109.3V103.65C351.534 102.883 351.45 102.3 351.284 101.9C351.117 101.5 350.767 101.267 350.234 101.2C349.4 101.133 348.8 101.05 348.434 100.95C348.067 100.817 347.867 100.533 347.834 100.1C347.834 99.6333 348 99.2833 348.334 99.05C348.667 98.7833 349.184 98.5167 349.884 98.25C351.684 97.65 353.117 97.2 354.184 96.9C355.25 96.6 356.15 96.45 356.884 96.45C357.617 96.45 358.134 96.5833 358.434 96.85C358.734 97.0833 358.884 97.5333 358.884 98.2V114.05C358.884 114.817 358.967 115.417 359.134 115.85C359.3 116.25 359.65 116.467 360.184 116.5C361.05 116.6 361.65 116.717 361.984 116.85C362.35 116.95 362.55 117.217 362.584 117.65C362.584 118.117 362.417 118.483 362.084 118.75C361.75 118.983 361.234 119.217 360.534 119.45C358.934 120.017 357.55 120.467 356.384 120.8C355.25 121.133 354.3 121.3 353.534 121.3C352.8 121.3 352.284 121.183 351.984 120.95C351.684 120.683 351.534 120.217 351.534 119.55V117.35C351.534 116.75 351.45 116.45 351.284 116.45C351.217 116.45 350.917 116.917 350.384 117.85C349.85 118.75 348.984 119.6 347.784 120.4C346.584 121.167 345.017 121.55 343.084 121.55ZM369.115 121.15C367.115 121.15 365.765 121.017 365.065 120.75C364.365 120.483 364.015 120.05 364.015 119.45C364.015 118.85 364.348 118.383 365.015 118.05C365.782 117.783 366.332 117.45 366.665 117.05C367.032 116.65 367.248 116.167 367.315 115.6C367.415 115.033 367.465 114.217 367.465 113.15V103.65C367.465 102.883 367.382 102.317 367.215 101.95C367.048 101.55 366.682 101.3 366.115 101.2C365.348 101.133 364.765 101.033 364.365 100.9C363.965 100.767 363.765 100.5 363.765 100.1C363.765 99.6333 363.932 99.2833 364.265 99.05C364.598 98.7833 365.115 98.5167 365.815 98.25C369.215 97.05 371.548 96.45 372.815 96.45C373.548 96.45 374.065 96.5833 374.365 96.85C374.665 97.0833 374.815 97.5167 374.815 98.15V100.65C374.815 101.05 374.882 101.25 375.015 101.25C375.082 101.25 375.382 100.8 375.915 99.9C376.448 98.9667 377.315 98.1167 378.515 97.35C379.715 96.55 381.282 96.15 383.215 96.15C388.048 96.15 390.815 99.2333 391.515 105.4L392.315 112.9C392.482 114.333 392.615 115.317 392.715 115.85C392.848 116.383 393.048 116.8 393.315 117.1C393.615 117.367 394.132 117.65 394.865 117.95C395.598 118.317 395.965 118.85 395.965 119.55C395.965 120.05 395.715 120.45 395.215 120.75C394.748 121.017 393.832 121.15 392.465 121.15L389.465 121.1L386.465 121.15C384.832 121.15 383.698 121.033 383.065 120.8C382.432 120.567 382.115 120.15 382.115 119.55C382.115 118.817 382.465 118.317 383.165 118.05C383.965 117.783 384.498 117.483 384.765 117.15C385.065 116.783 385.215 116.167 385.215 115.3C385.215 114.5 385.148 113.617 385.015 112.65L384.315 106.65C384.115 104.783 383.665 103.417 382.965 102.55C382.265 101.683 381.232 101.25 379.865 101.25C379.065 101.25 378.282 101.517 377.515 102.05C376.748 102.55 376.098 103.333 375.565 104.4C375.065 105.467 374.815 106.783 374.815 108.35V113.1C374.815 114.2 374.848 115.033 374.915 115.6C375.015 116.133 375.232 116.6 375.565 117C375.898 117.4 376.448 117.75 377.215 118.05C377.548 118.217 377.798 118.417 377.965 118.65C378.165 118.85 378.265 119.117 378.265 119.45C378.265 120.05 377.932 120.483 377.265 120.75C376.632 121.017 375.315 121.15 373.315 121.15L371.215 121.1L369.115 121.15ZM402.416 121.3C400.416 121.3 399.066 121.167 398.366 120.9C397.666 120.633 397.316 120.2 397.316 119.6C397.316 118.967 397.649 118.517 398.316 118.25C399.082 117.983 399.632 117.65 399.966 117.25C400.332 116.817 400.549 116.333 400.616 115.8C400.716 115.233 400.766 114.4 400.766 113.3V103.65C400.766 102.85 400.682 102.25 400.516 101.85C400.349 101.45 399.982 101.233 399.416 101.2C398.649 101.167 398.066 101.083 397.666 100.95C397.266 100.817 397.066 100.533 397.066 100.1C397.066 99.6333 397.232 99.2833 397.566 99.05C397.899 98.7833 398.416 98.5167 399.116 98.25C402.516 97.05 404.849 96.45 406.116 96.45C406.849 96.45 407.366 96.5833 407.666 96.85C407.966 97.0833 408.116 97.5167 408.116 98.15V113.25C408.116 114.35 408.149 115.183 408.216 115.75C408.316 116.283 408.532 116.75 408.866 117.15C409.199 117.55 409.749 117.9 410.516 118.2C410.849 118.367 411.099 118.567 411.266 118.8C411.466 119 411.566 119.267 411.566 119.6C411.566 120.2 411.232 120.633 410.566 120.9C409.932 121.167 408.616 121.3 406.616 121.3H402.416ZM403.966 93.4C402.532 93.4 401.366 93.0833 400.466 92.45C399.566 91.8167 399.116 90.9833 399.116 89.95C399.116 88.95 399.566 88.15 400.466 87.55C401.366 86.9167 402.532 86.6 403.966 86.6C405.366 86.6 406.482 86.9167 407.316 87.55C408.182 88.15 408.616 88.95 408.616 89.95C408.616 90.9833 408.182 91.8167 407.316 92.45C406.482 93.0833 405.366 93.4 403.966 93.4ZM425.252 121.6C422.752 121.6 420.536 121.05 418.602 119.95C416.702 118.85 415.236 117.35 414.202 115.45C413.169 113.517 412.652 111.35 412.652 108.95C412.652 106.517 413.202 104.333 414.302 102.4C415.436 100.467 416.936 98.9667 418.802 97.9C420.702 96.8 422.736 96.25 424.902 96.25C426.636 96.25 428.286 96.5833 429.852 97.25C431.452 97.8833 432.736 98.7667 433.702 99.9C434.702 101 435.202 102.25 435.202 103.65C435.202 104.417 435.002 105.067 434.602 105.6C434.202 106.1 433.619 106.35 432.852 106.35C431.952 106.35 431.219 106.117 430.652 105.65C430.119 105.183 429.686 104.467 429.352 103.5C428.986 102.2 428.452 101.2 427.752 100.5C427.086 99.8 426.119 99.45 424.852 99.45C423.552 99.45 422.436 100.067 421.502 101.3C420.602 102.5 420.152 104.15 420.152 106.25C420.152 109.35 420.786 111.867 422.052 113.8C423.319 115.733 425.169 116.7 427.602 116.7C428.936 116.7 430.152 116.417 431.252 115.85C432.386 115.283 433.269 114.583 433.902 113.75C434.269 113.383 434.586 113.2 434.852 113.2C435.219 113.2 435.486 113.317 435.652 113.55C435.852 113.75 435.952 114.017 435.952 114.35C435.952 114.583 435.936 114.75 435.902 114.85C435.302 116.75 434.086 118.35 432.252 119.65C430.452 120.95 428.119 121.6 425.252 121.6ZM446.484 121.6C443.684 121.6 441.634 120.95 440.334 119.65C439.034 118.317 438.384 116.617 438.384 114.55C438.384 112.25 439.384 110.383 441.384 108.95C443.384 107.517 446.05 106.717 449.384 106.55C450.584 106.483 451.467 106.383 452.034 106.25C452.6 106.117 452.967 105.933 453.134 105.7C453.334 105.433 453.4 105.05 453.334 104.55L453.234 103.5C453.034 102.167 452.65 101.167 452.084 100.5C451.517 99.8 450.667 99.45 449.534 99.45C448.467 99.45 447.567 99.75 446.834 100.35C446.134 100.95 445.717 101.833 445.584 103C445.25 104.733 444.134 105.6 442.234 105.6C441.634 105.6 441.1 105.4 440.634 105C440.167 104.567 439.934 103.967 439.934 103.2C439.934 101.867 440.434 100.667 441.434 99.6C442.467 98.5333 443.834 97.7 445.534 97.1C447.267 96.4667 449.167 96.15 451.234 96.15C454.367 96.15 456.634 96.85 458.034 98.25C459.434 99.65 460.3 101.767 460.634 104.6L461.784 113.6C461.917 114.7 462.117 115.45 462.384 115.85C462.65 116.217 463 116.4 463.434 116.4C463.834 116.4 464.2 116.267 464.534 116C464.867 115.7 465.117 115.55 465.284 115.55C465.917 115.55 466.234 115.95 466.234 116.75C466.234 117.45 466 118.167 465.534 118.9C465.067 119.6 464.417 120.2 463.584 120.7C462.784 121.167 461.884 121.4 460.884 121.4C459.517 121.4 458.45 121.1 457.684 120.5C456.917 119.867 456.334 118.95 455.934 117.75C455.834 117.417 455.684 117.25 455.484 117.25C455.384 117.25 455.05 117.65 454.484 118.45C453.917 119.217 452.984 119.933 451.684 120.6C450.417 121.267 448.684 121.6 446.484 121.6ZM449.834 117.5C451.1 117.5 452.167 117.017 453.034 116.05C453.9 115.083 454.334 113.833 454.334 112.3C454.334 111.833 454.317 111.483 454.284 111.25L454.184 110.65C454.084 109.95 453.834 109.517 453.434 109.35C453.034 109.15 452.2 109.05 450.934 109.05C449.167 109.05 447.867 109.433 447.034 110.2C446.234 110.967 445.834 112 445.834 113.3C445.834 114.667 446.167 115.717 446.834 116.45C447.534 117.15 448.534 117.5 449.834 117.5ZM477.652 121.55C472.318 121.55 469.652 118.783 469.652 113.25V101.15C469.652 100.383 469.285 100 468.552 100H467.752C467.318 100 466.985 99.8667 466.752 99.6C466.552 99.3 466.452 98.95 466.452 98.55C466.452 97.95 466.768 97.2167 467.402 96.35L468.152 95.3C469.318 93.6 470.502 92.25 471.702 91.25C473.168 90.1833 474.518 89.65 475.752 89.65C476.218 89.65 476.535 89.8 476.702 90.1C476.902 90.3667 477.002 90.8333 477.002 91.5V94.5C477.002 95.1 477.018 95.5833 477.052 95.95C477.085 96.2833 477.152 96.5 477.252 96.6C477.385 96.7 477.602 96.75 477.902 96.75H483.952C484.418 96.75 484.735 96.8167 484.902 96.95C485.068 97.0833 485.152 97.4167 485.152 97.95C485.152 98.6167 484.985 99.1333 484.652 99.5C484.318 99.8333 483.852 100 483.252 100H478.252C477.385 100 476.952 100.4 476.952 101.2V112.15C476.952 113.583 477.252 114.683 477.852 115.45C478.485 116.183 479.352 116.55 480.452 116.55C481.085 116.55 481.768 116.383 482.502 116.05C483.268 115.717 483.935 115.2 484.502 114.5C484.802 114.167 485.118 114 485.452 114C485.752 114 486.002 114.133 486.202 114.4C486.402 114.633 486.468 114.933 486.402 115.3C485.868 117.367 484.852 118.933 483.352 120C481.885 121.033 479.985 121.55 477.652 121.55ZM493.089 121.3C491.089 121.3 489.739 121.167 489.039 120.9C488.339 120.633 487.989 120.2 487.989 119.6C487.989 118.967 488.323 118.517 488.989 118.25C489.756 117.983 490.306 117.65 490.639 117.25C491.006 116.817 491.223 116.333 491.289 115.8C491.389 115.233 491.439 114.4 491.439 113.3V103.65C491.439 102.85 491.356 102.25 491.189 101.85C491.023 101.45 490.656 101.233 490.089 101.2C489.323 101.167 488.739 101.083 488.339 100.95C487.939 100.817 487.739 100.533 487.739 100.1C487.739 99.6333 487.906 99.2833 488.239 99.05C488.573 98.7833 489.089 98.5167 489.789 98.25C493.189 97.05 495.523 96.45 496.789 96.45C497.523 96.45 498.039 96.5833 498.339 96.85C498.639 97.0833 498.789 97.5167 498.789 98.15V113.25C498.789 114.35 498.823 115.183 498.889 115.75C498.989 116.283 499.206 116.75 499.539 117.15C499.873 117.55 500.423 117.9 501.189 118.2C501.523 118.367 501.773 118.567 501.939 118.8C502.139 119 502.239 119.267 502.239 119.6C502.239 120.2 501.906 120.633 501.239 120.9C500.606 121.167 499.289 121.3 497.289 121.3H493.089ZM494.639 93.4C493.206 93.4 492.039 93.0833 491.139 92.45C490.239 91.8167 489.789 90.9833 489.789 89.95C489.789 88.95 490.239 88.15 491.139 87.55C492.039 86.9167 493.206 86.6 494.639 86.6C496.039 86.6 497.156 86.9167 497.989 87.55C498.856 88.15 499.289 88.95 499.289 89.95C499.289 90.9833 498.856 91.8167 497.989 92.45C497.156 93.0833 496.039 93.4 494.639 93.4ZM517.026 121.6C514.36 121.6 511.976 121.05 509.876 119.95C507.81 118.85 506.193 117.333 505.026 115.4C503.893 113.467 503.326 111.283 503.326 108.85C503.326 106.417 503.893 104.233 505.026 102.3C506.193 100.367 507.81 98.8667 509.876 97.8C511.976 96.7 514.36 96.15 517.026 96.15C519.693 96.15 522.06 96.7 524.126 97.8C526.226 98.8667 527.843 100.367 528.976 102.3C530.143 104.233 530.726 106.417 530.726 108.85C530.726 111.317 530.143 113.517 528.976 115.45C527.843 117.383 526.226 118.9 524.126 120C522.06 121.067 519.693 121.6 517.026 121.6ZM517.676 118.35C519.276 118.35 520.543 117.75 521.476 116.55C522.443 115.35 522.926 113.717 522.926 111.65C522.926 109.917 522.66 108.1 522.126 106.2C521.593 104.3 520.81 102.717 519.776 101.45C518.776 100.15 517.61 99.5 516.276 99.5C514.743 99.5 513.493 100.1 512.526 101.3C511.56 102.467 511.076 104.067 511.076 106.1C511.076 107.9 511.343 109.75 511.876 111.65C512.41 113.55 513.176 115.15 514.176 116.45C515.176 117.717 516.343 118.35 517.676 118.35ZM537.572 121.15C535.572 121.15 534.222 121.017 533.522 120.75C532.822 120.483 532.472 120.05 532.472 119.45C532.472 118.85 532.805 118.383 533.472 118.05C534.239 117.783 534.789 117.45 535.122 117.05C535.489 116.65 535.705 116.167 535.772 115.6C535.872 115.033 535.922 114.217 535.922 113.15V103.65C535.922 102.883 535.839 102.317 535.672 101.95C535.505 101.55 535.139 101.3 534.572 101.2C533.805 101.133 533.222 101.033 532.822 100.9C532.422 100.767 532.222 100.5 532.222 100.1C532.222 99.6333 532.389 99.2833 532.722 99.05C533.055 98.7833 533.572 98.5167 534.272 98.25C537.672 97.05 540.005 96.45 541.272 96.45C542.005 96.45 542.522 96.5833 542.822 96.85C543.122 97.0833 543.272 97.5167 543.272 98.15V100.65C543.272 101.05 543.339 101.25 543.472 101.25C543.539 101.25 543.839 100.8 544.372 99.9C544.905 98.9667 545.772 98.1167 546.972 97.35C548.172 96.55 549.739 96.15 551.672 96.15C556.505 96.15 559.272 99.2333 559.972 105.4L560.772 112.9C560.939 114.333 561.072 115.317 561.172 115.85C561.305 116.383 561.505 116.8 561.772 117.1C562.072 117.367 562.589 117.65 563.322 117.95C564.055 118.317 564.422 118.85 564.422 119.55C564.422 120.05 564.172 120.45 563.672 120.75C563.205 121.017 562.289 121.15 560.922 121.15L557.922 121.1L554.922 121.15C553.289 121.15 552.155 121.033 551.522 120.8C550.889 120.567 550.572 120.15 550.572 119.55C550.572 118.817 550.922 118.317 551.622 118.05C552.422 117.783 552.955 117.483 553.222 117.15C553.522 116.783 553.672 116.167 553.672 115.3C553.672 114.5 553.605 113.617 553.472 112.65L552.772 106.65C552.572 104.783 552.122 103.417 551.422 102.55C550.722 101.683 549.689 101.25 548.322 101.25C547.522 101.25 546.739 101.517 545.972 102.05C545.205 102.55 544.555 103.333 544.022 104.4C543.522 105.467 543.272 106.783 543.272 108.35V113.1C543.272 114.2 543.305 115.033 543.372 115.6C543.472 116.133 543.689 116.6 544.022 117C544.355 117.4 544.905 117.75 545.672 118.05C546.005 118.217 546.255 118.417 546.422 118.65C546.622 118.85 546.722 119.117 546.722 119.45C546.722 120.05 546.389 120.483 545.722 120.75C545.089 121.017 543.772 121.15 541.772 121.15L539.672 121.1L537.572 121.15Z" fill="url(#paint2_linear_50_3)" fill-opacity="0.8"/>
<defs>
<linearGradient id="paint0_linear_50_3" x1="53" y1="74" x2="98.5" y2="74" gradientUnits="userSpaceOnUse">
<stop stop-color="#FC1227"/>
<stop offset="1" stop-color="#FF947C"/>
</linearGradient>
<linearGradient id="paint1_linear_50_3" x1="297.5" y1="15" x2="297.5" y2="77" gradientUnits="userSpaceOnUse">
<stop offset="0.0389996" stop-color="#FC1227"/>
<stop offset="1" stop-color="#FFA081"/>
</linearGradient>
<linearGradient id="paint2_linear_50_3" x1="375" y1="68" x2="375" y2="136" gradientUnits="userSpaceOnUse">
<stop offset="0.0389996" stop-color="#FC1227"/>
<stop offset="1" stop-color="#FFA081"/>
</linearGradient>
</defs>
</svg>
