<svg xmlns="http://www.w3.org/2000/svg" width="200" height="200" viewBox="0 0 200 200" version="1.1"><path d="M 84.405 8.250 L 82.500 10.500 84.750 8.595 C 86.864 6.805, 87.455 6, 86.655 6 C 86.465 6, 85.453 7.012, 84.405 8.250 M 88.042 11.456 C 86.773 12.806, 85.288 13.819, 84.742 13.706 C 84.197 13.593, 83.544 14.063, 83.292 14.750 C 82.448 17.050, 84.575 16.034, 88 12.500 C 89.866 10.575, 91.157 9, 90.870 9 C 90.583 9, 89.310 10.105, 88.042 11.456 M 91.564 10.707 L 90.882 12.500 92.124 11.267 C 92.808 10.588, 93.115 9.781, 92.807 9.474 C 92.499 9.166, 91.940 9.721, 91.564 10.707 M 86.500 17 L 84.690 19 87.095 18.921 C 88.418 18.878, 88.919 18.609, 88.208 18.324 L 86.917 17.806 88.081 16.403 C 89.876 14.240, 88.542 14.744, 86.500 17 M 88.612 21.181 C 88.890 21.631, 90.104 22.007, 91.309 22.015 L 93.500 22.031 92 23.091 L 90.500 24.152 91.938 23.764 C 92.728 23.550, 93.535 22.895, 93.731 22.307 L 94.087 21.240 91.096 20.801 C 89.451 20.559, 88.333 20.730, 88.612 21.181 M 85 22 L 83.500 22.969 84.691 22.985 C 85.346 22.993, 86.160 22.550, 86.500 22 C 87.267 20.758, 86.921 20.758, 85 22 M 84 25 L 82.500 25.969 86.917 25.985 C 89.346 25.993, 91.016 25.683, 90.629 25.296 C 89.468 24.135, 85.605 23.962, 84 25 M 92.429 27 L 92.429 28.971 93.414 27.986 L 94.400 27 93.414 26.014 L 92.429 25.029 92.429 27 M 32.543 26.931 C 32.226 27.443, 32.456 28.164, 33.054 28.533 C 33.651 28.903, 34.530 30.171, 35.007 31.352 L 35.873 33.500 35.937 31.872 C 35.971 30.977, 35.330 29.689, 34.511 29.009 C 33.692 28.329, 33.269 27.374, 33.570 26.887 C 33.871 26.399, 33.893 26, 33.618 26 C 33.343 26, 32.859 26.419, 32.543 26.931 M 43.750 30.662 C 44.438 30.940, 45.563 30.940, 46.250 30.662 C 46.938 30.385, 46.375 30.158, 45 30.158 C 43.625 30.158, 43.063 30.385, 43.750 30.662 M 96.872 32.750 L 95.500 34.500 97.250 33.128 C 98.916 31.821, 99.445 31, 98.622 31 C 98.415 31, 97.627 31.788, 96.872 32.750 M 120.997 34.502 C 122.921 36.701, 124.888 38.950, 125.370 39.500 C 125.851 40.050, 125.778 39.600, 125.208 38.500 C 124.638 37.400, 122.671 35.151, 120.836 33.502 L 117.500 30.504 120.997 34.502 M 63 38.500 C 64.292 39.875, 65.574 41, 65.849 41 C 66.124 41, 65.292 39.875, 64 38.500 C 62.708 37.125, 61.426 36, 61.151 36 C 60.876 36, 61.708 37.125, 63 38.500 M 83.500 38 C 83.840 38.550, 84.541 39, 85.059 39 C 85.577 39, 86 38.550, 86 38 C 86 37.450, 85.298 37, 84.441 37 L 82.882 37 83.500 38 M 45.500 39 C 45.160 39.550, 45.332 40, 45.882 40 C 46.432 40, 47.160 39.550, 47.500 39 C 47.840 38.450, 47.668 38, 47.118 38 C 46.568 38, 45.840 38.450, 45.500 39 M 81 41 C 81 41.550, 81.477 42, 82.059 42 C 82.641 42, 82.840 41.550, 82.500 41 C 82.160 40.450, 81.684 40, 81.441 40 C 81.198 40, 81 40.450, 81 41 M 114.015 41.191 C 114.007 42.121, 114.450 43.160, 115 43.500 C 116.266 44.282, 116.266 42.958, 115 41 L 114.031 39.500 114.015 41.191 M 104 44.382 C 104 45.207, 104.450 46.160, 105 46.500 C 105.550 46.840, 106 46.443, 106 45.618 C 106 44.793, 105.550 43.840, 105 43.500 C 104.450 43.160, 104 43.557, 104 44.382 M 47.450 45.903 C 46.928 46.400, 45.600 47.022, 44.500 47.287 L 42.500 47.768 44.628 47.884 C 45.798 47.948, 47.315 47.325, 48 46.500 C 49.357 44.864, 48.977 44.451, 47.450 45.903 M 96.446 46.087 C 96.077 46.685, 96.179 47.579, 96.673 48.073 L 97.571 48.971 97.571 46.986 C 97.571 44.713, 97.386 44.566, 96.446 46.087 M 51 47 L 49.500 47.969 51.191 47.985 C 52.121 47.993, 53.160 47.550, 53.500 47 C 54.282 45.734, 52.958 45.734, 51 47 M 93.343 48.761 L 93.185 51.420 94.196 49.614 L 95.207 47.807 94.354 46.955 L 93.500 46.102 93.343 48.761 M 131.750 47.662 C 132.438 47.940, 133.563 47.940, 134.250 47.662 C 134.938 47.385, 134.375 47.158, 133 47.158 C 131.625 47.158, 131.063 47.385, 131.750 47.662 M 89.079 50.583 L 89.158 52.500 89.683 51.188 C 89.972 50.466, 89.936 49.603, 89.604 49.271 C 89.272 48.939, 89.036 49.529, 89.079 50.583 M 145 51.378 C 145 51.585, 145.787 52.373, 146.750 53.128 L 148.500 54.500 147.128 52.750 C 145.821 51.084, 145 50.555, 145 51.378 M 133.362 52.696 C 134.427 53.761, 137.086 53.947, 136.446 52.912 C 136.136 52.410, 135.159 52, 134.274 52 C 133.390 52, 132.980 52.313, 133.362 52.696 M 138 54.378 C 138 54.585, 138.787 55.373, 139.750 56.128 L 141.500 57.500 140.128 55.750 C 138.821 54.084, 138 53.555, 138 54.378 M 132.478 57.607 L 134.186 60.214 133.343 61.040 C 132.879 61.494, 129.220 62.063, 125.211 62.305 C 121.202 62.547, 117.662 63.005, 117.344 63.322 C 117.027 63.640, 118.270 65.272, 120.106 66.950 L 123.446 70 145.141 70 C 157.074 70, 167.548 70.273, 168.418 70.607 L 170 71.214 170 91.607 L 170 112 167.636 112 L 165.272 112 164.643 107.409 C 163.277 97.443, 157.529 89.449, 149.027 85.688 L 144.532 83.699 138.016 83.238 L 131.500 82.777 127.105 83.966 L 122.711 85.155 124.605 87.014 L 126.500 88.872 131.250 87.966 L 136 87.060 140.415 87.885 C 142.843 88.339, 146.881 89.912, 149.388 91.382 L 153.947 94.053 156.469 98.358 C 157.857 100.725, 159.280 104.763, 159.632 107.331 L 160.272 112 158.155 112 L 156.038 112 155.429 109.250 C 153.418 100.165, 150.636 96.416, 143.782 93.553 C 140.064 92, 133.463 91.501, 130.692 92.565 L 129.221 93.129 129.711 95.003 L 130.201 96.876 135.350 96.706 L 140.500 96.535 143.500 98.018 L 146.500 99.500 148.500 103.500 L 150.500 107.500 150.814 132.311 L 151.128 157.122 153.314 156.811 L 155.500 156.500 155.792 148.750 L 156.084 141 158.042 141 C 160.362 141, 160.244 140.564, 160.488 150 L 160.682 157.500 162.414 157.837 L 164.147 158.175 163.585 159.639 L 163.023 161.104 164.082 160.449 C 164.665 160.089, 167.112 160.090, 169.519 160.451 L 173.896 161.107 173.325 162.803 L 172.754 164.500 174.481 162.183 L 176.208 159.866 177.774 160.467 L 179.340 161.068 180.155 159.784 C 180.603 159.078, 180.976 136.364, 180.985 109.309 L 181 60.118 180.172 59.606 C 179.716 59.325, 169.113 59.027, 156.608 58.944 C 144.104 58.861, 134.123 58.544, 134.428 58.239 C 135.142 57.525, 133.064 55, 131.763 55 C 131.217 55, 131.539 56.173, 132.478 57.607 M 33.966 59.152 L 32.500 60.189 34.218 59.638 C 36.541 58.893, 37.475 60.695, 35.853 62.794 L 34.534 64.500 36.773 62.589 C 38.005 61.539, 38.897 60.624, 38.756 60.556 C 38.615 60.489, 37.810 59.912, 36.966 59.274 L 35.433 58.114 33.966 59.152 M 27.750 59.662 C 28.438 59.940, 29.563 59.940, 30.250 59.662 C 30.938 59.385, 30.375 59.158, 29 59.158 C 27.625 59.158, 27.063 59.385, 27.750 59.662 M 30.924 66.750 L 28.500 69.500 31.250 67.076 C 33.820 64.810, 34.459 64, 33.674 64 C 33.495 64, 32.258 65.237, 30.924 66.750 M 91.500 66 C 91.840 66.550, 92.316 67, 92.559 67 C 92.802 67, 93 66.550, 93 66 C 93 65.450, 92.523 65, 91.941 65 C 91.359 65, 91.160 65.450, 91.500 66 M 110 67.965 L 110 70 112.559 70 L 115.118 70 114.503 69.005 C 114.165 68.458, 113.014 67.543, 111.944 66.970 L 110 65.930 110 67.965 M 65.154 68.438 C 65.345 69.355, 65.950 70.082, 66.500 70.053 C 67.984 69.974, 67.712 67.737, 66.154 67.218 L 64.809 66.770 65.154 68.438 M 106 68.441 C 106 69.298, 106.450 70, 107 70 C 107.550 70, 108 69.577, 108 69.059 C 108 68.541, 107.550 67.840, 107 67.500 L 106 66.882 106 68.441 M 97.500 69 C 97.160 69.550, 97.359 70, 97.941 70 C 98.523 70, 99 69.550, 99 69 C 99 68.450, 98.802 68, 98.559 68 C 98.316 68, 97.840 68.450, 97.500 69 M 101.604 69.590 C 101.268 70.465, 101.263 71.617, 101.593 72.150 L 102.192 73.120 103.507 71.321 C 104.824 69.520, 104.614 68, 103.048 68 C 102.589 68, 101.939 68.716, 101.604 69.590 M 117.500 69 C 117.840 69.550, 118.568 70, 119.118 70 C 119.668 70, 119.840 69.550, 119.500 69 C 119.160 68.450, 118.432 68, 117.882 68 C 117.332 68, 117.160 68.450, 117.500 69 M 24.872 73.750 L 23.500 75.500 25.250 74.128 C 26.212 73.373, 27 72.585, 27 72.378 C 27 71.555, 26.179 72.084, 24.872 73.750 M 48.015 74.750 C 48.007 75.987, 48.450 77, 49 77 C 50.253 77, 50.253 75.939, 49 74 L 48.031 72.500 48.015 74.750 M 57 76.469 C 57 77.276, 56.438 77.800, 55.750 77.633 C 55.063 77.465, 54.865 77.526, 55.311 77.768 C 55.757 78.010, 55.314 79.173, 54.327 80.354 C 53.339 81.534, 53.987 81.178, 55.766 79.563 C 59.042 76.588, 59.820 75, 58 75 C 57.450 75, 57 75.661, 57 76.469 M 27.458 80.067 L 26.691 81.309 27.845 80.595 L 29 79.882 29.160 83.691 L 29.320 87.500 29.733 84.123 C 29.960 82.265, 29.714 80.314, 29.186 79.786 L 28.226 78.826 27.458 80.067 M 32.446 80.087 C 32.077 80.685, 32.180 81.580, 32.675 82.075 L 33.576 82.976 33.726 80.988 C 33.893 78.768, 33.453 78.458, 32.446 80.087 M 37.030 81.050 C 36.996 82.822, 38.895 85.007, 40.450 84.985 L 41.500 84.969 40.415 84.235 C 39.818 83.831, 38.819 82.600, 38.195 81.500 L 37.061 79.500 37.030 81.050 M 42.601 81.836 C 42.347 82.248, 43.007 82.650, 44.069 82.730 C 46.366 82.903, 46.568 82.432, 44.532 81.651 C 43.725 81.341, 42.856 81.424, 42.601 81.836 M 50.872 84.750 L 49.500 86.500 51.250 85.128 C 52.212 84.373, 53 83.585, 53 83.378 C 53 82.555, 52.179 83.084, 50.872 84.750 M 99.817 85.851 L 99.135 88.201 98.067 87.542 C 96.616 86.645, 96.686 87.157, 99.109 95.134 L 101.219 102.078 100.772 112.789 L 100.325 123.500 97.068 130.250 C 93.865 136.889, 92.576 138.222, 91.748 135.750 C 91.518 135.063, 91.348 140.800, 91.370 148.500 L 91.410 162.500 93.660 160.250 C 95.694 158.215, 98.274 157.474, 101.750 157.925 L 103 158.088 103.069 155.294 C 103.107 153.757, 103.220 150.025, 103.319 147 L 103.500 141.500 105.750 141.180 L 108 140.861 108 149.930 L 108 159 105.833 159 C 104.642 159, 103.919 159.253, 104.228 159.562 C 104.939 160.272, 145.095 160.238, 145.807 159.527 C 146.096 159.237, 140.831 159, 134.106 159 L 121.879 159 122.189 132.750 L 122.500 106.500 124.313 103.178 L 126.126 99.856 124.813 98.272 L 123.500 96.687 122.990 99.594 C 122.710 101.192, 121.906 102.500, 121.204 102.500 C 119.333 102.500, 118.033 105.048, 118.015 108.750 L 118 112 115.500 112 L 113 112 113 109.682 C 113 108.406, 113.699 105.010, 114.553 102.135 C 115.407 99.259, 115.824 96.021, 115.481 94.939 L 114.856 92.971 113.815 93.615 C 112.145 94.647, 109.225 102.095, 108.469 107.250 L 107.773 112 105.386 112 L 103 112 102.985 100.750 L 102.969 89.500 102.052 90.950 L 101.135 92.400 100.817 87.950 L 100.500 83.500 99.817 85.851 M 19.139 87.033 C 17.841 88.115, 17.209 89, 17.734 89 C 18.260 89, 19.505 88.100, 20.500 87 C 22.787 84.473, 22.195 84.487, 19.139 87.033 M 45.278 92.250 C 43.779 94.188, 42.836 96, 43.326 96 C 43.570 96, 44.507 94.875, 45.408 93.500 C 47.094 90.927, 47 90.024, 45.278 92.250 M 118.079 92.583 L 118.158 94.500 118.683 93.188 C 118.972 92.466, 118.936 91.603, 118.604 91.271 C 118.272 90.939, 118.036 91.529, 118.079 92.583 M 59.543 94.931 C 59.226 95.443, 59.425 96.144, 59.984 96.490 L 61 97.118 61 95.559 C 61 93.802, 60.400 93.544, 59.543 94.931 M 126.638 97.500 C 126.955 98.325, 127.391 99, 127.607 99 C 127.823 99, 128 98.325, 128 97.500 C 128 96.675, 127.564 96, 127.031 96 C 126.499 96, 126.322 96.675, 126.638 97.500 M 90.510 97.984 C 89.773 99.177, 90.709 101, 92.059 101 C 93.276 101, 93.284 98.293, 92.069 97.543 C 91.557 97.226, 90.856 97.425, 90.510 97.984 M 85.116 102.309 L 85 106.118 86 105.500 L 87 104.882 87 106.608 C 87 107.557, 87.301 108.033, 87.668 107.665 C 88.036 107.298, 87.834 105.985, 87.220 104.748 C 86.606 103.512, 85.907 101.600, 85.668 100.500 L 85.232 98.500 85.116 102.309 M 69 102.738 C 69 103.314, 69.640 104.032, 70.422 104.332 C 71.205 104.632, 72.043 105.918, 72.286 107.189 L 72.728 109.500 72.864 107.405 C 72.939 106.253, 72.100 104.495, 71 103.500 C 69.900 102.505, 69 102.162, 69 102.738 M 57.015 103.921 C 57.007 104.703, 56.212 106.278, 55.250 107.421 L 53.500 109.500 55.670 107.668 L 57.839 105.835 58.283 108.168 L 58.728 110.500 58.849 108 C 58.915 106.625, 58.533 104.825, 58 104 L 57.031 102.500 57.015 103.921 M 66 105.941 C 66 108.356, 66.556 108.599, 67.349 106.532 C 67.659 105.725, 67.482 104.798, 66.956 104.473 L 66 103.882 66 105.941 M 70 106.892 L 70 108.118 68.845 107.405 L 67.691 106.691 68.458 107.933 L 69.226 109.174 70.296 108.104 C 70.885 107.515, 71.059 106.726, 70.683 106.350 C 70.308 105.974, 70 106.218, 70 106.892 M 89.543 108.931 C 89.226 109.443, 89.405 110.132, 89.940 110.463 C 90.475 110.794, 90.665 111.837, 90.362 112.782 L 89.811 114.500 90.848 113.034 L 91.886 111.567 90.951 110.442 C 90.438 109.822, 90.313 109.020, 90.675 108.658 C 91.037 108.296, 91.060 108, 90.726 108 C 90.391 108, 89.859 108.419, 89.543 108.931 M 49.257 111.237 L 49.089 113.475 50.029 111.987 C 51.185 110.159, 51.256 109, 50.213 109 C 49.780 109, 49.350 110.007, 49.257 111.237 M 51.638 110.500 C 51.322 111.325, 51.499 112, 52.031 112 C 52.564 112, 53 111.325, 53 110.500 C 53 109.675, 52.823 109, 52.607 109 C 52.391 109, 51.955 109.675, 51.638 110.500 M 42 113.500 C 42 115.425, 42.176 117, 42.391 117 C 42.605 117, 42.965 115.425, 43.190 113.500 C 43.415 111.575, 43.239 110, 42.799 110 C 42.360 110, 42 111.575, 42 113.500 M 46.638 113.500 C 46.955 114.325, 47.391 115, 47.607 115 C 47.823 115, 48 114.325, 48 113.500 C 48 112.675, 47.564 112, 47.031 112 C 46.499 112, 46.322 112.675, 46.638 113.500 M 71.252 115.500 L 71.272 119.500 71.707 117.238 C 71.946 115.994, 71.937 114.194, 71.687 113.238 C 71.437 112.282, 71.241 113.300, 71.252 115.500 M 61.729 113.604 C 61.328 114.005, 61.014 115.271, 61.030 116.417 L 61.061 118.500 62.101 116.712 C 63.220 114.790, 62.934 112.400, 61.729 113.604 M 65 115.441 C 65 118.505, 65.570 118.753, 66.289 116.001 C 66.577 114.902, 66.404 113.750, 65.906 113.442 C 65.408 113.134, 65 114.034, 65 115.441 M 83.286 117.500 C 83.294 120.250, 83.488 121.256, 83.718 119.736 C 83.947 118.216, 83.941 115.966, 83.704 114.736 C 83.467 113.506, 83.279 114.750, 83.286 117.500 M 57.232 117 C 57.232 118.925, 57.438 119.713, 57.689 118.750 C 57.941 117.787, 57.941 116.213, 57.689 115.250 C 57.438 114.287, 57.232 115.075, 57.232 117 M 91.257 115.960 L 90.090 117.829 91.795 119.165 L 93.500 120.500 92.274 118.926 L 91.048 117.352 92.207 116.193 C 92.845 115.555, 93.155 114.821, 92.895 114.562 C 92.636 114.303, 91.899 114.932, 91.257 115.960 M 45 115.902 C 45 116.940, 46.902 118.443, 47.466 117.850 C 47.649 117.658, 47.169 116.920, 46.399 116.211 L 45 114.921 45 115.902 M 38 117.559 L 38 119.118 39 118.500 C 39.550 118.160, 40 117.459, 40 116.941 C 40 116.423, 39.550 116, 39 116 C 38.450 116, 38 116.702, 38 117.559 M 104 126.500 L 104 137 106 137 L 108 137 108 126.500 L 108 116 106 116 L 104 116 104 126.500 M 113 126.500 L 113 137 115 137 L 117 137 117 126.500 L 117 116 115 116 L 113 116 113 126.500 M 156 126.500 L 156 137 158 137 L 160 137 160 126.500 L 160 116 158 116 L 156 116 156 126.500 M 165.591 116.853 C 165.190 117.502, 165.417 130.362, 165.934 136.250 C 165.970 136.662, 166.900 137, 168 137 L 170 137 170 126.500 L 170 116 168.059 116 C 166.991 116, 165.881 116.384, 165.591 116.853 M 63.268 119.417 C 63.395 120.472, 64.175 121.518, 65 121.743 L 66.500 122.152 65.400 121.326 C 64.795 120.872, 64.015 119.825, 63.668 119 L 63.035 117.500 63.268 119.417 M 88.733 124.124 C 89.412 124.808, 90.219 125.115, 90.526 124.807 C 90.834 124.499, 90.279 123.940, 89.293 123.564 L 87.500 122.882 88.733 124.124 M 82.232 127 C 82.232 128.925, 82.438 129.713, 82.689 128.750 C 82.941 127.787, 82.941 126.213, 82.689 125.250 C 82.438 124.287, 82.232 125.075, 82.232 127 M 91.825 126.326 L 91.248 129.152 92.218 128.182 C 92.751 127.649, 93.011 126.377, 92.794 125.356 L 92.401 123.500 91.825 126.326 M 57.872 126.750 L 56.500 128.500 58.500 127.033 C 59.600 126.226, 60.688 125.439, 60.917 125.283 C 61.146 125.127, 60.863 125, 60.289 125 C 59.715 125, 58.627 125.787, 57.872 126.750 M 91.139 132.033 L 88.778 134 90.854 134 L 92.930 134 94 132 C 95.350 129.478, 94.190 129.491, 91.139 132.033 M 75.195 135.500 L 75.232 138.500 75.693 136.731 C 75.947 135.758, 75.930 134.408, 75.656 133.731 C 75.382 133.054, 75.175 133.850, 75.195 135.500 M 83.158 137 C 83.158 138.375, 83.385 138.938, 83.662 138.250 C 83.940 137.563, 83.940 136.438, 83.662 135.750 C 83.385 135.063, 83.158 135.625, 83.158 137 M 113 150 L 113 159 115.500 159 L 118 159 118 150 L 118 141 115.500 141 L 113 141 113 150 M 165 150 L 165 159 167.500 159 L 170 159 170 150 L 170 141 167.500 141 L 165 141 165 150 M 76.252 147.500 L 76.272 151.500 76.707 149.238 C 76.946 147.994, 76.937 146.194, 76.687 145.238 C 76.437 144.282, 76.241 145.300, 76.252 147.500 M 85.079 150.583 L 85.158 152.500 85.683 151.188 C 85.972 150.466, 85.936 149.603, 85.604 149.271 C 85.272 148.939, 85.036 149.529, 85.079 150.583 M 77.079 155.583 L 77.158 157.500 77.683 156.188 C 77.972 155.466, 77.936 154.603, 77.604 154.271 C 77.272 153.939, 77.036 154.529, 77.079 155.583 M 33.437 160.250 L 30.500 163.500 33.750 160.563 C 36.779 157.825, 37.460 157, 36.687 157 C 36.515 157, 35.052 158.463, 33.437 160.250 M 66.872 160.750 L 65.500 162.500 67.500 161.033 C 68.600 160.226, 69.688 159.439, 69.917 159.283 C 70.146 159.127, 69.863 159, 69.289 159 C 68.715 159, 67.627 159.787, 66.872 160.750 M 156.872 160.750 L 155.500 162.500 157 161.384 C 157.825 160.771, 159.175 160.019, 160 159.713 L 161.500 159.158 159.872 159.079 C 158.977 159.036, 157.627 159.787, 156.872 160.750 M 78.079 161.583 L 78.158 163.500 78.683 162.188 C 78.972 161.466, 78.936 160.603, 78.604 160.271 C 78.272 159.939, 78.036 160.529, 78.079 161.583 M 69.257 162 C 69.482 162.825, 70.528 163.605, 71.583 163.732 L 73.500 163.965 72 163.332 C 71.175 162.985, 70.128 162.205, 69.674 161.600 L 68.848 160.500 69.257 162 M 147.494 163.006 C 146.496 164.110, 145.864 165.190, 146.089 165.408 C 146.315 165.626, 147.309 164.723, 148.297 163.402 C 150.479 160.484, 149.994 160.245, 147.494 163.006 M 95.459 163.067 C 94.383 164.808, 95.608 165.177, 96.980 163.524 L 98.245 162 97.181 162 C 96.597 162, 95.821 162.480, 95.459 163.067 M 100.405 165.250 L 98.500 167.500 100.750 165.595 C 102.864 163.805, 103.455 163, 102.655 163 C 102.465 163, 101.453 164.012, 100.405 165.250 M 28.872 165.750 L 27.500 167.500 29.250 166.128 C 30.916 164.821, 31.445 164, 30.622 164 C 30.415 164, 29.627 164.787, 28.872 165.750 M 176 164.743 C 176 165.300, 176.675 166.315, 177.500 167 C 178.325 167.685, 179.036 168.977, 179.079 169.872 L 179.158 171.500 179.659 170.260 C 179.935 169.577, 179.224 167.829, 178.080 166.375 C 176.936 164.920, 176 164.186, 176 164.743 M 79.079 166.583 L 79.158 168.500 79.683 167.188 C 79.972 166.466, 79.936 165.603, 79.604 165.271 C 79.272 164.939, 79.036 165.529, 79.079 166.583 M 38.548 167.250 C 39.317 169.271, 39.924 169.384, 42 167.890 L 43.500 166.811 41.872 167.328 C 40.976 167.611, 39.712 167.316, 39.063 166.672 L 37.882 165.500 38.548 167.250 M 61.813 166.683 C 62.534 166.972, 63.397 166.936, 63.729 166.604 C 64.061 166.272, 63.471 166.036, 62.417 166.079 L 60.500 166.158 61.813 166.683 M 71.136 168.750 C 70.995 172.127, 72.345 173.149, 73.382 170.448 L 73.977 168.896 73.060 169.463 C 72.556 169.775, 71.947 169.010, 71.708 167.765 L 71.272 165.500 71.136 168.750 M 160.720 167.332 C 160.324 168.339, 160 169.667, 160 170.282 L 160 171.400 161.094 170.306 C 161.695 169.705, 162.020 168.377, 161.814 167.356 L 161.441 165.500 160.720 167.332 M 128 168 C 128 168.550, 128.477 169, 129.059 169 C 129.641 169, 129.840 168.550, 129.500 168 C 129.160 167.450, 128.684 167, 128.441 167 C 128.198 167, 128 167.450, 128 168 M 155.573 170.154 C 153.754 173.800, 153.716 174, 154.832 174 C 155.290 174, 156.148 172.425, 156.739 170.500 C 158.072 166.155, 157.633 166.025, 155.573 170.154 M 168.957 168.910 L 170.242 171.320 171.212 169.585 C 171.746 168.631, 171.917 167.584, 171.592 167.258 C 171.266 166.933, 171 167.247, 171 167.956 L 171 169.245 169.336 167.872 L 167.673 166.500 168.957 168.910 M 48 169 L 46.500 169.969 47.691 169.985 C 48.346 169.993, 49.160 169.550, 49.500 169 C 50.267 167.758, 49.921 167.758, 48 169 M 66.270 169.931 C 66.350 170.993, 66.752 171.653, 67.164 171.399 C 67.576 171.144, 67.659 170.275, 67.349 169.468 C 66.568 167.432, 66.097 167.634, 66.270 169.931 M 101.006 169.194 C 101.552 169.858, 102 171.300, 102 172.400 L 102 174.400 103.211 173.189 L 104.422 171.978 102.217 169.983 C 101.004 168.886, 100.459 168.531, 101.006 169.194 M 137.232 171 C 137.232 172.925, 137.438 173.713, 137.689 172.750 C 137.941 171.787, 137.941 170.213, 137.689 169.250 C 137.438 168.287, 137.232 169.075, 137.232 171 M 151.872 169.750 L 150.500 171.500 152.250 170.128 C 153.916 168.821, 154.445 168, 153.622 168 C 153.415 168, 152.627 168.787, 151.872 169.750 M 165.459 169.067 C 165.096 169.653, 165.014 170.348, 165.276 170.610 C 165.538 170.872, 166.019 170.392, 166.345 169.543 C 167.021 167.781, 166.445 167.471, 165.459 169.067 M 24.872 170.750 L 23.500 172.500 25.250 171.128 C 26.916 169.821, 27.445 169, 26.622 169 C 26.415 169, 25.627 169.787, 24.872 170.750 M 52.250 169.662 C 50.820 170.239, 50.551 172, 51.893 172 C 52.384 172, 53.045 171.325, 53.362 170.500 C 53.678 169.675, 53.839 169.036, 53.719 169.079 C 53.598 169.122, 52.938 169.385, 52.250 169.662 M 55.613 170.183 C 55.902 170.650, 56.557 170.774, 57.069 170.457 C 58.377 169.649, 58.230 169.333, 56.544 169.333 C 55.743 169.333, 55.324 169.716, 55.613 170.183 M 76.405 171.250 L 74.500 173.500 76.750 171.595 C 78.864 169.805, 79.455 169, 78.655 169 C 78.465 169, 77.453 170.012, 76.405 171.250 M 111 170 C 111 170.550, 109.763 171.052, 108.250 171.116 L 105.500 171.232 107.250 171.689 C 108.213 171.941, 109 172.516, 109 172.966 C 109 173.417, 109.563 174.001, 110.250 174.263 L 111.500 174.741 111.606 171.870 C 111.665 170.292, 111.553 169, 111.356 169 C 111.160 169, 111 169.450, 111 170 M 119.702 170.667 C 119.984 171.400, 120.343 172, 120.500 172 C 120.657 172, 121.016 171.400, 121.298 170.667 L 121.809 169.333 120.500 169.333 L 119.191 169.333 119.702 170.667 M 125.431 170.112 C 125.053 170.723, 125.309 171.573, 126 172 C 126.691 172.427, 126.993 173.202, 126.672 173.722 C 126.351 174.241, 126.743 174.667, 127.544 174.667 L 129 174.667 129 172.833 L 129 171 127.750 171.250 C 127.063 171.387, 126.612 170.938, 126.750 170.250 C 127.060 168.701, 126.349 168.626, 125.431 170.112 M 28.872 171.750 L 27.500 173.500 29.250 172.128 C 30.212 171.373, 31 170.585, 31 170.378 C 31 169.555, 30.179 170.084, 28.872 171.750 M 95 171.059 C 95 171.641, 95.450 171.840, 96 171.500 C 96.550 171.160, 97 170.684, 97 170.441 C 97 170.198, 96.550 170, 96 170 C 95.450 170, 95 170.477, 95 171.059 M 130.817 173.759 L 129.500 175.384 130.794 174.606 L 132.088 173.828 133.568 175.056 C 135.712 176.836, 135.988 175.806, 133.900 173.817 L 132.134 172.134 130.817 173.759 M 33 173.941 C 33 174.459, 33.445 175.157, 33.989 175.493 L 34.977 176.104 34.382 174.552 C 33.717 172.820, 33 172.503, 33 173.941 M 119.500 174 C 119.160 174.550, 119.359 175, 119.941 175 C 120.523 175, 121 174.550, 121 174 C 121 173.450, 120.802 173, 120.559 173 C 120.316 173, 119.840 173.450, 119.500 174 M 25.559 175.532 C 24.491 176.339, 24.099 177, 24.686 177 C 25.274 177, 26.315 176.325, 27 175.500 C 28.557 173.624, 28.067 173.634, 25.559 175.532 M 36.405 175.155 L 35.691 176.309 37.015 175.490 L 38.340 174.672 37.647 176.477 L 36.954 178.283 38.466 177.028 C 39.298 176.338, 39.731 175.374, 39.430 174.887 C 38.668 173.654, 37.254 173.780, 36.405 175.155 M 56.813 174.683 C 57.534 174.972, 58.397 174.936, 58.729 174.604 C 59.061 174.272, 58.471 174.036, 57.417 174.079 L 55.500 174.158 56.813 174.683 M 61.813 174.683 C 62.534 174.972, 63.397 174.936, 63.729 174.604 C 64.061 174.272, 63.471 174.036, 62.417 174.079 L 60.500 174.158 61.813 174.683 M 95.695 176.057 L 95.157 178.114 96.579 176.935 C 98.170 175.614, 98.465 174, 97.117 174 C 96.631 174, 95.991 174.926, 95.695 176.057 M 83 175.383 C 83 175.594, 83.900 176.002, 85 176.290 C 86.100 176.577, 87 176.405, 87 175.906 C 87 175.408, 86.100 175, 85 175 C 83.900 175, 83 175.173, 83 175.383 M 105.813 175.683 C 106.534 175.972, 107.397 175.936, 107.729 175.604 C 108.061 175.272, 107.471 175.036, 106.417 175.079 L 104.500 175.158 105.813 175.683 M 122.813 175.683 C 123.534 175.972, 124.397 175.936, 124.729 175.604 C 125.061 175.272, 124.471 175.036, 123.417 175.079 L 121.500 175.158 122.813 175.683 M 159.250 175.728 C 161.313 175.944, 164.688 175.944, 166.750 175.728 C 168.813 175.513, 167.125 175.336, 163 175.336 C 158.875 175.336, 157.188 175.513, 159.250 175.728 M 171.750 175.662 C 172.438 175.940, 173.563 175.940, 174.250 175.662 C 174.938 175.385, 174.375 175.158, 173 175.158 C 171.625 175.158, 171.063 175.385, 171.750 175.662 M 39.667 177.667 C 39.300 178.033, 39.014 179.046, 39.030 179.917 L 39.061 181.500 40.122 179.675 C 41.199 177.823, 40.887 176.447, 39.667 177.667 M 91 178.031 C 91 178.564, 91.675 179, 92.500 179 C 93.325 179, 94 178.823, 94 178.607 C 94 178.391, 93.325 177.955, 92.500 177.638 C 91.675 177.322, 91 177.499, 91 178.031 M 41.907 181.612 C 41.171 182.498, 39.654 183.595, 38.535 184.048 L 36.500 184.873 38.076 184.937 C 38.942 184.971, 40.708 183.875, 42 182.500 C 43.292 181.125, 44.100 180, 43.797 180 C 43.493 180, 42.643 180.725, 41.907 181.612 M 112.473 180.956 C 112.798 181.482, 113.725 181.659, 114.532 181.349 L 116 180.786 116 185.893 C 116 188.702, 116.388 191, 116.861 191 C 117.335 191, 117.515 189.912, 117.261 188.583 L 116.798 186.166 119.149 185.719 L 121.500 185.272 119.133 185.136 L 116.767 185 117.245 182.500 L 117.723 180 114.802 180 L 111.882 180 112.473 180.956 M 120.473 180.956 C 120.798 181.482, 121.725 181.659, 122.532 181.349 L 124 180.786 124 185.893 C 124 188.702, 124.338 191, 124.750 191 C 125.162 191, 125.500 188.525, 125.500 185.500 L 125.500 180 122.691 180 L 119.882 180 120.473 180.956 M 131.500 181 C 131.840 181.550, 132.969 182, 134.009 182 C 135.050 182, 136.359 182.787, 136.920 183.750 C 137.481 184.713, 137.939 185.050, 137.938 184.500 C 137.935 182.507, 135.229 180, 133.081 180 L 130.882 180 131.500 181 M 141.015 181.750 L 141.031 183.500 141.765 182.500 C 142.169 181.950, 143.738 181.415, 145.250 181.312 L 148 181.123 148 186.062 C 148 188.778, 148.341 191, 148.757 191 C 149.174 191, 149.348 188.909, 149.145 186.354 L 148.775 181.708 150.721 182.217 L 152.667 182.726 152.667 181.363 L 152.667 180 146.833 180 L 141 180 141.015 181.750 M 157.500 181.260 C 159.700 181.839, 162.096 183.030, 162.824 183.906 C 163.552 184.783, 163.887 184.976, 163.568 184.335 C 163.249 183.695, 163.520 182.993, 164.171 182.776 L 165.354 182.382 164.618 181.191 L 163.882 180 158.691 180.103 L 153.500 180.207 157.500 181.260 M 166.671 181.584 L 167.278 183.168 168.139 181.834 L 169 180.500 169.861 181.834 L 170.722 183.168 171.329 181.584 L 171.937 180 169 180 L 166.063 180 166.671 181.584 M 127.872 182.750 L 126.500 184.500 128.092 183.259 C 128.968 182.576, 130.052 182.351, 130.502 182.759 L 131.321 183.500 130.601 182.250 C 129.672 180.634, 129.508 180.664, 127.872 182.750 M 154.843 186.500 C 154.647 188.975, 154.826 191, 155.243 191 C 155.659 191, 156 188.975, 156 186.500 C 156 184.025, 155.820 182, 155.601 182 C 155.381 182, 155.040 184.025, 154.843 186.500 M 140.079 185.583 L 140.158 187.500 140.683 186.188 C 140.972 185.466, 140.936 184.603, 140.604 184.271 C 140.272 183.939, 140.036 184.529, 140.079 185.583 M 158.813 185.683 C 159.534 185.972, 160.397 185.936, 160.729 185.604 C 161.061 185.272, 160.471 185.036, 159.417 185.079 L 157.500 185.158 158.813 185.683 M 127 187.941 C 127 188.459, 127.445 189.157, 127.989 189.493 L 128.977 190.104 128.382 188.552 C 127.717 186.820, 127 186.503, 127 187.941 M 130.333 189.456 C 130.333 190.257, 130.716 190.676, 131.183 190.387 C 131.650 190.098, 131.774 189.443, 131.457 188.931 C 130.649 187.623, 130.333 187.770, 130.333 189.456 M 163.543 188.931 C 163.226 189.443, 163.350 190.098, 163.817 190.387 C 164.284 190.676, 164.667 190.257, 164.667 189.456 C 164.667 187.770, 164.351 187.623, 163.543 188.931 M 166.638 189.500 C 166.322 190.325, 166.499 191, 167.031 191 C 167.564 191, 168 190.325, 168 189.500 C 168 188.675, 167.823 188, 167.607 188 C 167.391 188, 166.955 188.675, 166.638 189.500 M 175.442 189.094 C 175.070 189.696, 173.693 189.983, 172.383 189.733 C 171.072 189.482, 170 189.679, 170 190.170 C 170 190.661, 171.546 190.959, 173.435 190.831 C 175.325 190.704, 176.672 190.278, 176.429 189.885 C 176.186 189.492, 176.553 188.943, 177.244 188.664 L 178.500 188.158 177.309 188.079 C 176.654 188.036, 175.814 188.492, 175.442 189.094 M 158.750 190.662 C 159.438 190.940, 160.563 190.940, 161.250 190.662 C 161.938 190.385, 161.375 190.158, 160 190.158 C 158.625 190.158, 158.063 190.385, 158.750 190.662" stroke="none" fill="#e2f425" fill-rule="evenodd"/><path d="M 84.467 9.208 C 81.037 13.267, 78.266 19.453, 73.923 32.750 C 72.081 38.388, 70.076 43, 69.467 43 C 68.858 43, 66.516 41.421, 64.261 39.492 C 59.348 35.286, 50.552 31.023, 46.761 31.010 C 45.254 31.004, 41.681 30.111, 38.820 29.024 C 33.302 26.927, 31.986 26.914, 34.476 28.980 C 35.314 29.676, 36 31.090, 36 32.122 L 36 34 37.450 34 C 38.248 34, 39.313 34.736, 39.816 35.636 C 40.319 36.535, 42.479 37.590, 44.616 37.979 L 48.500 38.688 45.741 39.822 L 42.983 40.957 44.714 42.979 C 45.666 44.090, 47.075 45, 47.845 45 L 49.245 45 48.095 46.385 L 46.946 47.770 40.662 48.171 L 34.379 48.571 26.590 53.161 L 18.801 57.751 25.651 58.757 C 29.418 59.311, 33.146 59.415, 33.935 58.989 L 35.369 58.214 37.037 59.255 L 38.704 60.296 31.102 67.966 L 23.500 75.636 20.182 81.818 C 16.852 88.023, 16.829 89.370, 20.102 86.408 L 21.861 84.816 21.314 86.908 C 20.403 90.389, 21.848 89.278, 25.098 83.996 C 26.791 81.243, 28.587 79.245, 29.088 79.555 C 29.590 79.865, 30.007 82.004, 30.015 84.309 L 30.031 88.500 31 87 C 31.533 86.175, 31.976 84.289, 31.985 82.809 C 31.993 81.329, 32.421 79.858, 32.935 79.540 L 33.870 78.962 34.185 82.231 C 34.575 86.278, 36.308 86.407, 37.055 82.443 L 37.610 79.500 38.372 81.750 C 39.238 84.303, 41.502 84.739, 42.355 82.517 L 42.924 81.034 44.462 81.624 L 46 82.214 46 80.638 L 46 79.063 47.570 79.665 L 49.141 80.268 48.570 76.384 L 47.999 72.500 49.636 76 L 51.273 79.500 51.720 78.250 C 51.966 77.563, 53.217 77, 54.500 77 C 55.783 77, 57.034 76.437, 57.280 75.750 C 57.525 75.063, 58.049 74.798, 58.443 75.163 C 58.837 75.528, 56.536 78.965, 53.330 82.801 C 43.198 94.923, 36 109.378, 36 117.605 L 36 121.118 37 120.500 C 37.550 120.160, 38 119.009, 38 117.941 C 38 116.873, 38.450 116, 39 116 C 39.550 116, 40 116.675, 40 117.500 C 40 118.325, 40.450 119, 41 119 L 42 119 42 114.500 C 42 109.123, 43.401 108.656, 45 113.500 C 45.635 115.425, 46.570 117, 47.078 117 C 48.266 117, 48.241 116.319, 46.965 113.934 L 45.930 112 46.965 112 C 47.534 112, 48 112.450, 48 113 C 48 113.550, 48.388 114, 48.861 114 C 49.335 114, 49.508 112.875, 49.245 111.500 L 48.767 109 49.800 109 C 50.368 109, 51.101 109.562, 51.428 110.250 C 51.755 110.938, 51.838 110.501, 51.612 109.280 L 51.203 107.060 53.290 107.280 L 55.377 107.500 56.586 105.139 L 57.795 102.778 58.384 104.639 C 58.708 105.663, 58.532 110.325, 57.994 115 C 57.456 119.675, 57.012 124.245, 57.008 125.156 L 57 126.812 59.584 125.656 L 62.167 124.500 61.582 119.310 L 60.997 114.120 61.873 113.578 C 62.356 113.280, 63.037 114.828, 63.387 117.018 C 63.737 119.208, 64.474 121, 65.024 121 L 66.024 121 65.348 116.750 L 64.673 112.500 66.505 114 L 68.337 115.500 67.563 112 C 67.137 110.075, 66.577 107.375, 66.318 106 L 65.847 103.500 68.006 106 L 70.165 108.500 69.575 105.088 L 68.985 101.677 70.927 103.434 L 72.868 105.190 72.300 111.961 L 71.732 118.732 73.355 123.116 C 74.247 125.527, 75.670 134.475, 76.516 143 C 77.363 151.525, 78.830 162.100, 79.778 166.500 L 81.500 174.500 84.141 174.806 L 86.783 175.112 86.641 178.306 L 86.500 181.500 90.797 181.410 L 95.094 181.320 97.797 179.308 C 99.284 178.201, 100.928 176.093, 101.451 174.624 L 102.403 171.952 100.731 169.122 L 99.060 166.293 101.530 163.972 C 102.888 162.696, 104 161.055, 104 160.326 C 104 159.597, 104.900 159, 106 159 L 108 159 108 149.930 L 108 140.861 105.750 141.180 L 103.500 141.500 103.319 147 C 103.220 150.025, 103.107 153.669, 103.069 155.098 L 103 157.696 99.923 157.783 C 95.905 157.897, 92.699 160.073, 90.813 163.966 L 89.293 167.105 87.701 161.303 C 84.118 148.243, 81.896 129.167, 82.830 119.500 C 83.202 115.650, 83.113 110.925, 82.631 109 L 81.754 105.500 82.962 101.078 L 84.170 96.656 85.069 98.078 C 85.564 98.860, 86.008 100.625, 86.055 102 L 86.141 104.500 87 102.500 L 87.859 100.500 87.930 104.250 L 88 108 89.559 108 C 90.416 108, 90.859 108.419, 90.543 108.931 C 90.226 109.443, 90.432 110.149, 91 110.500 C 91.568 110.851, 91.743 111.607, 91.388 112.181 C 91.034 112.754, 91.335 113.589, 92.058 114.036 L 93.371 114.848 92.209 116.248 L 91.048 117.648 92.142 118.742 L 93.236 119.836 91.118 121.158 C 88.454 122.822, 88.405 124, 91 124 L 93 124 93 125.592 C 93 126.468, 92.094 128.337, 90.986 129.745 C 88.616 132.758, 89.181 134.051, 91.823 131.661 C 94.523 129.217, 95.466 129.640, 93.615 132.465 C 91.815 135.211, 91.536 137, 92.906 137 C 93.404 137, 95.277 133.963, 97.068 130.250 L 100.325 123.500 100.772 112.789 L 101.219 102.078 99.109 95.134 C 96.702 87.210, 96.621 86.648, 98.008 87.505 L 99.017 88.128 99.945 85.814 L 100.873 83.500 100.952 88 L 101.031 92.500 102 91 L 102.969 89.500 102.985 100.750 L 103 112 105.386 112 L 107.773 112 108.469 107.250 C 109.225 102.095, 112.145 94.647, 113.815 93.615 L 114.856 92.971 115.481 94.939 C 115.824 96.021, 115.407 99.259, 114.553 102.135 C 113.699 105.010, 113 108.406, 113 109.682 L 113 112 115.500 112 L 118 112 118.015 108.750 C 118.033 105.048, 119.333 102.500, 121.204 102.500 C 121.906 102.500, 122.710 101.192, 122.990 99.594 L 123.500 96.687 124.813 98.272 L 126.126 99.856 124.313 103.178 L 122.500 106.500 122.189 132.750 L 121.879 159 133.982 159 L 146.084 159 143.542 163.338 C 140.604 168.351, 140.385 170.676, 142.557 173.777 L 144.113 176 146.510 176 C 150.069 176, 153.615 174.088, 155.058 171.391 C 156.837 168.068, 155.614 167.372, 152.418 169.886 C 149.208 172.411, 147.413 172.561, 146.207 170.405 C 144.955 168.168, 145.856 164.440, 148.151 162.363 L 150.093 160.606 153.548 160.704 C 155.449 160.758, 157.255 160.397, 157.561 159.901 C 157.867 159.405, 158.763 159, 159.550 159 L 160.983 159 158.491 165.619 C 157.121 169.260, 156 172.860, 156 173.619 L 156 175 165.929 175 L 175.857 175 177.429 173.429 C 179.430 171.427, 179.427 169.130, 177.420 166.912 L 175.841 165.166 177.001 162.998 C 177.640 161.805, 177.911 160.578, 177.605 160.272 C 176.533 159.199, 174.090 162.198, 172.373 166.693 L 170.641 171.229 169.259 169.365 L 167.876 167.500 166.438 169.441 L 165 171.382 165 169.691 C 165 167.522, 162.411 167.485, 161.583 169.643 C 161.237 170.547, 160.695 171.028, 160.379 170.712 C 160.063 170.396, 160.749 167.615, 161.902 164.531 C 164.418 157.809, 164.391 158.223, 162.341 157.823 L 160.682 157.500 160.488 150 C 160.244 140.564, 160.362 141, 158.042 141 L 156.084 141 155.792 148.750 L 155.500 156.500 153.314 156.811 L 151.128 157.122 150.814 132.311 L 150.500 107.500 148.500 103.500 L 146.500 99.500 143.500 98.018 L 140.500 96.535 135.350 96.706 L 130.201 96.876 129.711 95.003 L 129.221 93.129 130.692 92.565 C 133.463 91.501, 140.064 92, 143.782 93.553 C 150.636 96.416, 153.418 100.165, 155.429 109.250 L 156.038 112 158.155 112 L 160.272 112 159.632 107.331 C 159.280 104.763, 157.857 100.725, 156.469 98.358 L 153.947 94.053 149.388 91.382 C 146.881 89.912, 142.843 88.339, 140.415 87.885 L 136 87.060 131.250 87.966 L 126.500 88.872 124.605 87.014 L 122.711 85.155 127.105 83.966 L 131.500 82.777 138.016 83.238 L 144.532 83.699 149.027 85.688 C 157.529 89.449, 163.277 97.443, 164.643 107.409 L 165.272 112 167.636 112 L 170 112 170 91.607 L 170 71.214 168.418 70.607 C 167.548 70.273, 157.074 70, 145.141 70 L 123.446 70 120.106 66.950 C 118.270 65.272, 117.027 63.640, 117.344 63.322 C 117.662 63.005, 121.202 62.547, 125.211 62.305 C 129.220 62.063, 132.879 61.494, 133.343 61.040 L 134.186 60.214 132.478 57.607 C 130.547 54.660, 131.426 54.170, 134.177 56.661 C 136.857 59.086, 137.369 57.739, 134.941 54.653 L 132.855 52 134.083 52 C 134.759 52, 136.816 53.148, 138.656 54.551 C 142.266 57.305, 143.072 56.867, 140.250 53.683 L 138.500 51.709 141 52.226 C 142.375 52.510, 144.361 53.102, 145.414 53.541 L 147.328 54.340 146.541 53.066 C 145.448 51.298, 138.025 48.050, 135 48.016 C 133.625 48.001, 130.813 47.520, 128.750 46.947 L 125 45.906 125 44.394 C 125 43.562, 125.450 43.160, 126 43.500 C 127.886 44.665, 126.998 42.298, 123.996 38.154 C 120.941 33.936, 114.351 28.564, 110.883 27.463 C 108.183 26.606, 102.780 28.599, 98.431 32.055 C 96.393 33.675, 94.071 35, 93.272 35 L 91.820 35 92.160 30.288 L 92.500 25.577 87.500 25.826 L 82.500 26.075 84 25.053 C 84.825 24.491, 86.625 24.017, 88 24 C 89.375 23.983, 91.175 23.492, 92 22.909 L 93.500 21.848 88.500 22.289 L 83.500 22.730 88.500 20.358 L 93.500 17.985 89.019 18.619 L 84.538 19.254 88.269 15.124 C 93.248 9.613, 93.054 7.565, 88.018 12.482 C 83.118 17.267, 81.926 16.580, 85.571 11.071 C 88.944 5.975, 88.225 4.761, 84.467 9.208 M 83.500 38 C 83.840 38.550, 84.541 39, 85.059 39 C 85.577 39, 86 38.550, 86 38 C 86 37.450, 85.298 37, 84.441 37 L 82.882 37 83.500 38 M 81 41 C 81 41.550, 81.477 42, 82.059 42 C 82.641 42, 82.840 41.550, 82.500 41 C 82.160 40.450, 81.684 40, 81.441 40 C 81.198 40, 81 40.450, 81 41 M 114.015 41.191 C 114.007 42.121, 114.450 43.160, 115 43.500 C 116.266 44.282, 116.266 42.958, 115 41 L 114.031 39.500 114.015 41.191 M 101.195 45.500 L 101.232 48.500 101.693 46.731 C 101.947 45.758, 101.930 44.408, 101.656 43.731 C 101.382 43.054, 101.175 43.850, 101.195 45.500 M 104 44.382 C 104 45.207, 104.450 46.160, 105 46.500 C 105.550 46.840, 106 46.443, 106 45.618 C 106 44.793, 105.550 43.840, 105 43.500 C 104.450 43.160, 104 43.557, 104 44.382 M 96.446 46.087 C 96.077 46.685, 96.275 47.675, 96.887 48.287 L 98 49.400 98 47.200 C 98 44.785, 97.481 44.413, 96.446 46.087 M 51 47 L 49.500 47.969 51.191 47.985 C 52.121 47.993, 53.160 47.550, 53.500 47 C 54.282 45.734, 52.958 45.734, 51 47 M 93.030 48.550 L 93.061 51.500 94.134 49.654 L 95.207 47.807 94.104 46.704 L 93 45.600 93.030 48.550 M 89.079 50.583 L 89.158 52.500 89.683 51.188 C 89.972 50.466, 89.936 49.603, 89.604 49.271 C 89.272 48.939, 89.036 49.529, 89.079 50.583 M 91.500 66 C 91.840 66.550, 92.316 67, 92.559 67 C 92.802 67, 93 66.550, 93 66 C 93 65.450, 92.523 65, 91.941 65 C 91.359 65, 91.160 65.450, 91.500 66 M 110 67.965 L 110 70 112.559 70 L 115.118 70 114.503 69.005 C 114.165 68.458, 113.014 67.543, 111.944 66.970 L 110 65.930 110 67.965 M 65.154 68.438 C 65.345 69.355, 65.950 70.082, 66.500 70.053 C 67.984 69.974, 67.712 67.737, 66.154 67.218 L 64.809 66.770 65.154 68.438 M 106 68.441 C 106 69.298, 106.450 70, 107 70 C 107.550 70, 108 69.577, 108 69.059 C 108 68.541, 107.550 67.840, 107 67.500 L 106 66.882 106 68.441 M 97.500 69 C 97.160 69.550, 97.359 70, 97.941 70 C 98.523 70, 99 69.550, 99 69 C 99 68.450, 98.802 68, 98.559 68 C 98.316 68, 97.840 68.450, 97.500 69 M 101.604 69.590 C 101.268 70.465, 101.263 71.617, 101.593 72.150 L 102.192 73.120 103.507 71.321 C 104.824 69.520, 104.614 68, 103.048 68 C 102.589 68, 101.939 68.716, 101.604 69.590 M 117.500 69 C 117.840 69.550, 118.568 70, 119.118 70 C 119.668 70, 119.840 69.550, 119.500 69 C 119.160 68.450, 118.432 68, 117.882 68 C 117.332 68, 117.160 68.450, 117.500 69 M 118.079 92.583 L 118.158 94.500 118.683 93.188 C 118.972 92.466, 118.936 91.603, 118.604 91.271 C 118.272 90.939, 118.036 91.529, 118.079 92.583 M 59.543 94.931 C 59.226 95.443, 59.425 96.144, 59.984 96.490 L 61 97.118 61 95.559 C 61 93.802, 60.400 93.544, 59.543 94.931 M 126.638 97.500 C 126.955 98.325, 127.391 99, 127.607 99 C 127.823 99, 128 98.325, 128 97.500 C 128 96.675, 127.564 96, 127.031 96 C 126.499 96, 126.322 96.675, 126.638 97.500 M 90.510 97.984 C 89.773 99.177, 90.709 101, 92.059 101 C 93.276 101, 93.284 98.293, 92.069 97.543 C 91.557 97.226, 90.856 97.425, 90.510 97.984 M 104 126.500 L 104 137 106 137 L 108 137 108 126.500 L 108 116 106 116 L 104 116 104 126.500 M 113 126.500 L 113 137 115 137 L 117 137 117 126.500 L 117 116 115 116 L 113 116 113 126.500 M 156 126.500 L 156 137 158 137 L 160 137 160 126.500 L 160 116 158 116 L 156 116 156 126.500 M 165.591 116.853 C 165.190 117.502, 165.417 130.362, 165.934 136.250 C 165.970 136.662, 166.900 137, 168 137 L 170 137 170 126.500 L 170 116 168.059 116 C 166.991 116, 165.881 116.384, 165.591 116.853 M 113 150 L 113 159 115.500 159 L 118 159 118 150 L 118 141 115.500 141 L 113 141 113 150 M 165 150 L 165 159 167.500 159 L 170 159 170 150 L 170 141 167.500 141 L 165 141 165 150 M 34.351 160.236 C 29.968 164.898, 23 174.016, 23 175.090 C 23 177.079, 25.984 175.832, 28 173 C 30.729 169.168, 32.262 169.207, 33.750 173.148 L 34.938 176.296 36.425 175.062 C 37.243 174.383, 38.390 174.123, 38.974 174.484 L 40.035 175.140 38.018 177.705 C 36.908 179.115, 36 181.109, 36 182.135 L 36 184 37.911 184 C 39.664 184, 43.749 180.058, 45.806 176.381 L 46.653 174.868 60.299 174.522 L 73.945 174.175 76.403 171.338 C 77.755 169.777, 78.517 168.148, 78.098 167.717 C 76.933 166.522, 74.150 167.950, 73.471 170.092 C 72.571 172.927, 71.005 172.401, 70.964 169.250 L 70.928 166.500 68.369 169.500 L 65.809 172.500 66.280 170 C 66.540 168.625, 67.508 165.767, 68.432 163.648 L 70.112 159.796 68.849 160.217 C 68.155 160.448, 66.855 161.957, 65.962 163.569 C 65.069 165.181, 63.475 166.657, 62.419 166.850 C 61.364 167.042, 59.470 168.149, 58.211 169.310 L 55.923 171.421 55.345 169.211 C 54.662 166.601, 53.266 166.425, 50.214 168.563 L 47.983 170.126 46.362 168.505 L 44.742 166.885 43.121 167.538 C 42.229 167.898, 40.956 168.415, 40.292 168.687 L 39.084 169.182 38.433 166.591 C 38.076 165.166, 38.065 162.877, 38.410 161.504 C 39.742 156.196, 38.511 155.811, 34.351 160.236 M 131.517 164.967 C 130.133 167.698, 129 171.143, 129 172.622 L 129 175.310 130.876 173.612 L 132.753 171.914 133.345 173.457 C 133.671 174.306, 134.626 175, 135.469 175 L 137 175 137 171.107 L 137 167.214 135.511 166.643 L 134.022 166.071 135.011 163.471 C 136.237 160.246, 136.237 160, 135.017 160 C 134.476 160, 132.901 162.235, 131.517 164.967 M 95.459 163.067 C 94.383 164.808, 95.608 165.177, 96.980 163.524 L 98.245 162 97.181 162 C 96.597 162, 95.821 162.480, 95.459 163.067 M 70 165 C 70 165.550, 70.675 166, 71.500 166 C 72.325 166, 73 165.550, 73 165 C 73 164.450, 72.325 164, 71.500 164 C 70.675 164, 70 164.450, 70 165 M 106.208 168.717 C 105.056 169.698, 103.975 171.400, 103.807 172.500 L 103.500 174.500 106.250 174.816 L 109 175.133 109 173.566 L 109 172 107.250 171.900 L 105.500 171.801 108 171.105 C 109.375 170.723, 110.500 169.793, 110.500 169.038 C 110.500 166.904, 108.513 166.756, 106.208 168.717 M 114.796 168.183 C 112.057 169.148, 110.353 172.145, 111.494 173.991 C 112.362 175.394, 118.343 175.257, 119.800 173.800 L 121 172.600 121 173.800 L 121 175 123.441 175 C 126.361 175, 127.809 173.140, 125.878 171.869 L 124.500 170.962 126.250 169.621 C 127.213 168.883, 128 168.003, 128 167.665 C 128 166.560, 122.532 169.048, 121.250 170.736 C 120.563 171.642, 120 171.932, 120 171.382 C 120 170.832, 119.438 169.673, 118.750 168.806 L 117.500 167.230 114.796 168.183 M 52.250 169.662 C 50.820 170.239, 50.551 172, 51.893 172 C 52.384 172, 53.045 171.325, 53.362 170.500 C 53.678 169.675, 53.839 169.036, 53.719 169.079 C 53.598 169.122, 52.938 169.385, 52.250 169.662 M 92.250 169.746 C 91.563 169.977, 91 170.834, 91 171.651 L 91 173.135 93.250 172.455 C 94.487 172.081, 95.867 171.436, 96.316 171.022 C 97.274 170.137, 94.072 169.133, 92.250 169.746 M 94.079 175.265 C 91.326 176.669, 90.150 179, 92.194 179 C 93.949 179, 98 176.170, 98 174.943 C 98 173.692, 97.002 173.774, 94.079 175.265 M 39.667 177.667 C 39.300 178.033, 39.014 179.046, 39.030 179.917 L 39.061 181.500 40.122 179.675 C 41.199 177.823, 40.887 176.447, 39.667 177.667 M 114 186 L 114 191 115 191 L 116 191 116 186 L 116 181 115 181 L 114 181 114 186 M 121.812 183.250 C 121.335 186.528, 122.086 191, 123.113 191 C 123.601 191, 124 188.750, 124 186 C 124 180.993, 122.427 179.017, 121.812 183.250 M 128.655 182.829 C 127.745 183.835, 127 185.185, 127 185.829 C 127 187.259, 130.618 191, 132 191 C 132.550 191, 132.077 190.077, 130.949 188.949 L 128.898 186.898 129.584 184.699 C 129.961 183.489, 130.771 182.169, 131.385 181.765 L 132.500 181.031 131.405 181.015 C 130.803 181.007, 129.565 181.823, 128.655 182.829 M 136.800 182.200 C 137.460 182.860, 138 184.409, 138 185.643 L 138 187.887 135.777 189.443 C 134.555 190.299, 134.005 191, 134.555 191 C 135.105 191, 136.555 190.299, 137.777 189.443 L 140 187.887 140 185.643 C 140 183.301, 138.315 181, 136.600 181 L 135.600 181 136.800 182.200 M 146 186 L 146 191 147 191 L 148 191 148 186 L 148 181 147 181 L 146 181 146 186 M 155.847 185.999 C 156.297 192.496, 158 192.497, 158 186 L 158 181 156.750 180.999 L 155.500 180.999 155.847 185.999 M 168 186 L 168 191 169 191 L 170 191 170 186 L 170 181 169 181 L 168 181 168 186 M 161.543 184.931 C 161.226 185.443, 161.425 186.144, 161.984 186.490 L 163 187.118 163 185.559 C 163 183.802, 162.400 183.544, 161.543 184.931 M 163 190 L 161.500 190.969 162.691 190.985 C 163.346 190.993, 164.160 190.550, 164.500 190 C 165.267 188.758, 164.921 188.758, 163 190" stroke="none" fill="#15a34d" fill-rule="evenodd"/></svg>