<?xml version="1.0" encoding="utf-8"?>
<!-- Generator: Adobe Illustrator 19.2.1, SVG Export Plug-In . SVG Version: 6.00 Build 0)  -->
<svg version="1.1" id="layer" xmlns="http://www.w3.org/2000/svg" xmlns:xlink="http://www.w3.org/1999/xlink" x="0px" y="0px"
	 viewBox="0 0 652 652" style="enable-background:new 0 0 652 652;" xml:space="preserve">
<style type="text/css">
	.st0{fill:#005EB8;}
</style>
<path id="Logo" class="st0" d="M575.6,284.7c-14.1,0-27.2,7.5-34.5,20c-3.7,6.4-7.5,12.3-12.5,14.4c-1.8,0.8-3.3,0.8-4.3,0.6
	c-0.4-0.1-0.6-0.6-0.2-0.9c1.6-1.2,5.3-4.7,11.3-15.5c7.6-14.4,22.7-24.3,40.2-24.3c11.6,0,22.2,4.4,30.2,11.5
	c0.4,0.3,0.2,1-0.3,1.1c-1.5,0.3-2.9,0.8-4.2,1.3c-0.6,0.3-1.4,0.2-1.9-0.3C592.8,287.7,584.6,284.7,575.6,284.7L575.6,284.7z
	 M574.1,295.6c3.4,0,6.1,2.7,6.1,6.1c0,3.4-2.7,6.1-6.1,6.1c-3.4,0-6.1-2.7-6.1-6.1C568,298.4,570.7,295.6,574.1,295.6L574.1,295.6z
	 M592.3,348.2c0.1,0.4-0.1,0.8-0.5,1c-2.9,1.2-6,1.8-9.4,1.8c-6.4,0-12.2-2.3-16.6-6.2c-0.4-0.4-0.6-1-0.5-1.5
	c2.5-11.2,8.4-21.2,16.7-28.6c0.5-0.4,1.2,0,1.1,0.6c-0.4,1.8-0.6,3.7-0.6,5.6c0,3.1,0.4,6,1.3,8.8c0.8,2.6,2.1,5.1,3.9,8
	C590.1,341.5,591.4,344.6,592.3,348.2L592.3,348.2z M621,324.3c0,7-1.6,13.7-4.5,19.6c-1.2,2.4-2.5,4.7-4.1,6.8
	c-3.2,4.5-7.3,8.4-11.9,11.4c-0.2,0.1-0.4,0.2-0.6,0.2c-0.6,0-1.2-0.5-1.1-1.2c0.3-1.8,0.5-3.7,0.5-6c0-2.6-0.3-5.2-0.8-7.7
	c-1-4.6-2.7-8.6-5.6-13.2c-2.9-4.6-4.2-8.4-4.2-13.4c0-10.4,7.5-21.2,21.4-24.4c0.6-0.1,1.2,0.1,1.6,0.6
	C618.1,305.6,621,314.5,621,324.3L621,324.3z M51.5,325.6l17.9,24.6H58.5l-21.9-29.8v-1.7h6c6.8,0,10.6-4.1,10.6-9.8
	c0-5.8-3.8-9.8-10.6-9.8h-12v51.1H21v-59.6h21.8c12.1,0,20.2,7.4,20.2,18.2C63,316.7,58.7,322.9,51.5,325.6L51.5,325.6z M487,290.6
	v60.6h-1.8l-37.7-40.4v39.4h-9.6v-60.6h2l37.6,39.5v-38.5H487z M391.5,342.4c-12.4,0-21.4-9.3-21.4-22.1c0-12.6,9-21.9,21.4-21.9
	c12.2,0,21.4,9.4,21.4,21.9C412.9,333.1,403.7,342.4,391.5,342.4L391.5,342.4z M391.4,289.6c-17.3,0-31.2,13.4-31.2,30.8
	c0,17.4,13.8,30.8,31.2,30.8c17.2,0,31.3-13.3,31.3-30.8C422.8,302.9,408.7,289.6,391.4,289.6L391.4,289.6z M347.9,333.9
	c0,10.6-8.6,17.2-20,17.2c-9.9,0-18-5.1-22.5-12.9l6.8-5.1c3.4,5,8.2,9.5,15.6,9.5c6.1,0,10.3-3.2,10.3-8.3c0-4.7-3.5-6.5-8.8-8.9
	l-6.6-3.1c-7.7-3.5-13.9-8.1-13.9-16.5c0-9.8,8.5-16.2,18.8-16.2c8.8,0,15.6,4.5,19.2,10.7l-6.7,5.1c-3.1-4.6-7.4-7.2-12.6-7.2
	c-4.8,0-9,2.3-9,7.2c0,4.5,3.4,6.1,8.3,8.5l6.7,3.1C342.7,321.1,347.9,325.7,347.9,333.9L347.9,333.9z M281.4,290.6h9.6v60.6h-1.8
	l-37.7-40.4v39.4h-9.6v-60.6h2l37.6,39.5V290.6z M213.7,350.2h9.6v-59.6h-9.6V350.2z M179,341.8h-15.4v-18.5H179
	c6.8,0,10.5,3.7,10.5,9.3S185.8,341.8,179,341.8L179,341.8z M163.7,299h10.6c6.1,0,9.2,3.2,9.2,7.9c0,4.8-3.2,8.1-9.2,8.1h-10.6V299
	z M188.1,317.7c3.2-2.7,5-6.6,5-11.2c0-9.3-7-15.9-17.9-15.9h-20.9v59.6h25.6c11.7,0,19.3-7.3,19.3-17.3
	C199.2,325.4,195,319.9,188.1,317.7L188.1,317.7z M108,342.4c-12.4,0-21.4-9.3-21.4-22.1c0-12.6,9-21.9,21.4-21.9
	c12.2,0,21.4,9.4,21.4,21.9C129.4,333.1,120.2,342.4,108,342.4L108,342.4z M107.9,289.6c-17.3,0-31.2,13.4-31.2,30.8
	c0,17.4,13.8,30.8,31.2,30.8c17.2,0,31.3-13.3,31.3-30.8C139.2,302.9,125.1,289.6,107.9,289.6L107.9,289.6z"/>
</svg>
