<svg width="414" height="398" viewBox="0 0 414 398" fill="none" xmlns="http://www.w3.org/2000/svg">
<path d="M373.693 398L372.233 395.942C364.762 385.071 362.996 373.294 361.274 361.912C359.61 350.792 358.02 340.285 351.613 330.362C345.776 324.218 338.597 321.883 330.994 319.402C328.075 318.439 325.01 317.447 322.019 316.206C307.98 310.369 297.503 303.073 286.076 293.835C271.921 280.176 259.036 264.971 246.573 250.246C239.277 241.651 231.849 232.866 224.115 224.329C223.532 234.665 221.988 244.925 219.503 254.974C209.551 277.258 207.085 302.168 204.721 326.246C204.297 330.624 203.86 335.002 203.393 339.234L203.261 340.533L202.225 339.73C180.467 323.036 162.095 313.653 140.789 308.37C138.79 307.947 136.747 307.567 134.718 307.173C118.87 304.138 103.898 301.263 95.3171 285.517C85.102 267.933 83.1904 246.686 81.3954 226.139C81.0744 222.607 80.7679 219.119 80.4323 215.705C80.1842 213.735 79.9361 211.735 79.7026 209.722C77.4845 191.334 75.1934 172.32 65.0075 156.413C58.7909 149.117 50.9983 142.74 43.4683 136.625C40.5497 134.247 37.4998 131.795 34.625 129.329C23.3546 119.517 12.8963 108.81 3.35222 97.3119L0.827637 94.2911L4.27158 96.2028C26.0005 108.3 48.7218 117.173 77.9077 124.98C102.847 133.123 119.571 142.492 135.608 157.289C147.75 167.212 161.365 175.691 174.528 183.877C186.888 191.583 199.686 199.536 211.346 208.758C215.286 212.669 219.124 216.697 222.889 220.783C223.414 211.648 223.502 202.41 223.604 193.319C223.721 182.447 223.852 171.211 224.698 160.558C224.99 158.938 225.282 157.391 225.559 155.815C229.091 136.246 233.089 114.079 257.036 109.03C277.467 103.704 290.761 94.9624 298.889 81.5223C306.39 67.0169 313.365 51.9132 320.122 37.3056C322.165 32.8693 324.218 28.4379 326.28 24.0114C335.182 9.84163 344.346 -4.72218 365.988 2.51594L366.367 2.64729L366.454 3.04128C367.286 6.60197 368.147 9.95835 368.964 13.2564C372.044 25.3248 374.714 35.7441 373.766 48.3962C372.525 59.0637 376.086 72.8103 379.238 84.8787C380.332 89.096 381.369 93.0945 382.157 96.5531L395.801 161.813C398.399 174.465 400.646 187.394 402.82 199.9C404.601 210.116 406.439 220.768 408.468 231.159L408.614 231.932C414.261 260.491 417.092 274.821 407.446 303.248C404.323 310.326 400.631 317.549 396.735 325.137C385.527 347.027 372.832 371.922 373.62 395.373L373.693 398ZM224.304 222.315C232.403 231.188 240.167 240.352 247.755 249.298C260.188 263.993 273.045 279.184 287.156 292.741C298.437 301.862 308.812 309.129 322.69 314.864C325.609 316.075 328.644 317.067 331.563 318.016C339.355 320.555 346.71 322.948 352.868 329.471C359.537 339.76 361.216 350.909 362.835 361.693C364.411 372.185 366.046 382.998 372.175 393.009C372.335 369.952 384.608 345.918 395.524 324.612C399.42 316.98 403.112 309.771 406.191 302.796C415.691 274.806 412.875 260.593 407.286 232.297L407.14 231.509C405.097 221.104 403.258 210.495 401.478 200.222C399.318 187.73 397.1 174.815 394.473 162.192L380.697 96.9179C379.968 93.4447 378.931 89.4609 377.779 85.2435C374.597 73 371.008 59.1367 372.263 48.2066C373.196 35.8317 370.555 25.5145 367.52 13.5774C366.717 10.4399 365.885 7.21489 365.083 3.78554C344.813 -2.79589 336.014 11.1988 327.52 24.7264C325.492 29.1043 323.449 33.4822 321.391 37.8601C314.635 52.4531 307.645 67.6006 300.129 82.179C291.768 96.0131 278.24 104.959 257.328 110.387C234.315 115.247 230.565 135.969 226.946 156.019C226.668 157.581 226.391 159.142 226.099 160.689C225.268 171.225 225.136 182.433 225.019 193.275C225.005 202.936 224.903 212.669 224.304 222.315ZM7.02965 99.3841C15.807 109.685 25.3486 119.31 35.5735 128.176C38.4921 130.642 41.4107 133.094 44.3293 135.473C51.9176 141.631 59.7686 147.993 66.1312 155.538C76.536 171.794 78.8562 190.984 81.089 209.532C81.3371 211.546 81.5705 213.53 81.8186 215.53C82.1689 218.959 82.4753 222.461 82.7818 225.993C84.5767 246.423 86.4154 267.466 96.5283 284.773C104.846 299.95 119.498 302.752 134.995 305.729C137.038 306.108 139.081 306.502 141.11 306.925C162.313 312.193 180.598 321.445 202.079 337.775C202.503 333.908 202.882 329.997 203.261 326.1C205.655 301.905 208.121 276.878 218.132 254.493C220.694 244.105 222.262 233.497 222.816 222.811C218.774 218.434 214.644 214.056 210.426 209.838C198.883 200.732 186.129 192.794 173.798 185.118C160.591 176.902 146.947 168.394 134.704 158.383C118.783 143.718 102.234 134.451 77.5137 126.381C49.7579 118.982 27.8246 110.591 7.02965 99.3841Z" fill="white"/>
<path d="M352.971 330.055L351.511 329.88C353.511 314.295 354.328 307.859 351.132 291.063C348.097 274.908 347.615 258.17 347.148 242.001C347.075 239.331 347.002 236.66 346.915 234.004C346.827 230.414 346.74 226.81 346.667 223.22C346.273 205.796 345.864 187.759 344.565 170.087C342.741 154.035 340.683 137.734 338.567 121.113L332.395 72.781C330.133 55.6197 328.163 40.2241 326.382 25.7479L327.842 25.5728C329.637 40.049 331.592 55.43 333.854 72.5913L340.027 120.938C342.143 137.559 344.2 153.816 346.039 169.956C347.338 187.701 347.746 205.738 348.14 223.191C348.209 226.781 348.291 230.371 348.389 233.96C348.476 236.616 348.549 239.287 348.622 241.957C349.089 258.083 349.571 274.748 352.577 290.8C355.889 307.815 355.014 314.324 352.971 330.055Z" fill="white"/>
<path d="M285.843 293.296C285.639 287.225 285.843 282.774 286.164 277.127C286.412 272.282 286.689 266.795 286.791 258.769C286.908 246.598 286.923 234.223 286.923 222.286V207.766C287.025 193.611 287.127 178.96 287.74 164.556V164.44C288.426 148.679 288.674 143.367 290.002 132.437C290.829 125.572 292.002 118.753 293.519 112.007C293.825 110.548 294.146 109.088 294.497 107.366L294.978 105.046C296.629 97.6787 297.867 90.2247 298.685 82.7189L300.144 82.8795C299.322 90.4338 298.08 97.9365 296.423 105.353L296.058 107.527C295.708 109.22 295.387 110.752 295.08 112.182C293.569 118.899 292.4 125.689 291.578 132.525C290.25 143.397 290.016 148.694 289.331 164.425V164.586C288.718 178.96 288.616 193.582 288.513 207.737V222.257C288.513 234.223 288.513 246.598 288.382 258.739C288.28 266.795 288.003 272.296 287.74 277.156C287.463 282.774 287.229 287.196 287.434 293.208L285.843 293.296Z" fill="white"/>
<path d="M211.667 209.401L210.208 209.313C210.485 205.183 210.689 201.798 210.879 198.616C211.214 193.129 211.506 188.401 212.046 181.543C212.591 172.913 213.605 164.32 215.082 155.801C216.108 148.5 217.999 141.348 220.714 134.495C223.633 126.979 225.501 123.886 229.718 119.391C233.936 114.896 236.854 113.554 242.443 111.934C246.538 110.772 250.713 109.918 254.935 109.38L256.73 109.118L256.949 110.577L255.154 110.84C250.994 111.358 246.88 112.202 242.852 113.364C237.423 114.926 234.972 115.933 230.784 120.413C226.595 124.893 224.946 127.709 222.028 135.006C219.348 141.774 217.487 148.839 216.483 156.049C215.002 164.518 213.994 173.063 213.462 181.645C212.922 188.474 212.63 193.202 212.294 198.689C212.148 201.885 211.944 205.3 211.667 209.401Z" fill="white"/>
<path d="M224.553 160.864C218.398 156.498 211.898 152.642 205.115 149.336C197.424 145.556 193.805 144.316 187.472 143.251C182.513 142.281 177.414 142.281 172.456 143.251C167.824 143.882 163.301 145.149 159.016 147.016C155.014 148.618 151.116 150.465 147.341 152.546L146.947 152.751L143.576 154.531C140.935 155.99 138.833 157.056 135.579 158.588L134.966 157.26C138.191 155.801 140.264 154.648 142.89 153.247L146.261 151.466L146.67 151.248C150.503 149.137 154.466 147.27 158.534 145.658C162.923 143.75 167.553 142.454 172.295 141.806C177.413 140.838 182.67 140.863 187.778 141.879C194.272 142.973 197.993 144.243 205.815 148.095C212.661 151.445 219.22 155.35 225.428 159.77L224.553 160.864Z" fill="white"/>
<path d="M217.694 254.697C209.39 247.517 202.663 243.314 193.367 237.492L186.071 232.88L184.816 232.092C171.682 223.76 164.517 219.163 153.733 210.13C142.949 201.097 138.542 196.296 131.843 186.11C128.247 180.669 125.089 174.95 122.402 169.007C121.263 166.672 120.111 164.25 118.637 161.36C113.719 151.729 110.231 145.498 100.833 138.946C93.9968 134.109 86.6157 130.093 78.8417 126.979L77.47 126.366L78.0683 125.038L79.44 125.637C87.2992 128.786 94.7592 132.851 101.665 137.749C111.151 144.36 114.901 150.883 119.936 160.704C121.395 163.622 122.577 166.03 123.715 168.38C126.393 174.254 129.52 179.914 133.069 185.307C139.694 195.347 143.941 200.003 154.696 209.006C165.451 218.01 172.587 222.563 185.633 230.896L186.873 231.698C189.515 233.377 191.937 234.88 194.17 236.295C203.509 242.132 210.222 246.379 218.657 253.646L217.694 254.697Z" fill="white"/>
<path d="M142.715 306.488L141.504 305.656C144.16 301.764 146.796 297.946 149.413 294.2C163.204 274.281 176.25 255.471 185.764 231.99C190.434 217.106 193.397 201.666 196.257 186.752C198.665 174.173 201.16 161.171 204.677 148.504C211.55 131.328 219.27 111.934 242.341 111.934H242.648C245.566 111.934 248.631 111.934 251.637 111.934C266.157 111.934 281.173 112.036 295.022 106.754C310.812 100.026 321.508 86.3964 331.855 73.1897L332.584 72.2704C334.481 70.0231 336.364 67.3817 338.421 64.5945C346.754 52.9201 357.115 38.5168 373.445 47.6958L372.73 48.98C357.495 40.4285 347.921 53.7227 339.56 65.4409C337.546 68.2573 335.634 70.9278 333.723 73.1897L333.007 74.0945C322.544 87.4179 311.731 101.208 295.577 108.096C281.465 113.452 266.288 113.364 251.622 113.364C248.631 113.364 245.639 113.364 242.648 113.364H242.371C220.291 113.364 212.732 132.262 206.049 148.942C202.576 161.477 200.095 174.45 197.687 187C194.768 201.973 191.85 217.47 187.136 232.487C177.534 256.171 164.459 275.04 150.654 295.032C148.017 298.787 145.371 302.606 142.715 306.488Z" fill="white"/>
<path d="M98.1335 284.102L97.0828 283.08C118.609 260.666 137.552 235.907 153.558 209.269C160.197 197.099 166.283 184.388 172.178 172.101C176.877 162.28 181.751 152.123 186.888 142.273C194.608 126.221 211.258 117.363 230.317 119.245C242.881 120.471 255.373 123.623 267.47 126.542C275.146 128.439 283.085 130.38 290.936 131.839C307.796 134.572 325.053 130.505 338.917 120.529L381.077 96.2466L381.806 97.5016L339.691 121.653C332.682 126.701 324.745 130.316 316.336 132.292C307.928 134.267 299.212 134.565 290.688 133.167C282.778 131.708 274.825 129.752 267.12 127.87C255.081 124.951 242.633 121.843 230.171 120.573C211.74 118.764 195.658 127.271 188.187 142.798C183.05 152.663 178.19 162.805 173.492 172.626C167.654 184.928 161.496 197.639 154.827 209.882C138.755 236.658 119.739 261.552 98.1335 284.102Z" fill="white"/>
<path d="M82.6504 215.953L82.344 214.493C103.314 210.115 117.761 198.105 131.96 185.147C136.644 180.112 141.314 174.801 145.823 169.649C154.068 160.266 162.591 150.562 171.828 141.923C186.8 127.14 201.89 129.329 221.59 134.042C235.304 139.192 248.747 145.037 261.867 151.554C270.623 155.742 279.729 160.062 288.835 163.9C309.265 171.065 323.683 173.881 345.222 169.328C363.375 166.264 379.647 163.651 395.013 161.317L395.232 162.776C379.88 165.096 363.609 167.723 345.484 170.773C323.77 175.37 308.637 172.393 288.324 165.271C279.13 161.419 270.039 157.085 261.239 152.882C248.295 146.724 234.972 140.346 221.182 135.458C202.021 130.876 187.282 128.716 172.835 142.988C163.627 151.627 155.134 161.302 146.918 170.714C142.394 175.866 137.724 181.192 132.982 186.285C118.593 199.36 103.971 211.487 82.6504 215.953Z" fill="white"/>
<path d="M357.874 234.938C354.474 234.938 351.059 234.865 347.659 234.705C322.544 233.566 305.456 223.424 287.288 211.356C278.532 204.833 269.98 197.857 261.677 191.116C246.938 179.178 231.718 166.833 215.417 156.618C197.658 147.337 180.774 138.61 158.884 146.928C155.791 148.256 152.638 149.847 149.311 151.379C139.621 156.049 129.582 160.879 119.25 161.74H119.089C114.828 161.185 110.538 160.529 106.408 159.901C93.0845 157.887 80.52 155.976 67.0798 156.632V155.173C80.6659 154.502 93.3472 156.428 106.7 158.456C110.8 159.084 115.047 159.726 119.279 160.281C129.319 159.42 139.198 154.662 148.757 150.065C152.098 148.446 155.251 146.928 158.417 145.571C180.934 137.005 198.037 145.877 216.162 155.275C232.579 165.49 247.843 177.938 262.611 189.904C270.9 196.632 279.481 203.592 288.149 210.072C306.74 222.49 322.968 232.107 347.732 233.231C363.551 233.99 379.588 232.764 395.101 231.567C399.303 231.246 403.506 230.911 407.709 230.633L407.811 232.093C403.608 232.37 399.42 232.691 395.217 233.027C382.974 233.975 370.482 234.938 357.874 234.938Z" fill="white"/>
<path d="M406.308 303.656C392.226 292.551 374.7 292.172 357.742 291.807L351.905 291.661C324.865 292.741 305.047 276.28 287.083 259.308C279.159 251.049 271.323 242.57 263.735 234.369C247.463 216.755 230.652 198.543 212.324 182.141C191.893 167.081 172.806 156.297 146.422 152.751C131.829 152.006 118.52 146.388 105.561 140.974L100.906 139.019C85.0582 135.472 68.8017 133.561 52.9683 131.722C47.5835 131.095 42.1695 130.452 36.7263 129.752L36.916 128.293C42.3446 128.993 47.7586 129.621 53.1434 130.263C68.9622 132.102 85.2479 134.028 101.3 137.559C102.978 138.245 104.54 138.902 106.087 139.559C118.885 144.929 132.121 150.489 146.465 151.233C173.214 154.808 192.463 165.695 213.155 180.944C231.586 197.434 248.427 215.661 264.712 233.304C272.286 241.505 280.108 249.984 288.061 258.199C306.507 275.623 325.273 291.223 351.847 290.129L357.772 290.275C374.962 290.64 392.795 291.034 407.198 302.445L406.308 303.656Z" fill="white"/>
</svg>
