<svg width="64" height="64" viewBox="0 0 64 64" fill="none" xmlns="http://www.w3.org/2000/svg">
<rect x="63.5" y="63.5" width="63" height="63" rx="31.5" transform="rotate(-180 63.5 63.5)" stroke="black"/>
<path d="M19 31.5003H18.5V32.5003H19V31.5003ZM45 32.5003C45.2761 32.5003 45.5 32.2764 45.5 32.0003C45.5 31.7241 45.2761 31.5003 45 31.5003V32.5003ZM35.5 22V21.5H34.5V22H35.5ZM44.6601 32.3387C44.9025 32.4709 45.2062 32.3816 45.3384 32.1392C45.4707 31.8967 45.3813 31.593 45.1389 31.4608L44.6601 32.3387ZM34.4999 41.9L34.4999 42.4L35.4999 42.4L35.4999 41.9L34.4999 41.9ZM19 32.5003H44.8994V31.5003H19V32.5003ZM44.8994 32.5003H45V31.5003H44.8994V32.5003ZM34.5 22C34.5 23.2987 35.207 24.5925 36.1592 25.7612C37.1213 26.942 38.392 28.0656 39.644 29.0331C40.899 30.0028 42.1515 30.8282 43.0889 31.4105C43.558 31.7019 43.9493 31.9331 44.2239 32.0918C44.3613 32.1712 44.4695 32.2325 44.5438 32.2741C44.581 32.295 44.6096 32.3109 44.6292 32.3217C44.639 32.3271 44.6465 32.3313 44.6517 32.3341C44.6543 32.3355 44.6563 32.3366 44.6577 32.3374C44.6584 32.3378 44.6589 32.3381 44.6593 32.3383C44.6595 32.3384 44.6597 32.3385 44.6598 32.3386C44.66 32.3386 44.6601 32.3387 44.8995 31.8997C45.1389 31.4608 45.139 31.4608 45.139 31.4608C45.1389 31.4608 45.1389 31.4608 45.1388 31.4607C45.1386 31.4606 45.1382 31.4604 45.1377 31.4601C45.1367 31.4596 45.1351 31.4587 45.133 31.4575C45.1286 31.4551 45.1219 31.4515 45.113 31.4465C45.0951 31.4366 45.0682 31.4217 45.0328 31.4019C44.9621 31.3622 44.8577 31.3031 44.7243 31.226C44.4576 31.0719 44.0755 30.8461 43.6165 30.561C42.6977 29.9902 41.4754 29.1844 40.2555 28.2418C39.0326 27.2969 37.8284 26.2267 36.9344 25.1295C36.0304 24.02 35.5 22.9513 35.5 22H34.5ZM44.8994 32.0003C44.7121 31.5367 44.7119 31.5367 44.7117 31.5368C44.7116 31.5369 44.7114 31.5369 44.7112 31.537C44.7107 31.5372 44.7101 31.5375 44.7094 31.5378C44.7078 31.5384 44.7057 31.5393 44.703 31.5404C44.6976 31.5426 44.6899 31.5457 44.6799 31.5499C44.6598 31.5582 44.6307 31.5703 44.5931 31.5863C44.5178 31.6182 44.4086 31.6653 44.2701 31.7271C43.9934 31.8507 43.5996 32.0333 43.1278 32.2708C42.1854 32.7452 40.9255 33.4418 39.6624 34.3285C38.4018 35.2135 37.1206 36.3 36.1506 37.5591C35.1801 38.8189 34.4999 40.2799 34.4999 41.9L35.4999 41.9C35.4999 40.5703 36.0572 39.3189 36.9428 38.1694C37.8289 37.0192 39.0226 35.9995 40.237 35.147C41.4487 34.2963 42.6637 33.6241 43.5774 33.1641C44.0337 32.9344 44.4133 32.7584 44.678 32.6402C44.8102 32.5811 44.9136 32.5365 44.9834 32.507C45.0183 32.4922 45.0447 32.4811 45.0621 32.4739C45.0709 32.4703 45.0773 32.4677 45.0814 32.466C45.0835 32.4652 45.085 32.4646 45.0859 32.4642C45.0863 32.464 45.0866 32.4639 45.0867 32.4638C45.0868 32.4638 45.0868 32.4638 45.0869 32.4638C45.0868 32.4638 45.0867 32.4638 44.8994 32.0003Z" fill="black"/>
</svg>
