<svg width="494" height="539" viewBox="0 0 494 539" fill="none" xmlns="http://www.w3.org/2000/svg">
<g clip-path="url(#clip0_102_4)">
<path d="M377.2 409.789C378.924 408.421 379.792 408.292 380.337 407.605C405.696 351.951 409.728 291.461 386.898 226.345C381.169 209.892 371.819 194.785 359.802 181.589C334.242 153.097 298.471 143.922 269.303 158.153C254.049 165.468 241.042 175.588 233.807 192.441C237.547 201.094 241.522 209.612 244.467 217.978C249.215 231.642 249.607 244.837 243.499 256.567C239.175 265.401 232.106 269.482 225.753 267.185C217.415 264.169 212.895 256.34 212.244 248.14C211.319 236.743 211.66 225.361 212.558 214.403C213.187 207.329 215.477 200.414 217.297 193.771C195.048 164.485 162.088 165.619 139.517 196.174C141.157 201.192 142.959 206.49 144.364 211.644C149.177 230.863 147.724 248.479 136.978 262.514C132.85 267.879 127.444 272.119 119.341 268.968C113.224 266.534 108.703 258.704 107.953 248.698C106.975 232.858 111.16 218.884 116.697 205.62C118.778 201.063 120.859 196.506 123.102 192.229C90.1368 146.014 33.1258 132.697 8.14183 173.221C6.27868 169.449 4.26716 166.51 4.24097 164.288C4.28894 161.65 6.23496 159.035 8.03262 157.252C25.477 141.215 45.7052 133.264 71.0298 141.759C90.0015 147.956 106.818 159.127 122.334 174.03C124.494 176.139 126.653 178.247 129.049 180.22C129.21 180.499 129.843 180.507 131.27 180.802C133.229 179.298 135.821 177.801 138.09 175.746C166.272 151.645 188.577 152.189 223.366 178.709C225.548 175.958 228.2 172.935 230.456 169.768C244.401 152.023 262.221 140.99 284.797 137.649C321.501 132.118 358.419 151.442 382.818 188.807C396.105 209.099 404.666 231.001 409.605 254.248C421.338 310.483 417.364 362.366 393.24 408.731C392.162 411.217 390.687 413.56 389.609 416.046C389.535 416.462 389.622 417.157 389.884 419.243C399.187 416.855 406.242 411.663 413.459 406.751C420.602 402.254 427.657 397.062 435.345 391.878C438.836 399.556 437.152 404.257 434.115 408.247C430.371 412.646 426.95 417.604 422.4 420.604C409.999 428.509 397.202 436.27 383.758 442.913C373.142 447.924 366.602 443.125 365.428 430.753C363.141 404.483 361.091 378.077 359.04 351.671C358.752 347.363 359.258 343.343 359.589 337.932C367.618 341.499 368.316 347.061 369.088 352.208C371.209 371.117 374.037 389.618 377.2 409.789ZM121.566 256.498C136.371 244.595 139.399 226.442 130.096 208.697C124.101 223.343 118.093 236.878 121.566 256.498ZM226.229 253.861C237.87 241.92 238.01 226.926 226.748 210.685C222.961 224.802 220.028 237.68 226.229 253.861Z" fill="white"/>
</g>
<defs>
<clipPath id="clip0_102_4">
<rect width="316.973" height="438.048" fill="white" transform="translate(0.108032 159.306) rotate(-30)"/>
</clipPath>
</defs>
</svg>
