<svg width="494" height="539" viewBox="0 0 494 539" fill="none" xmlns="http://www.w3.org/2000/svg">
<g clip-path="url(#clip0_102_4)">
<path d="M116.546 409.789C114.823 408.421 113.955 408.292 113.409 407.605C88.0501 351.951 84.0189 291.461 106.848 226.345C112.577 209.892 121.928 194.785 133.945 181.589C159.505 153.097 195.275 143.922 224.444 158.153C239.698 165.468 252.705 175.588 259.939 192.441C256.2 201.094 252.225 209.612 249.279 217.978C244.532 231.642 244.139 244.837 250.248 256.567C254.572 265.401 261.64 269.482 267.993 267.185C276.331 264.169 280.852 256.34 281.502 248.14C282.427 236.743 282.087 225.361 281.188 214.403C280.56 207.329 278.269 200.414 276.45 193.771C298.698 164.485 331.659 165.619 354.23 196.174C352.589 201.192 350.787 206.49 349.382 211.644C344.569 230.863 346.022 248.479 356.769 262.514C360.896 267.879 366.303 272.119 374.405 268.968C380.523 266.534 385.043 258.704 385.794 248.698C386.771 232.858 382.587 218.884 377.05 205.62C374.969 201.063 372.887 196.506 370.645 192.229C403.61 146.014 460.621 132.697 485.605 173.221C487.468 169.449 489.479 166.51 489.505 164.288C489.458 161.65 487.512 159.035 485.714 157.252C468.269 141.215 448.041 133.264 422.717 141.759C403.745 147.956 386.929 159.127 371.413 174.03C369.253 176.139 367.093 178.247 364.698 180.22C364.536 180.499 363.903 180.507 362.477 180.802C360.518 179.298 357.926 177.801 355.657 175.746C327.474 151.645 305.169 152.189 270.381 178.709C268.199 175.958 265.546 172.935 263.29 169.768C249.345 152.023 231.526 140.99 208.95 137.649C172.246 132.118 135.328 151.442 110.928 188.807C97.6417 209.099 89.0807 231.001 84.1413 254.248C72.408 310.483 76.3826 362.366 100.507 408.731C101.585 411.217 103.059 413.56 104.137 416.046C104.211 416.462 104.124 417.157 103.862 419.243C94.5597 416.855 87.5042 411.663 80.2874 406.751C73.1447 402.254 66.0893 397.062 58.4012 391.878C54.9105 399.556 56.5947 404.257 59.6315 408.247C63.3752 412.646 66.796 417.604 71.3469 420.604C83.7473 428.509 96.5448 436.27 109.988 442.913C120.604 447.924 127.145 443.125 128.318 430.753C130.605 404.483 132.656 378.077 134.707 351.671C134.995 347.363 134.489 343.343 134.157 337.932C126.129 341.499 125.431 347.061 124.658 352.208C122.537 371.117 119.71 389.618 116.546 409.789ZM372.18 256.498C357.376 244.595 354.348 226.442 363.65 208.697C369.645 223.343 375.653 236.878 372.18 256.498ZM267.518 253.861C255.876 241.92 255.737 226.926 266.999 210.685C270.786 224.802 273.718 237.68 267.518 253.861Z" fill="white"/>
</g>
<defs>
<clipPath id="clip0_102_4">
<rect width="316.973" height="438.048" fill="white" transform="matrix(-0.866025 -0.5 -0.5 0.866025 493.638 159.306)"/>
</clipPath>
</defs>
</svg>
