<svg width="1920" height="1056" viewBox="0 0 1920 1056" fill="none" xmlns="http://www.w3.org/2000/svg">
<g clip-path="url(#clip0_403_821)">
<rect x="228" y="-80" width="2052" height="678" rx="299" stroke="green" stroke-width="2"/>
<rect x="-212" y="293" width="1870" height="917" rx="99" stroke="green" stroke-width="2"/>
<path d="M88.8249 275.205C88.9125 274.964 89.0722 274.755 89.2824 274.608C89.4927 274.461 89.7432 274.381 89.9999 274.381C90.2566 274.381 90.5071 274.461 90.7173 274.608C90.9275 274.755 91.0873 274.964 91.1749 275.205L92.3699 278.47C93.3059 281.03 94.7895 283.355 96.717 285.283C98.6446 287.21 100.97 288.694 103.53 289.63L106.792 290.825C107.034 290.913 107.242 291.072 107.39 291.283C107.537 291.493 107.616 291.743 107.616 292C107.616 292.257 107.537 292.507 107.39 292.717C107.242 292.928 107.034 293.087 106.792 293.175L103.53 294.37C100.97 295.306 98.6446 296.79 96.717 298.717C94.7895 300.645 93.3059 302.97 92.3699 305.53L91.1749 308.793C91.0873 309.034 90.9275 309.242 90.7173 309.39C90.5071 309.537 90.2566 309.616 89.9999 309.616C89.7432 309.616 89.4927 309.537 89.2824 309.39C89.0722 309.242 88.9125 309.034 88.8249 308.793L87.6299 305.53C86.6939 302.97 85.2103 300.645 83.2827 298.717C81.3552 296.79 79.0301 295.306 76.4699 294.37L73.2049 293.175C72.9636 293.087 72.7551 292.928 72.6077 292.717C72.4604 292.507 72.3813 292.257 72.3813 292C72.3813 291.743 72.4604 291.493 72.6077 291.283C72.7551 291.072 72.9636 290.913 73.2049 290.825L76.4699 289.63C79.0301 288.694 81.3552 287.21 83.2827 285.283C85.2103 283.355 86.6939 281.03 87.6299 278.47L88.8249 275.205Z" fill="green"/>
<rect x="91" y="95" width="1739" height="891" stroke="green" stroke-width="2"/>
<path fill-rule="evenodd" clip-rule="evenodd" d="M288.75 331.375C289.524 331.375 290.277 331.627 290.895 332.094C291.513 332.56 291.962 333.215 292.175 333.959L296.036 347.477C296.868 350.389 298.428 353.04 300.569 355.181C302.71 357.322 305.361 358.882 308.272 359.713L321.791 363.575C322.535 363.788 323.189 364.238 323.655 364.856C324.12 365.474 324.372 366.226 324.372 367C324.372 367.774 324.12 368.526 323.655 369.144C323.189 369.762 322.535 370.212 321.791 370.425L308.272 374.287C305.361 375.118 302.71 376.678 300.569 378.819C298.428 380.96 296.868 383.611 296.036 386.523L292.175 400.041C291.962 400.785 291.512 401.439 290.894 401.905C290.276 402.371 289.524 402.622 288.75 402.622C287.976 402.622 287.223 402.371 286.606 401.905C285.988 401.439 285.538 400.785 285.325 400.041L281.463 386.523C280.632 383.611 279.072 380.96 276.931 378.819C274.79 376.678 272.139 375.118 269.227 374.287L255.709 370.425C254.965 370.212 254.311 369.762 253.845 369.144C253.379 368.526 253.127 367.774 253.127 367C253.127 366.226 253.379 365.474 253.845 364.856C254.311 364.238 254.965 363.788 255.709 363.575L269.227 359.713C272.139 358.882 274.79 357.322 276.931 355.181C279.072 353.04 280.632 350.389 281.463 347.477L285.325 333.959C285.538 333.215 285.987 332.56 286.605 332.094C287.223 331.627 287.976 331.375 288.75 331.375ZM331.5 317.125C332.295 317.125 333.067 317.39 333.693 317.879C334.32 318.368 334.765 319.052 334.958 319.823L336.183 324.744C336.734 326.935 337.868 328.936 339.466 330.534C341.064 332.132 343.065 333.266 345.256 333.816L350.177 335.042C350.949 335.233 351.636 335.678 352.126 336.305C352.616 336.931 352.883 337.704 352.883 338.5C352.883 339.296 352.616 340.069 352.126 340.695C351.636 341.322 350.949 341.767 350.177 341.958L345.256 343.184C343.065 343.734 341.064 344.868 339.466 346.466C337.868 348.064 336.734 350.065 336.183 352.256L334.958 357.177C334.767 357.949 334.322 358.636 333.695 359.126C333.069 359.617 332.296 359.883 331.5 359.883C330.704 359.883 329.931 359.617 329.304 359.126C328.678 358.636 328.233 357.949 328.042 357.177L326.816 352.256C326.268 350.064 325.135 348.061 323.537 346.463C321.939 344.865 319.936 343.732 317.744 343.184L312.823 341.958C312.05 341.767 311.364 341.322 310.874 340.695C310.383 340.069 310.117 339.296 310.117 338.5C310.117 337.704 310.383 336.931 310.874 336.305C311.364 335.678 312.05 335.233 312.823 335.042L317.744 333.816C319.936 333.268 321.939 332.135 323.537 330.537C325.135 328.939 326.268 326.936 326.816 324.744L328.042 319.823C328.235 319.052 328.68 318.368 329.306 317.879C329.933 317.39 330.705 317.125 331.5 317.125ZM324.375 381.25C325.123 381.25 325.852 381.485 326.459 381.922C327.067 382.359 327.52 382.977 327.757 383.687L329.628 389.306C330.341 391.429 332.003 393.101 334.131 393.809L339.751 395.685C340.458 395.923 341.073 396.377 341.509 396.983C341.945 397.589 342.179 398.316 342.179 399.062C342.179 399.809 341.945 400.536 341.509 401.142C341.073 401.748 340.458 402.202 339.751 402.44L334.131 404.316C333.083 404.666 332.13 405.255 331.349 406.036C330.567 406.818 329.978 407.771 329.628 408.819L327.752 414.438C327.515 415.146 327.061 415.761 326.455 416.197C325.849 416.632 325.121 416.867 324.375 416.867C323.628 416.867 322.901 416.632 322.295 416.197C321.689 415.761 321.235 415.146 320.998 414.438L319.121 408.819C318.771 407.771 318.182 406.818 317.401 406.036C316.619 405.255 315.667 404.666 314.618 404.316L308.999 402.44C308.292 402.202 307.676 401.748 307.241 401.142C306.805 400.536 306.57 399.809 306.57 399.062C306.57 398.316 306.805 397.589 307.241 396.983C307.676 396.377 308.292 395.923 308.999 395.685L314.618 393.809C315.667 393.459 316.619 392.87 317.401 392.089C318.182 391.307 318.771 390.354 319.121 389.306L320.998 383.687C321.234 382.978 321.687 382.361 322.293 381.923C322.899 381.486 323.627 381.251 324.375 381.25Z" fill="green"/>
<path d="M1657.82 581.205C1657.91 580.964 1658.07 580.755 1658.28 580.608C1658.49 580.461 1658.74 580.381 1659 580.381C1659.26 580.381 1659.51 580.461 1659.72 580.608C1659.93 580.755 1660.09 580.964 1660.17 581.205L1661.37 584.47C1662.31 587.03 1663.79 589.355 1665.72 591.283C1667.64 593.21 1669.97 594.694 1672.53 595.63L1675.79 596.825C1676.03 596.913 1676.24 597.072 1676.39 597.283C1676.54 597.493 1676.62 597.743 1676.62 598C1676.62 598.257 1676.54 598.507 1676.39 598.717C1676.24 598.928 1676.03 599.087 1675.79 599.175L1672.53 600.37C1669.97 601.306 1667.64 602.79 1665.72 604.717C1663.79 606.645 1662.31 608.97 1661.37 611.53L1660.17 614.793C1660.09 615.034 1659.93 615.242 1659.72 615.39C1659.51 615.537 1659.26 615.616 1659 615.616C1658.74 615.616 1658.49 615.537 1658.28 615.39C1658.07 615.242 1657.91 615.034 1657.82 614.793L1656.63 611.53C1655.69 608.97 1654.21 606.645 1652.28 604.717C1650.36 602.79 1648.03 601.306 1645.47 600.37L1642.2 599.175C1641.96 599.087 1641.76 598.928 1641.61 598.717C1641.46 598.507 1641.38 598.257 1641.38 598C1641.38 597.743 1641.46 597.493 1641.61 597.283C1641.76 597.072 1641.96 596.913 1642.2 596.825L1645.47 595.63C1648.03 594.694 1650.36 593.21 1652.28 591.283C1654.21 589.355 1655.69 587.03 1656.63 584.47L1657.82 581.205Z" fill="green"/>
<path d="M1657.82 970.205C1657.91 969.964 1658.07 969.755 1658.28 969.608C1658.49 969.461 1658.74 969.381 1659 969.381C1659.26 969.381 1659.51 969.461 1659.72 969.608C1659.93 969.755 1660.09 969.964 1660.17 970.205L1661.37 973.47C1662.31 976.03 1663.79 978.355 1665.72 980.283C1667.64 982.21 1669.97 983.694 1672.53 984.63L1675.79 985.825C1676.03 985.913 1676.24 986.072 1676.39 986.283C1676.54 986.493 1676.62 986.743 1676.62 987C1676.62 987.257 1676.54 987.507 1676.39 987.717C1676.24 987.928 1676.03 988.087 1675.79 988.175L1672.53 989.37C1669.97 990.306 1667.64 991.79 1665.72 993.717C1663.79 995.645 1662.31 997.97 1661.37 1000.53L1660.17 1003.79C1660.09 1004.03 1659.93 1004.24 1659.72 1004.39C1659.51 1004.54 1659.26 1004.62 1659 1004.62C1658.74 1004.62 1658.49 1004.54 1658.28 1004.39C1658.07 1004.24 1657.91 1004.03 1657.82 1003.79L1656.63 1000.53C1655.69 997.97 1654.21 995.645 1652.28 993.717C1650.36 991.79 1648.03 990.306 1645.47 989.37L1642.2 988.175C1641.96 988.087 1641.76 987.928 1641.61 987.717C1641.46 987.507 1641.38 987.257 1641.38 987C1641.38 986.743 1641.46 986.493 1641.61 986.283C1641.76 986.072 1641.96 985.913 1642.2 985.825L1645.47 984.63C1648.03 983.694 1650.36 982.21 1652.28 980.283C1654.21 978.355 1655.69 976.03 1656.63 973.47L1657.82 970.205Z" fill="green"/>
<path d="M1829.82 581.205C1829.91 580.964 1830.07 580.755 1830.28 580.608C1830.49 580.461 1830.74 580.381 1831 580.381C1831.26 580.381 1831.51 580.461 1831.72 580.608C1831.93 580.755 1832.09 580.964 1832.17 581.205L1833.37 584.47C1834.31 587.03 1835.79 589.355 1837.72 591.283C1839.64 593.21 1841.97 594.694 1844.53 595.63L1847.79 596.825C1848.03 596.913 1848.24 597.072 1848.39 597.283C1848.54 597.493 1848.62 597.743 1848.62 598C1848.62 598.257 1848.54 598.507 1848.39 598.717C1848.24 598.928 1848.03 599.087 1847.79 599.175L1844.53 600.37C1841.97 601.306 1839.64 602.79 1837.72 604.717C1835.79 606.645 1834.31 608.97 1833.37 611.53L1832.17 614.793C1832.09 615.034 1831.93 615.242 1831.72 615.39C1831.51 615.537 1831.26 615.616 1831 615.616C1830.74 615.616 1830.49 615.537 1830.28 615.39C1830.07 615.242 1829.91 615.034 1829.82 614.793L1828.63 611.53C1827.69 608.97 1826.21 606.645 1824.28 604.717C1822.36 602.79 1820.03 601.306 1817.47 600.37L1814.2 599.175C1813.96 599.087 1813.76 598.928 1813.61 598.717C1813.46 598.507 1813.38 598.257 1813.38 598C1813.38 597.743 1813.46 597.493 1813.61 597.283C1813.76 597.072 1813.96 596.913 1814.2 596.825L1817.47 595.63C1820.03 594.694 1822.36 593.21 1824.28 591.283C1826.21 589.355 1827.69 587.03 1828.63 584.47L1829.82 581.205Z" fill="green"/>
</g>
<defs>
<clipPath id="clip0_403_821">
<rect width="1920" height="1056" fill="green"/>
</clipPath>
</defs>
</svg>
